<svg width="18" height="18" viewBox="0 0 18 18" fill="none" xmlns="http://www.w3.org/2000/svg">
<path opacity="0.4" d="M14.8365 6.21481C14.8687 7.42272 14.54 8.54022 13.9482 9.48132C13.084 10.8382 11.6846 11.8174 10.0333 12.1032C9.75139 12.1607 9.4605 12.1935 9.1606 12.2015C8.86071 12.2095 8.56848 12.1922 8.28392 12.1498C6.61973 11.9524 5.17015 11.049 4.23496 9.74015C3.59387 8.83191 3.20614 7.7335 3.17395 6.5256C3.08804 3.30174 5.62596 0.624853 8.84982 0.538943C12.0737 0.453034 14.7506 2.99096 14.8365 6.21481Z" fill="#355F53"/>
<path d="M16.9209 14.0535L15.5551 14.415C15.2488 14.4982 15.0135 14.7379 14.955 15.0479L14.6961 16.2803C14.5556 16.9509 13.7112 17.1735 13.2557 16.6605L9.16048 12.2013L5.30877 16.8805C4.88124 17.4171 4.02621 17.2398 3.85018 16.5776L3.52598 15.3608C3.4428 15.0546 3.19478 14.8195 2.89311 14.7608L1.50994 14.4726C0.872834 14.3395 0.626824 13.5541 1.07279 13.0837L4.23506 9.74828C5.17026 11.0572 6.61984 11.9606 8.28402 12.158C8.56858 12.2004 8.86081 12.2176 9.16071 12.2096C9.4606 12.2016 9.7515 12.1689 10.0334 12.1113C11.6847 11.8256 13.0841 10.8463 13.9483 9.48944L17.2837 12.6517C17.7539 13.0893 17.55 13.8867 16.9209 14.0535Z" fill="#355F53"/>
<path d="M9.42087 3.84124L9.93856 4.81112C10.0088 4.94263 10.1872 5.07126 10.3462 5.09203L11.2415 5.21822C11.8104 5.29476 11.9548 5.70773 11.5575 6.1268L10.8845 6.83663C10.771 6.95636 10.7104 7.18307 10.7564 7.34857L10.9792 8.20127C11.1555 8.87181 10.8044 9.14792 10.1951 8.80569L9.34893 8.3364C9.19654 8.24876 8.94663 8.25542 8.79912 8.35105L7.97918 8.86474C7.38872 9.2306 7.02363 8.98192 7.16393 8.30294L7.34099 7.43959C7.3701 7.28042 7.30557 7.04871 7.18583 6.93519L6.47599 6.26221C6.05692 5.8649 6.17933 5.45315 6.74313 5.33809L7.63049 5.1644C7.77977 5.13541 7.95115 4.99746 8.01424 4.8624L8.47954 3.86632C8.70692 3.32674 9.1401 3.3152 9.42087 3.84124Z" fill="#355F53"/>
</svg>
