<svg width="212" height="212" viewBox="0 0 212 212" fill="none" xmlns="http://www.w3.org/2000/svg">
<g filter="url(#filter0_d_671_14281)">
<path d="M111.147 96.4599C103.801 96.2182 97.6635 90.5875 96.6268 83.1357L94.0234 64.4479L103.814 63.0826C104.551 62.9957 107.64 62.7137 110.413 64.8592C111.516 65.7072 112.444 66.8647 113.241 68.5861C114.802 71.9569 121.407 89.4279 114.183 95.0543C113.288 95.7431 112.251 96.2233 111.147 96.4599Z" fill="black"/>
</g>
<g filter="url(#filter1_d_671_14281)">
<path d="M142.532 183.774H83.7023L78.9492 112.118C87.242 108.489 95.9256 105.827 104.828 104.187C117.548 101.855 127.622 101.758 136.728 102.89C138.665 129.909 140.592 156.755 142.532 183.774Z" fill="black"/>
</g>
<g filter="url(#filter2_d_671_14281)">
<path d="M110.604 95.7561L108.272 89.3558C110.568 89.2625 112.404 87.2676 112.404 84.8126C112.404 82.2962 110.481 80.2589 108.107 80.2589C107.089 80.2615 106.108 80.6388 105.351 81.3189L100.96 69.254L82.9593 75.0479C82.125 75.316 81.3517 75.7459 80.6836 76.3129C80.0155 76.88 79.4658 77.5732 79.0657 78.3528C78.6656 79.1325 78.4231 79.9833 78.3521 80.8568C78.281 81.7302 78.3827 82.609 78.6515 83.4431L83.5275 98.5948C84.27 100.892 85.8934 102.801 88.0416 103.903C90.1898 105.004 92.6872 105.209 94.9861 104.471L97.6043 103.301L99.7921 107.978C99.8863 108.185 100.05 108.352 100.254 108.451C104.055 110.278 108.298 109.831 110.909 107.391C112.714 105.709 113.712 104.196 114 103.206C114.064 102.974 114.039 102.727 113.93 102.513L110.604 95.7561Z" fill="white"/>
</g>
<path d="M97.6094 103.31L105.5 99.7059C105.552 99.683 105.611 99.6788 105.666 99.6938C105.721 99.7089 105.77 99.7424 105.803 99.7887C105.836 99.835 105.853 99.8914 105.85 99.9485C105.847 100.006 105.824 100.06 105.786 100.102L99.3414 107.014L97.6094 103.31Z" fill="black"/>
<path d="M107.746 86.6952C107.442 86.6956 107.143 86.6056 106.89 86.4365C106.636 86.2674 106.438 86.0268 106.321 85.7452C106.204 85.4637 106.173 85.1537 106.232 84.8546C106.292 84.5555 106.438 84.2807 106.654 84.0649C106.869 83.8491 107.144 83.7021 107.443 83.6425C107.742 83.5829 108.052 83.6133 108.334 83.7299C108.615 83.8464 108.856 84.044 109.026 84.2975C109.195 84.551 109.286 84.8491 109.286 85.154C109.286 85.5624 109.124 85.9541 108.835 86.243C108.546 86.532 108.155 86.6946 107.746 86.6952ZM107.746 84.4629C107.609 84.4624 107.475 84.5028 107.361 84.5788C107.246 84.6548 107.157 84.7631 107.104 84.8898C107.052 85.0166 107.038 85.1561 107.064 85.2908C107.091 85.4255 107.157 85.5492 107.254 85.6463C107.351 85.7434 107.475 85.8094 107.61 85.8361C107.744 85.8628 107.884 85.8489 108.011 85.7962C108.137 85.7434 108.246 85.6542 108.322 85.5399C108.398 85.4256 108.438 85.2913 108.438 85.154C108.438 84.9707 108.365 84.7949 108.235 84.6653C108.106 84.5357 107.93 84.4629 107.746 84.4629Z" fill="black"/>
<path d="M106.661 85.8365C106.556 85.8372 106.455 85.7993 106.377 85.73C106.299 85.6608 106.249 85.5651 106.237 85.4613C106.128 84.5433 106.338 83.8013 106.86 83.2522C107.839 82.2198 109.557 82.3152 109.629 82.3194C109.741 82.3264 109.846 82.3779 109.921 82.4623C109.995 82.5468 110.033 82.6575 110.026 82.7699C110.019 82.8824 109.968 82.9874 109.883 83.062C109.799 83.1365 109.688 83.1744 109.576 83.1674C109.563 83.1674 108.176 83.0932 107.473 83.8373C107.129 84.1999 107.002 84.6981 107.078 85.3637C107.091 85.475 107.059 85.5867 106.989 85.6745C106.92 85.7622 106.818 85.819 106.707 85.8323L106.661 85.8365Z" fill="black"/>
<path d="M91.0377 97.7107C90.4901 97.7173 89.9488 97.5938 89.4583 97.3503C89.366 97.2917 89.2999 97.1996 89.2739 97.0934C89.2479 96.9871 89.2639 96.875 89.3186 96.7803C89.3734 96.6856 89.4626 96.6158 89.5676 96.5853C89.6726 96.5548 89.7854 96.5661 89.8823 96.6168C89.9798 96.6698 92.1613 97.8506 94.3936 94.6982C94.4245 94.6499 94.4649 94.6083 94.5124 94.576C94.5598 94.5437 94.6133 94.5214 94.6696 94.5104C94.7259 94.4994 94.7839 94.5 94.84 94.5121C94.8961 94.5241 94.9492 94.5474 94.996 94.5806C95.0428 94.6138 95.0824 94.6561 95.1124 94.7051C95.1424 94.754 95.1621 94.8085 95.1704 94.8653C95.1787 94.922 95.1754 94.9799 95.1607 95.0354C95.1459 95.0908 95.1201 95.1427 95.0847 95.1879C93.6368 97.2337 92.1273 97.7107 91.0377 97.7107Z" fill="black"/>
<path d="M93.6415 86.3601C94.1543 86.3601 94.57 85.9444 94.57 85.4315C94.57 84.9187 94.1543 84.503 93.6415 84.503C93.1286 84.503 92.7129 84.9187 92.7129 85.4315C92.7129 85.9444 93.1286 86.3601 93.6415 86.3601Z" fill="black"/>
<path d="M82.7723 90.2928C83.2851 90.2928 83.7009 89.8771 83.7009 89.3643C83.7009 88.8514 83.2851 88.4357 82.7723 88.4357C82.2595 88.4357 81.8438 88.8514 81.8438 89.3643C81.8438 89.8771 82.2595 90.2928 82.7723 90.2928Z" fill="black"/>
<path d="M82.5379 94.4482C80.4073 94.4482 78.4293 92.731 77.9184 90.2824C77.3417 87.5264 78.8406 84.8721 81.2574 84.3654C81.8557 84.2469 82.4726 84.26 83.0653 84.4039C83.658 84.5477 84.2123 84.8189 84.6897 85.1986C85.7241 86.0072 86.4336 87.1606 86.6888 88.4486C86.9713 89.7306 86.7831 91.0715 86.1588 92.2264C85.8738 92.7658 85.4747 93.2366 84.9892 93.606C84.5037 93.9755 83.9436 94.2346 83.3477 94.3655C83.0812 94.4203 82.8099 94.448 82.5379 94.4482ZM82.0736 85.1202C81.8598 85.1211 81.6467 85.1439 81.4376 85.188C79.4766 85.5972 78.2724 87.802 78.7537 90.1C79.2349 92.3981 81.2213 93.9351 83.1802 93.526C83.6569 93.4198 84.1047 93.2107 84.4921 92.9133C84.8795 92.616 85.1973 92.2375 85.4232 91.8045C85.9468 90.8286 86.1018 89.6968 85.8599 88.616C85.6501 87.5247 85.0531 86.546 84.1787 85.86C83.5766 85.3913 82.8367 85.1342 82.0736 85.1286V85.1202Z" fill="black"/>
<path d="M86.6358 88.616C86.5352 88.6153 86.4382 88.5788 86.362 88.5131C86.2858 88.4475 86.2355 88.3569 86.2199 88.2575C86.2044 88.1581 86.2247 88.0565 86.2772 87.9707C86.3297 87.8849 86.4109 87.8206 86.5065 87.7892L90.3352 86.5553C90.4396 86.5294 90.5499 86.5441 90.6438 86.5964C90.7378 86.6487 90.8084 86.7348 90.8412 86.8372C90.8741 86.9396 90.8668 87.0506 90.8209 87.1479C90.775 87.2451 90.6938 87.3213 90.5938 87.3609L86.7672 88.5969C86.7246 88.6095 86.6803 88.6159 86.6358 88.616Z" fill="black"/>
<path d="M88.5399 93.14C88.3237 93.1457 88.1088 93.1041 87.9103 93.018C87.7118 92.932 87.5345 92.8036 87.3909 92.6418C86.9669 92.1266 87.039 91.4207 87.2404 90.9733C87.384 90.6598 87.6171 90.3958 87.9103 90.2144L86.1655 85.5504C86.1335 85.447 86.1421 85.3352 86.1898 85.238C86.2374 85.1408 86.3205 85.0656 86.4218 85.0276C86.5232 84.9897 86.6353 84.9919 86.735 85.0339C86.8348 85.076 86.9147 85.1545 86.9584 85.2536L88.9936 90.6787L88.5696 90.8186C88.4478 90.8588 88.3353 90.923 88.2388 91.0075C88.1423 91.092 88.0638 91.195 88.0078 91.3104C87.9315 91.4779 87.8403 91.8553 88.0333 92.0842C88.2262 92.3132 88.6693 92.381 89.0805 92.116C89.1269 92.0818 89.1798 92.0574 89.236 92.0443C89.2921 92.0313 89.3503 92.0298 89.407 92.0399C89.4638 92.0501 89.5178 92.0718 89.5659 92.1036C89.614 92.1353 89.6551 92.1766 89.6867 92.2248C89.7183 92.273 89.7398 92.3271 89.7498 92.3839C89.7597 92.4407 89.758 92.4989 89.7447 92.555C89.7315 92.6111 89.7069 92.6639 89.6725 92.7101C89.6381 92.7564 89.5947 92.7952 89.5448 92.8241C89.2475 93.0244 88.8984 93.1341 88.5399 93.14Z" fill="black"/>
<g filter="url(#filter3_d_671_14281)">
<path d="M91.8122 76.5236C97.1781 75.4016 100.854 71.271 100.024 67.2976C99.1929 63.3243 94.1695 61.0127 88.8036 62.1347C83.4378 63.2566 79.7614 67.3872 80.5922 71.3606C81.423 75.334 86.4464 77.6455 91.8122 76.5236Z" fill="black"/>
</g>
<path d="M108.179 76.5553L102.86 77.9375C101.412 78.3133 99.8745 78.0988 98.5848 77.3411C97.2952 76.5833 96.3592 75.3444 95.9828 73.8968L94.8613 69.5805L105.639 66.7799L108.179 76.5553Z" fill="black"/>
<g filter="url(#filter4_d_671_14281)">
<path d="M78.3136 81.97C82.3225 81.97 85.5724 78.7201 85.5724 74.7111C85.5724 70.7021 82.3225 67.4522 78.3136 67.4522C74.3046 67.4522 71.0547 70.7021 71.0547 74.7111C71.0547 78.7201 74.3046 81.97 78.3136 81.97Z" fill="black"/>
</g>
<path d="M98.1086 84.4947C98.0099 84.4949 97.9141 84.4607 97.8379 84.3978C97.7617 84.335 97.7098 84.2475 97.6912 84.1505C97.6726 84.0535 97.6884 83.953 97.736 83.8665C97.7836 83.7799 97.8599 83.7127 97.9518 83.6763L105.889 80.4964C105.941 80.4722 105.998 80.4589 106.056 80.4574C106.113 80.4558 106.17 80.466 106.224 80.4873C106.277 80.5087 106.326 80.5406 106.367 80.5813C106.407 80.6221 106.439 80.6706 106.461 80.7241C106.482 80.7776 106.492 80.8349 106.491 80.8924C106.489 80.95 106.476 81.0067 106.452 81.0589C106.428 81.1112 106.393 81.158 106.35 81.1965C106.308 81.235 106.257 81.2644 106.203 81.2829L98.2655 84.4629C98.2156 84.4828 98.1624 84.4936 98.1086 84.4947Z" fill="black"/>
<g filter="url(#filter5_d_671_14281)">
<path d="M68.1363 152.061L66.2812 176.835L66.9321 182.913H83.644L81.6555 152.926L68.1363 152.061Z" fill="white"/>
</g>
<path d="M84.0979 183.338H66.5507L65.8574 176.842L67.7463 151.614L82.0542 152.528L84.0979 183.338ZM67.3139 182.49H83.1905L81.2571 153.325L68.5371 152.511L66.7075 176.829L67.3139 182.49Z" fill="black"/>
<g filter="url(#filter6_d_671_14281)">
<path d="M78.948 112.121C78.2364 112.409 77.5518 112.759 76.9022 113.168C72.0474 116.229 70.4489 121.86 69.2193 127.353C67.9134 133.193 65.9906 146.63 65.3164 157.065C70.5825 157.4 76.7305 157.737 81.9966 158.074L78.948 112.121Z" fill="black"/>
</g>
<path d="M74.252 132.945H23.4123C23.2998 132.945 23.192 132.901 23.1125 132.821C23.033 132.742 22.9883 132.634 22.9883 132.521C22.9883 132.409 23.033 132.301 23.1125 132.222C23.192 132.142 23.2998 132.097 23.4123 132.097H74.252C74.3645 132.097 74.4723 132.142 74.5518 132.222C74.6313 132.301 74.676 132.409 74.676 132.521C74.676 132.634 74.6313 132.742 74.5518 132.821C74.4723 132.901 74.3645 132.945 74.252 132.945Z" fill="black"/>
<path d="M49.246 132.712H28.1478C27.7227 132.712 27.3152 132.543 27.0144 132.242C26.7136 131.942 26.5441 131.534 26.543 131.109V128.11C26.5435 127.684 26.7128 127.276 27.0136 126.975C27.3145 126.675 27.7224 126.505 28.1478 126.505H49.246C49.6715 126.505 50.0794 126.675 50.3802 126.975C50.6811 127.276 50.8503 127.684 50.8509 128.11V131.111C50.8492 131.536 50.6795 131.943 50.3787 132.243C50.078 132.543 49.6708 132.712 49.246 132.712ZM28.1478 127.351C28.0484 127.351 27.95 127.37 27.8582 127.408C27.7664 127.446 27.6829 127.502 27.6126 127.572C27.5424 127.643 27.4866 127.726 27.4486 127.818C27.4105 127.91 27.391 128.008 27.391 128.107V131.109C27.3915 131.31 27.4715 131.502 27.6134 131.643C27.7553 131.785 27.9475 131.864 28.1478 131.864H49.246C49.4464 131.864 49.6386 131.785 49.7805 131.643C49.9223 131.502 50.0023 131.31 50.0029 131.109V128.11C50.0029 127.909 49.9232 127.716 49.7812 127.574C49.6393 127.432 49.4468 127.353 49.246 127.353L28.1478 127.351Z" fill="black"/>
<path d="M49.2438 121.228H28.1476C27.4955 121.228 26.9668 121.757 26.9668 122.409V125.409C26.9668 126.061 27.4955 126.59 28.1476 126.59H49.2438C49.8959 126.59 50.4246 126.061 50.4246 125.409V122.409C50.4246 121.757 49.8959 121.228 49.2438 121.228Z" fill="#FFBB45"/>
<path d="M54.7845 132.606H51.7805C51.3556 132.606 50.9482 132.436 50.6478 132.136C50.3473 131.836 50.1783 131.428 50.1777 131.003V113.532C50.1783 113.108 50.3473 112.7 50.6478 112.4C50.9482 112.099 51.3556 111.93 51.7805 111.93H54.7845C55.2094 111.93 55.6167 112.099 55.9172 112.4C56.2176 112.7 56.3867 113.108 56.3872 113.532V131.003C56.3867 131.428 56.2176 131.836 55.9172 132.136C55.6167 132.436 55.2094 132.606 54.7845 132.606ZM51.7805 112.784C51.5805 112.785 51.3888 112.864 51.2474 113.006C51.106 113.147 51.0263 113.339 51.0257 113.539V131.01C51.0263 131.21 51.106 131.401 51.2474 131.543C51.3888 131.684 51.5805 131.764 51.7805 131.764H54.7845C54.9845 131.764 55.1761 131.684 55.3175 131.543C55.459 131.401 55.5387 131.21 55.5392 131.01V113.532C55.5387 113.332 55.459 113.141 55.3175 112.999C55.1761 112.858 54.9845 112.778 54.7845 112.778L51.7805 112.784Z" fill="black"/>
<path d="M60.5205 112.354H57.5207C56.8685 112.354 56.3398 112.883 56.3398 113.535V131.003C56.3398 131.656 56.8685 132.184 57.5207 132.184H60.5205C61.1726 132.184 61.7013 131.656 61.7013 131.003V113.535C61.7013 112.883 61.1726 112.354 60.5205 112.354Z" fill="#FFC1EB"/>
<path d="M104.986 114.8C102.173 114.773 99.4249 113.948 97.0617 112.421C96.9723 112.358 96.9109 112.263 96.8903 112.155C96.8698 112.047 96.8917 111.936 96.9514 111.844C97.0112 111.752 97.1041 111.687 97.2109 111.662C97.3176 111.638 97.4297 111.655 97.5238 111.711C98.8403 112.559 102.4 114.493 106.901 113.808C113.106 112.867 116.18 107.827 116.733 106.827C116.759 106.776 116.794 106.73 116.838 106.693C116.881 106.656 116.932 106.629 116.986 106.612C117.041 106.595 117.098 106.589 117.155 106.595C117.212 106.601 117.267 106.618 117.317 106.645C117.367 106.673 117.411 106.71 117.446 106.755C117.481 106.8 117.507 106.852 117.522 106.907C117.537 106.962 117.54 107.02 117.532 107.076C117.524 107.133 117.505 107.187 117.475 107.236C116.888 108.296 113.625 113.645 107.028 114.645C106.352 114.749 105.67 114.8 104.986 114.8Z" fill="white"/>
<path d="M89.5852 117.319L79.8696 119.877C78.5879 120.215 77.8224 121.527 78.1598 122.809L83.369 142.595C83.7065 143.877 85.0191 144.642 86.3008 144.305L96.0164 141.747C97.2981 141.409 98.0636 140.097 97.7261 138.815L92.5169 119.029C92.1795 117.747 90.8669 116.982 89.5852 117.319Z" fill="#FFFAF0"/>
<path d="M89.3938 120.773L89.2325 120.809C88.7104 120.926 88.382 121.444 88.4991 121.966L89.4483 126.199C89.5654 126.721 90.0835 127.049 90.6056 126.932L90.767 126.896C91.2891 126.779 91.6174 126.261 91.5003 125.739L90.5512 121.506C90.4341 120.984 89.9159 120.656 89.3938 120.773Z" fill="#0B1B34"/>
<path d="M94.3405 90.0277C92.2205 90.0277 90.2722 88.3783 89.7782 86.0188C89.2249 83.3497 90.7365 80.7718 93.1575 80.263C95.5785 79.7542 97.9975 81.5159 98.555 84.185C99.1126 86.8541 97.5989 89.4362 95.18 89.9408C94.904 89.9993 94.6226 90.0285 94.3405 90.0277ZM93.9907 81.0241C93.7677 81.0235 93.5453 81.0463 93.3271 81.0919C91.3661 81.5032 90.1471 83.6359 90.6093 85.8449C91.0714 88.054 93.0409 89.521 95.0019 89.1119C96.9629 88.7027 98.1819 86.5679 97.7197 84.3588C97.3085 82.3978 95.7185 81.0241 93.9949 81.0241H93.9907Z" fill="black"/>
<path d="M145.288 55.7877H127.739C125.186 55.7877 123.117 57.8569 123.117 60.4093V76.8945C123.117 79.4469 125.186 81.5161 127.739 81.5161H145.288C147.841 81.5161 149.91 79.4469 149.91 76.8945V60.4093C149.91 57.8569 147.841 55.7877 145.288 55.7877Z" fill="white"/>
<path d="M142.589 63.3858H130.435C129.414 63.3858 128.586 64.2134 128.586 65.2344V75.5313C128.586 76.5522 129.414 77.3799 130.435 77.3799H142.589C143.61 77.3799 144.437 76.5522 144.437 75.5313V65.2344C144.437 64.2134 143.61 63.3858 142.589 63.3858Z" fill="#FFC1EB"/>
<path d="M144.437 68.3868H128.586C128.474 68.3868 128.366 68.3421 128.286 68.2626C128.207 68.1831 128.162 68.0752 128.162 67.9628C128.162 67.8503 128.207 67.7425 128.286 67.663C128.366 67.5834 128.474 67.5388 128.586 67.5388H144.437C144.55 67.5388 144.658 67.5834 144.737 67.663C144.817 67.7425 144.861 67.8503 144.861 67.9628C144.861 68.0752 144.817 68.1831 144.737 68.2626C144.658 68.3421 144.55 68.3868 144.437 68.3868Z" fill="#FB6D6D"/>
<path d="M137.163 63.8123H136.506C132.601 63.8123 131.482 62.4533 131.23 61.3128C131.183 61.1039 131.181 60.8872 131.226 60.6778C131.271 60.4684 131.36 60.2711 131.488 60.0995C131.616 59.9279 131.78 59.786 131.968 59.6837C132.156 59.5813 132.364 59.5209 132.578 59.5065C135.101 59.3348 136.818 63.0554 136.892 63.2144L137.163 63.8123ZM132.741 60.3503H132.635C132.544 60.3572 132.456 60.3834 132.376 60.4273C132.297 60.4712 132.227 60.5317 132.173 60.6047C132.117 60.6784 132.078 60.7634 132.058 60.8539C132.038 60.9443 132.038 61.038 132.058 61.1283C132.294 62.2011 133.612 62.8349 135.798 62.9452C135.194 61.8873 134.028 60.3482 132.747 60.3482L132.741 60.3503Z" fill="#FB6D6D"/>
<path d="M136.458 63.8123H135.801L136.072 63.2144C136.144 63.0554 137.864 59.3348 140.386 59.5065C140.6 59.5209 140.808 59.5813 140.996 59.6837C141.184 59.786 141.348 59.9279 141.476 60.0995C141.604 60.2711 141.694 60.4684 141.738 60.6778C141.783 60.8872 141.782 61.1039 141.735 61.3128C141.482 62.4512 140.363 63.8123 136.458 63.8123ZM140.223 60.3503C138.951 60.3503 137.777 61.8894 137.166 62.9473C139.352 62.8371 140.67 62.2032 140.906 61.1305C140.926 61.0401 140.926 60.9464 140.906 60.856C140.887 60.7655 140.847 60.6805 140.791 60.6068C140.737 60.5338 140.668 60.4733 140.588 60.4294C140.508 60.3856 140.42 60.3593 140.329 60.3524L140.223 60.3503Z" fill="#FB6D6D"/>
<path d="M140.737 71.2573C140.663 71.2573 140.59 71.2376 140.525 71.2004C140.461 71.1632 140.407 71.1097 140.37 71.0453L136.421 64.2359L132.658 70.7952C132.63 70.8435 132.593 70.8858 132.548 70.9198C132.504 70.9538 132.454 70.9787 132.4 70.9932C132.346 71.0076 132.29 71.0114 132.235 71.0041C132.179 70.9969 132.126 70.9788 132.078 70.951C132.029 70.9232 131.987 70.8861 131.953 70.8419C131.919 70.7977 131.894 70.7472 131.88 70.6934C131.865 70.6395 131.862 70.5834 131.869 70.5281C131.876 70.4728 131.894 70.4195 131.922 70.3712L136.416 62.5272L141.104 70.6086C141.16 70.7059 141.175 70.8215 141.146 70.93C141.117 71.0385 141.046 71.1311 140.949 71.1874C140.886 71.23 140.813 71.2542 140.737 71.2573Z" fill="#FB6D6D"/>
<path d="M136.58 77.8039C136.468 77.8039 136.36 77.7592 136.28 77.6797C136.201 77.6002 136.156 77.4923 136.156 77.3799V63.8331C136.156 63.7206 136.201 63.6128 136.28 63.5333C136.36 63.4537 136.468 63.4091 136.58 63.4091C136.693 63.4091 136.801 63.4537 136.88 63.5333C136.96 63.6128 137.004 63.7206 137.004 63.8331V77.3799C137.004 77.4923 136.96 77.6002 136.88 77.6797C136.801 77.7592 136.693 77.8039 136.58 77.8039Z" fill="#FB6D6D"/>
<path d="M133.656 143.651L81.5741 149.683L80.9551 142.322L132.14 136.276L133.656 143.651Z" fill="#C7B8F8"/>
<path d="M137.368 159.833L82.1161 166.081L81.584 158.122L135.627 151.817L137.368 159.833Z" fill="#C7B8F8"/>
<g filter="url(#filter7_d_671_14281)">
<path d="M99.412 134.387C99.412 134.387 92.4711 135.001 88.8502 128.783C88.5102 128.197 88.0474 127.69 87.4934 127.299C86.5415 126.629 85.1168 126.21 83.6456 127.891C83.6456 127.891 81.2542 124.726 79.4882 126.534C79.4882 126.534 78.229 128.13 79.9122 130.821C79.9122 130.821 77.222 131.938 79.8868 136.642C80.296 137.365 80.6945 138.094 81.0486 138.845C82.4817 141.868 87.5782 150.452 99.7258 151.698C100.518 151.783 101.269 152.093 101.89 152.591L130.688 175.455C133.341 177.581 136.44 179.08 139.753 179.841C144.494 180.901 153.027 180.346 157.443 174.19C160.036 170.523 161.156 166.016 160.58 161.563L159.243 150.687L135.257 154.618L111.044 139.436C110.236 138.927 109.578 138.212 109.136 137.365C107.731 134.683 104.19 128.461 100.262 125.754C100.126 125.661 99.9929 125.569 99.8614 125.472C99.0134 124.836 97.9534 124.31 96.8828 124.293C95.1868 124.268 93.7495 125.834 94.7968 127.424C95.2568 128.124 95.9967 128.696 96.6814 129.167C97.3915 129.65 97.9954 130.273 98.4562 130.998C98.917 131.723 99.2249 132.534 99.3611 133.382C99.4116 133.714 99.4286 134.051 99.412 134.387Z" fill="white"/>
</g>
<path d="M91.8797 138.805C91.8149 138.804 91.7511 138.789 91.6931 138.76C90.5649 138.211 89.5077 137.526 88.5449 136.721C85.2822 133.984 83.8555 130.463 83.2322 127.991C83.2041 127.882 83.2204 127.766 83.2777 127.669C83.335 127.572 83.4284 127.501 83.5375 127.473C83.6466 127.445 83.7623 127.462 83.8593 127.519C83.9563 127.576 84.0266 127.67 84.0548 127.779C84.6462 130.13 86.0009 133.475 89.0898 136.068C89.9972 136.828 90.9939 137.475 92.0578 137.995C92.1443 138.037 92.214 138.107 92.2554 138.194C92.2969 138.28 92.3077 138.379 92.286 138.472C92.2643 138.566 92.2115 138.649 92.1361 138.709C92.0607 138.769 91.9673 138.801 91.8712 138.801L91.8797 138.805Z" fill="black"/>
<path d="M89.1601 142.388C89.0945 142.389 89.0297 142.373 88.9714 142.343C88.4024 142.087 87.8728 141.752 87.3984 141.347C87.2351 141.215 87.0295 141.052 86.7624 140.836C83.5824 138.374 81.085 134.963 79.5247 130.971C79.5015 130.919 79.4891 130.863 79.4883 130.805C79.4875 130.748 79.4983 130.691 79.5201 130.639C79.5418 130.586 79.5741 130.538 79.6148 130.497C79.6556 130.457 79.7041 130.426 79.7574 130.405C79.8106 130.384 79.8676 130.374 79.9248 130.376C79.982 130.377 80.0383 130.391 80.0902 130.415C80.1422 130.439 80.1887 130.473 80.227 130.516C80.2654 130.558 80.2947 130.608 80.3133 130.662C81.8206 134.512 84.229 137.798 87.2818 140.166C87.5637 140.378 87.7715 140.552 87.9368 140.685C88.3644 141.054 88.8436 141.357 89.3594 141.586C89.4439 141.63 89.5114 141.7 89.5511 141.786C89.5909 141.872 89.6005 141.97 89.5785 142.062C89.5565 142.154 89.5042 142.237 89.4298 142.296C89.3555 142.355 89.2635 142.387 89.1686 142.388H89.1601Z" fill="black"/>
<path d="M101.536 183.766H65.8906V176.072H101.536C102.01 176.073 102.464 176.261 102.799 176.596C103.134 176.931 103.323 177.386 103.323 177.859V181.981C103.323 182.454 103.134 182.908 102.799 183.243C102.464 183.578 102.01 183.766 101.536 183.766Z" fill="black"/>
<path d="M69.9042 183.766H28.2059C27.429 183.774 26.6703 183.53 26.043 183.072C25.4157 182.613 24.9534 181.964 24.7249 181.222L14.5129 146.602C13.8514 144.359 15.5877 142.125 17.9939 142.125H57.3241C58.1352 142.117 58.925 142.384 59.566 142.881C60.2069 143.378 60.6614 144.076 60.8561 144.864L69.9042 183.766Z" fill="black"/>
<path d="M39.6209 172.009C42.8126 172.009 45.4 169.421 45.4 166.229C45.4 163.038 42.8126 160.45 39.6209 160.45C36.4292 160.45 33.8418 163.038 33.8418 166.229C33.8418 169.421 36.4292 172.009 39.6209 172.009Z" fill="#FFC1EB"/>
<path d="M38.3508 162.106C38.2559 162.106 38.1637 162.074 38.0891 162.015C38.0146 161.956 37.9619 161.874 37.9396 161.781L37.2484 158.951C37.2352 158.897 37.2328 158.841 37.2413 158.786C37.2498 158.731 37.2691 158.678 37.298 158.63C37.327 158.583 37.365 158.541 37.41 158.508C37.4549 158.475 37.5059 158.451 37.5601 158.438C37.6142 158.425 37.6705 158.423 37.7255 158.431C37.7806 158.44 37.8335 158.459 37.8812 158.488C37.9288 158.517 37.9703 158.555 38.0032 158.6C38.0361 158.645 38.0599 158.696 38.0731 158.75L38.7621 161.58C38.7776 161.642 38.7786 161.708 38.7651 161.77C38.7517 161.833 38.7241 161.892 38.6845 161.943C38.6449 161.994 38.5942 162.035 38.5364 162.063C38.4786 162.091 38.4152 162.106 38.3508 162.106Z" fill="#6DC8C2"/>
<g filter="url(#filter8_d_671_14281)">
<path d="M163.954 150.395L135.779 155.11L125.434 102.258L132.777 102.362C137.333 102.401 141.757 103.899 145.4 106.636C147.298 108.07 148.913 109.845 150.161 111.87C151.058 113.342 151.749 114.929 152.216 116.587L163.954 150.395Z" fill="black"/>
</g>
<path d="M176.222 89.3642H145.213C143.115 89.3642 141.414 91.0651 141.414 93.1632V113C141.414 115.098 143.115 116.799 145.213 116.799H176.222C178.32 116.799 180.021 115.098 180.021 113V93.1632C180.021 91.0651 178.32 89.3642 176.222 89.3642Z" fill="white"/>
<path d="M176.223 117.223H145.22C144.099 117.22 143.025 116.774 142.233 115.982C141.44 115.19 140.994 114.116 140.99 112.996V93.1655C140.994 92.0454 141.441 90.9723 142.234 90.1807C143.026 89.389 144.1 88.9431 145.22 88.9403H176.223C177.342 88.9442 178.414 89.3907 179.206 90.1822C179.997 90.9737 180.444 92.0461 180.448 93.1655V112.996C180.444 114.116 179.998 115.189 179.207 115.981C178.415 116.773 177.342 117.219 176.223 117.223ZM145.22 89.7883C144.326 89.7928 143.469 90.1501 142.837 90.7825C142.205 91.415 141.849 92.2714 141.845 93.1655V112.996C141.845 113.891 142.2 114.75 142.833 115.384C143.466 116.018 144.324 116.374 145.22 116.375H176.223C177.118 116.375 177.977 116.018 178.611 115.385C179.244 114.751 179.6 113.892 179.6 112.996V93.1655C179.596 92.271 179.239 91.4143 178.606 90.7818C177.974 90.1493 177.117 89.7922 176.223 89.7883H145.22Z" fill="black"/>
<path d="M174.912 98.8514H163.406C163.294 98.8514 163.186 98.8067 163.107 98.7272C163.027 98.6477 162.982 98.5399 162.982 98.4274C162.982 98.315 163.027 98.2071 163.107 98.1276C163.186 98.0481 163.294 98.0034 163.406 98.0034H174.912C175.024 98.0034 175.132 98.0481 175.211 98.1276C175.291 98.2071 175.336 98.315 175.336 98.4274C175.336 98.5399 175.291 98.6477 175.211 98.7272C175.132 98.8067 175.024 98.8514 174.912 98.8514Z" fill="black"/>
<path d="M174.912 103.507H163.406C163.294 103.507 163.186 103.462 163.107 103.383C163.027 103.303 162.982 103.195 162.982 103.083C162.982 102.971 163.027 102.863 163.107 102.783C163.186 102.704 163.294 102.659 163.406 102.659H174.912C175.024 102.659 175.132 102.704 175.211 102.783C175.291 102.863 175.336 102.971 175.336 103.083C175.336 103.195 175.291 103.303 175.211 103.383C175.132 103.462 175.024 103.507 174.912 103.507Z" fill="black"/>
<path d="M170.896 108.16H163.406C163.294 108.16 163.186 108.116 163.107 108.036C163.027 107.957 162.982 107.849 162.982 107.736C162.982 107.624 163.027 107.516 163.107 107.437C163.186 107.357 163.294 107.312 163.406 107.312H170.896C171.009 107.312 171.117 107.357 171.196 107.437C171.276 107.516 171.32 107.624 171.32 107.736C171.32 107.849 171.276 107.957 171.196 108.036C171.117 108.116 171.009 108.16 170.896 108.16Z" fill="black"/>
<path d="M150.308 96.6192C150.332 97.1252 150.549 97.6027 150.916 97.9525C151.282 98.3022 151.769 98.4974 152.276 98.4974C152.782 98.4974 153.269 98.3022 153.636 97.9525C154.002 97.6027 154.22 97.1252 154.243 96.6192C154.243 96.6192 158.288 95.9557 158.343 101.76H156.348V109.57H148.029V101.76H145.721C145.721 101.76 145.831 96.1868 150.308 96.6192Z" fill="#C7B8F8"/>
<path d="M141.933 158.608C141.859 158.61 141.785 158.592 141.721 158.555L135.414 155.074C135.32 155.017 135.252 154.927 135.223 154.821C135.195 154.715 135.209 154.602 135.262 154.506C135.315 154.411 135.403 154.339 135.507 154.306C135.612 154.274 135.725 154.283 135.823 154.332L142.13 157.813C142.213 157.859 142.278 157.931 142.315 158.018C142.352 158.105 142.359 158.202 142.334 158.293C142.31 158.385 142.256 158.465 142.18 158.522C142.105 158.579 142.012 158.61 141.918 158.608H141.933Z" fill="black"/>
<path d="M74.252 104.219H23.4123C23.2998 104.219 23.192 104.174 23.1125 104.095C23.033 104.015 22.9883 103.907 22.9883 103.795C22.9883 103.683 23.033 103.575 23.1125 103.495C23.192 103.416 23.2998 103.371 23.4123 103.371H74.252C74.3645 103.371 74.4723 103.416 74.5518 103.495C74.6313 103.575 74.676 103.683 74.676 103.795C74.676 103.907 74.6313 104.015 74.5518 104.095C74.4723 104.174 74.3645 104.219 74.252 104.219Z" fill="black"/>
<path d="M58.6222 103.183C62.7822 103.183 66.1546 99.8103 66.1546 95.6503C66.1546 91.4903 62.7822 88.118 58.6222 88.118C54.4622 88.118 51.0898 91.4903 51.0898 95.6503C51.0898 99.8103 54.4622 103.183 58.6222 103.183Z" fill="white"/>
<path d="M43.2648 103.895H32.4359C31.4348 103.894 30.4751 103.496 29.7673 102.788C29.0594 102.08 28.6613 101.12 28.6602 100.119V84.5521C28.6602 83.5503 29.0578 82.5895 29.7658 81.8807C30.4737 81.172 31.4341 80.7732 32.4359 80.7721H43.2712C44.2722 80.7732 45.232 81.1714 45.9398 81.8792C46.6476 82.5871 47.0458 83.5468 47.0469 84.5478V100.115C47.0469 100.612 46.9491 101.103 46.759 101.562C46.5689 102.021 46.2903 102.438 45.939 102.789C45.5878 103.14 45.1709 103.418 44.712 103.608C44.2532 103.798 43.7614 103.895 43.2648 103.895ZM32.4359 81.6201C31.6597 81.6212 30.9157 81.93 30.3669 82.4788C29.8181 83.0277 29.5093 83.7717 29.5082 84.5478V100.115C29.5079 100.5 29.5834 100.881 29.7304 101.236C29.8773 101.592 30.0929 101.915 30.3648 102.187C30.6367 102.46 30.9595 102.676 31.3148 102.823C31.6702 102.971 32.0511 103.047 32.4359 103.047H43.2712C44.0473 103.046 44.7914 102.737 45.3402 102.188C45.889 101.639 46.1978 100.895 46.1989 100.119V84.5521C46.1989 84.1668 46.123 83.7854 45.9755 83.4296C45.8281 83.0737 45.6119 82.7504 45.3394 82.4781C45.0669 82.2058 44.7435 81.9899 44.3875 81.8427C44.0315 81.6954 43.65 81.6198 43.2648 81.6201H32.4359Z" fill="black"/>
<path d="M46.3923 98.3022H29.0783C28.9658 98.3022 28.858 98.2575 28.7785 98.178C28.699 98.0985 28.6543 97.9907 28.6543 97.8782C28.6543 97.7658 28.699 97.6579 28.7785 97.5784C28.858 97.4989 28.9658 97.4542 29.0783 97.4542H46.3923C46.5048 97.4542 46.6126 97.4989 46.6922 97.5784C46.7717 97.6579 46.8163 97.7658 46.8163 97.8782C46.8163 97.9907 46.7717 98.0985 46.6922 98.178C46.6126 98.2575 46.5048 98.3022 46.3923 98.3022Z" fill="black"/>
<path d="M36.0399 101.87C36.6078 101.87 37.0681 101.41 37.0681 100.842C37.0681 100.274 36.6078 99.8138 36.0399 99.8138C35.4721 99.8138 35.0117 100.274 35.0117 100.842C35.0117 101.41 35.4721 101.87 36.0399 101.87Z" fill="white"/>
<path d="M39.6473 101.87C40.2152 101.87 40.6755 101.41 40.6755 100.842C40.6755 100.274 40.2152 99.8138 39.6473 99.8138C39.0795 99.8138 38.6191 100.274 38.6191 100.842C38.6191 101.41 39.0795 101.87 39.6473 101.87Z" fill="white"/>
<path d="M57.0426 90.0873C56.9458 90.0871 56.852 90.0537 56.7768 89.9928C56.7016 89.9318 56.6495 89.847 56.6292 89.7524C55.5268 84.6644 56.7712 81.1833 58.0093 79.1524C59.3618 76.9455 60.9773 75.9597 61.0388 75.9194C61.1352 75.8615 61.2507 75.8442 61.3598 75.8715C61.4689 75.8987 61.5628 75.9682 61.6207 76.0646C61.6786 76.161 61.6958 76.2765 61.6686 76.3856C61.6414 76.4948 61.5719 76.5886 61.4755 76.6465C61.2211 76.8013 55.4759 80.4159 57.4475 89.5658C57.4708 89.6754 57.4497 89.7898 57.389 89.884C57.3282 89.9781 57.2326 90.0444 57.1231 90.0683C57.0969 90.077 57.0699 90.0834 57.0426 90.0873Z" fill="black"/>
<path d="M66.568 76.532L64.7427 76.1356C64.7278 76.036 64.7087 75.9236 64.6854 75.8367L66.2797 74.942C66.5804 74.7396 66.7939 74.4313 66.8778 74.0786C66.9617 73.7259 66.9099 73.3545 66.7325 73.0383C66.5552 72.7221 66.2654 72.4842 65.9207 72.3718C65.5759 72.2595 65.2016 72.281 64.872 72.432L63.1951 73.3733C63.1675 73.3881 63.1463 73.4072 63.1209 73.4241C63.0403 73.3648 62.9576 73.3075 62.8728 73.2545L63.2417 71.5479C63.3224 71.174 63.2512 70.7834 63.0439 70.4619C62.8366 70.1405 62.51 69.9146 62.1361 69.8339C61.7622 69.7532 61.3716 69.8244 61.0501 70.0317C60.7287 70.2391 60.5028 70.5656 60.4221 70.9395L60.0532 72.6355C59.9105 72.6545 59.769 72.6814 59.6292 72.716C59.5988 72.6593 59.5656 72.6041 59.5296 72.5507L58.3721 71.02C58.1418 70.7147 57.7997 70.5134 57.421 70.4603C57.0423 70.4073 56.6581 70.5068 56.3528 70.737C56.0474 70.9673 55.8461 71.3094 55.793 71.6881C55.74 72.0668 55.8395 72.451 56.0697 72.7563L57.2273 74.2933C57.2273 74.306 57.2485 74.3145 57.2591 74.3273C57.2188 74.3824 57.1849 74.4396 57.1467 74.4947L55.3807 74.1131C55.0069 74.0325 54.6163 74.1035 54.2947 74.3106C53.9732 74.5177 53.7469 74.8439 53.6657 75.2176C53.6254 75.4028 53.6221 75.5941 53.6559 75.7805C53.6896 75.9669 53.7598 76.1449 53.8624 76.3041C53.965 76.4634 54.098 76.6009 54.2537 76.7088C54.4095 76.8166 54.585 76.8927 54.7702 76.9327L56.5213 77.3122C56.5213 77.3546 56.5319 77.397 56.5383 77.4394H56.5234L54.8444 78.3807C54.5254 78.5754 54.2944 78.8862 54.1999 79.2478C54.1054 79.6093 54.1548 79.9934 54.3377 80.3193C54.5205 80.6452 54.8226 80.8875 55.1804 80.9953C55.5382 81.103 55.9239 81.0678 56.2563 80.8971L57.9353 79.9558C57.9481 79.9558 57.9565 79.9389 57.9693 79.9325C58.104 80.0451 58.2456 80.1492 58.3933 80.2442L58.0265 81.9402C57.9813 82.1274 57.974 82.3217 58.0051 82.5118C58.0361 82.7018 58.1049 82.8837 58.2073 83.0468C58.3097 83.2099 58.4437 83.3508 58.6014 83.4613C58.7591 83.5718 58.9373 83.6497 59.1256 83.6903C59.3138 83.7308 59.5083 83.7334 59.6975 83.6977C59.8868 83.662 60.0669 83.5888 60.2274 83.4824C60.388 83.376 60.5256 83.2386 60.6322 83.0782C60.7388 82.9179 60.8122 82.7378 60.8482 82.5486L61.2129 80.8526C61.3189 80.8378 61.4249 80.8187 61.5287 80.7954L62.6502 82.2794C62.7578 82.4445 62.8981 82.5858 63.0624 82.6947C63.2267 82.8035 63.4115 82.8776 63.6055 82.9123C63.7996 82.947 63.9986 82.9416 64.1905 82.8964C64.3823 82.8513 64.5629 82.7673 64.721 82.6498C64.8792 82.5322 65.0116 82.3835 65.1101 82.2128C65.2087 82.0421 65.2712 81.853 65.2939 81.6572C65.3166 81.4615 65.2989 81.2631 65.242 81.0744C65.1851 80.8857 65.0902 80.7107 64.9631 80.56L63.9667 79.235C64.0303 79.1481 64.0918 79.0591 64.1491 78.9658L65.9574 79.358C66.1426 79.3982 66.3338 79.4015 66.5202 79.3678C66.7067 79.334 66.8846 79.2638 67.0439 79.1613C67.2032 79.0587 67.3407 78.9257 67.4486 78.7699C67.5564 78.6142 67.6325 78.4387 67.6725 78.2535C67.7136 78.0679 67.7177 77.876 67.6844 77.6888C67.651 77.5017 67.581 77.323 67.4784 77.163C67.3757 77.003 67.2424 76.8649 67.0862 76.7566C66.9299 76.6483 66.7538 76.572 66.568 76.532Z" fill="#FFC1EB"/>
<path d="M66.568 76.532L64.7427 76.1356C64.7278 76.036 64.7087 75.9236 64.6854 75.8367L66.2797 74.942C66.5804 74.7396 66.7939 74.4313 66.8778 74.0786C66.9617 73.7259 66.9099 73.3545 66.7325 73.0383C66.5552 72.7221 66.2654 72.4842 65.9207 72.3718C65.5759 72.2595 65.2016 72.281 64.872 72.432L63.1951 73.3733C63.1675 73.3881 63.1463 73.4072 63.1209 73.4241C63.0403 73.3648 62.9576 73.3075 62.8728 73.2545L63.2417 71.5479C63.3224 71.174 63.2512 70.7834 63.0439 70.4619C62.8366 70.1405 62.51 69.9146 62.1361 69.8339C61.7622 69.7532 61.3716 69.8244 61.0501 70.0317C60.7287 70.2391 60.5028 70.5656 60.4221 70.9395L60.0532 72.6355C59.9105 72.6545 59.769 72.6814 59.6292 72.716C59.5988 72.6593 59.5656 72.6041 59.5296 72.5507L58.3721 71.02C58.1418 70.7147 57.7997 70.5134 57.421 70.4603C57.0423 70.4073 56.6581 70.5068 56.3528 70.737C56.0474 70.9673 55.8461 71.3094 55.793 71.6881C55.74 72.0668 55.8395 72.451 56.0697 72.7563L57.2273 74.2933C57.2273 74.306 57.2485 74.3145 57.2591 74.3273C57.2188 74.3824 57.1849 74.4396 57.1467 74.4947L55.3807 74.1131C55.0069 74.0325 54.6163 74.1035 54.2947 74.3106C53.9732 74.5177 53.7469 74.8439 53.6657 75.2176C53.6254 75.4028 53.6221 75.5941 53.6559 75.7805C53.6896 75.9669 53.7598 76.1449 53.8624 76.3041C53.965 76.4634 54.098 76.6009 54.2537 76.7088C54.4095 76.8166 54.585 76.8927 54.7702 76.9327L56.5213 77.3122C56.5213 77.3546 56.5319 77.397 56.5383 77.4394H56.5234L54.8444 78.3807C54.5254 78.5754 54.2944 78.8862 54.1999 79.2478C54.1054 79.6093 54.1548 79.9934 54.3377 80.3193C54.5205 80.6452 54.8226 80.8875 55.1804 80.9953C55.5382 81.103 55.9239 81.0678 56.2563 80.8971L57.9353 79.9558C57.9481 79.9558 57.9565 79.9389 57.9693 79.9325C58.104 80.0451 58.2456 80.1492 58.3933 80.2442L58.0265 81.9402C57.9813 82.1274 57.974 82.3217 58.0051 82.5118C58.0361 82.7018 58.1049 82.8837 58.2073 83.0468C58.3097 83.2099 58.4437 83.3508 58.6014 83.4613C58.7591 83.5718 58.9373 83.6497 59.1256 83.6903C59.3138 83.7308 59.5083 83.7334 59.6975 83.6977C59.8868 83.662 60.0669 83.5888 60.2274 83.4824C60.388 83.376 60.5256 83.2386 60.6322 83.0782C60.7388 82.9179 60.8122 82.7378 60.8482 82.5486L61.2129 80.8526C61.3189 80.8378 61.4249 80.8187 61.5287 80.7954L62.6502 82.2794C62.7578 82.4445 62.8981 82.5858 63.0624 82.6947C63.2267 82.8035 63.4115 82.8776 63.6055 82.9123C63.7996 82.947 63.9986 82.9416 64.1905 82.8964C64.3823 82.8513 64.5629 82.7673 64.721 82.6498C64.8792 82.5322 65.0116 82.3835 65.1101 82.2128C65.2087 82.0421 65.2712 81.853 65.2939 81.6572C65.3166 81.4615 65.2989 81.2631 65.242 81.0744C65.1851 80.8857 65.0902 80.7107 64.9631 80.56L63.9667 79.235C64.0303 79.1481 64.0918 79.0591 64.1491 78.9658L65.9574 79.358C66.1426 79.3982 66.3338 79.4015 66.5202 79.3678C66.7067 79.334 66.8846 79.2638 67.0439 79.1613C67.2032 79.0587 67.3407 78.9257 67.4486 78.7699C67.5564 78.6142 67.6325 78.4387 67.6725 78.2535C67.7136 78.0679 67.7177 77.876 67.6844 77.6888C67.651 77.5017 67.581 77.323 67.4784 77.163C67.3757 77.003 67.2424 76.8649 67.0862 76.7566C66.9299 76.6483 66.7538 76.572 66.568 76.532Z" fill="#FFC1EB"/>
<path d="M66.568 76.532L64.7427 76.1356C64.7278 76.036 64.7087 75.9236 64.6854 75.8367L66.2797 74.942C66.5804 74.7396 66.7939 74.4313 66.8778 74.0786C66.9617 73.7259 66.9099 73.3545 66.7325 73.0383C66.5552 72.7221 66.2654 72.4842 65.9207 72.3718C65.5759 72.2595 65.2016 72.281 64.872 72.432L63.1951 73.3733C63.1675 73.3881 63.1463 73.4072 63.1209 73.4241C63.0403 73.3648 62.9576 73.3075 62.8728 73.2545L63.2417 71.5479C63.3224 71.174 63.2512 70.7834 63.0439 70.4619C62.8366 70.1405 62.51 69.9146 62.1361 69.8339C61.7622 69.7532 61.3716 69.8244 61.0501 70.0317C60.7287 70.2391 60.5028 70.5656 60.4221 70.9395L60.0532 72.6355C59.9105 72.6545 59.769 72.6814 59.6292 72.716C59.5988 72.6593 59.5656 72.6041 59.5296 72.5507L58.3721 71.02C58.1418 70.7147 57.7997 70.5134 57.421 70.4603C57.0423 70.4073 56.6581 70.5068 56.3528 70.737C56.0474 70.9673 55.8461 71.3094 55.793 71.6881C55.74 72.0668 55.8395 72.451 56.0697 72.7563L57.2273 74.2933C57.2273 74.306 57.2485 74.3145 57.2591 74.3273C57.2188 74.3824 57.1849 74.4396 57.1467 74.4947L55.3807 74.1131C55.0069 74.0325 54.6163 74.1035 54.2947 74.3106C53.9732 74.5177 53.7469 74.8439 53.6657 75.2176C53.6254 75.4028 53.6221 75.5941 53.6559 75.7805C53.6896 75.9669 53.7598 76.1449 53.8624 76.3041C53.965 76.4634 54.098 76.6009 54.2537 76.7088C54.4095 76.8166 54.585 76.8927 54.7702 76.9327L56.5213 77.3122C56.5213 77.3546 56.5319 77.397 56.5383 77.4394H56.5234L54.8444 78.3807C54.5254 78.5754 54.2944 78.8862 54.1999 79.2478C54.1054 79.6093 54.1548 79.9934 54.3377 80.3193C54.5205 80.6452 54.8226 80.8875 55.1804 80.9953C55.5382 81.103 55.9239 81.0678 56.2563 80.8971L57.9353 79.9558C57.9481 79.9558 57.9565 79.9389 57.9693 79.9325C58.104 80.0451 58.2456 80.1492 58.3933 80.2442L58.0265 81.9402C57.9813 82.1274 57.974 82.3217 58.0051 82.5118C58.0361 82.7018 58.1049 82.8837 58.2073 83.0468C58.3097 83.2099 58.4437 83.3508 58.6014 83.4613C58.7591 83.5718 58.9373 83.6497 59.1256 83.6903C59.3138 83.7308 59.5083 83.7334 59.6975 83.6977C59.8868 83.662 60.0669 83.5888 60.2274 83.4824C60.388 83.376 60.5256 83.2386 60.6322 83.0782C60.7388 82.9179 60.8122 82.7378 60.8482 82.5486L61.2129 80.8526C61.3189 80.8378 61.4249 80.8187 61.5287 80.7954L62.6502 82.2794C62.7578 82.4445 62.8981 82.5858 63.0624 82.6947C63.2267 82.8035 63.4115 82.8776 63.6055 82.9123C63.7996 82.947 63.9986 82.9416 64.1905 82.8964C64.3823 82.8513 64.5629 82.7673 64.721 82.6498C64.8792 82.5322 65.0116 82.3835 65.1101 82.2128C65.2087 82.0421 65.2712 81.853 65.2939 81.6572C65.3166 81.4615 65.2989 81.2631 65.242 81.0744C65.1851 80.8857 65.0902 80.7107 64.9631 80.56L63.9667 79.235C64.0303 79.1481 64.0918 79.0591 64.1491 78.9658L65.9574 79.358C66.1426 79.3982 66.3338 79.4015 66.5202 79.3678C66.7067 79.334 66.8846 79.2638 67.0439 79.1613C67.2032 79.0587 67.3407 78.9257 67.4486 78.7699C67.5564 78.6142 67.6325 78.4387 67.6725 78.2535C67.7136 78.0679 67.7177 77.876 67.6844 77.6888C67.651 77.5017 67.581 77.323 67.4784 77.163C67.3757 77.003 67.2424 76.8649 67.0862 76.7566C66.9299 76.6483 66.7538 76.572 66.568 76.532Z" fill="#FFC1EB"/>
<path d="M66.568 76.532L64.7427 76.1356C64.7278 76.036 64.7087 75.9236 64.6854 75.8367L66.2797 74.942C66.5804 74.7396 66.7939 74.4313 66.8778 74.0786C66.9617 73.7259 66.9099 73.3545 66.7325 73.0383C66.5552 72.7221 66.2654 72.4842 65.9207 72.3718C65.5759 72.2595 65.2016 72.281 64.872 72.432L63.1951 73.3733C63.1675 73.3881 63.1463 73.4072 63.1209 73.4241C63.0403 73.3648 62.9576 73.3075 62.8728 73.2545L63.2417 71.5479C63.3224 71.174 63.2512 70.7834 63.0439 70.4619C62.8366 70.1405 62.51 69.9146 62.1361 69.8339C61.7622 69.7532 61.3716 69.8244 61.0501 70.0317C60.7287 70.2391 60.5028 70.5656 60.4221 70.9395L60.0532 72.6355C59.9105 72.6545 59.769 72.6814 59.6292 72.716C59.5988 72.6593 59.5656 72.6041 59.5296 72.5507L58.3721 71.02C58.1418 70.7147 57.7997 70.5134 57.421 70.4603C57.0423 70.4073 56.6581 70.5068 56.3528 70.737C56.0474 70.9673 55.8461 71.3094 55.793 71.6881C55.74 72.0668 55.8395 72.451 56.0697 72.7563L57.2273 74.2933C57.2273 74.306 57.2485 74.3145 57.2591 74.3273C57.2188 74.3824 57.1849 74.4396 57.1467 74.4947L55.3807 74.1131C55.0069 74.0325 54.6163 74.1035 54.2947 74.3106C53.9732 74.5177 53.7469 74.8439 53.6657 75.2176C53.6254 75.4028 53.6221 75.5941 53.6559 75.7805C53.6896 75.9669 53.7598 76.1449 53.8624 76.3041C53.965 76.4634 54.098 76.6009 54.2537 76.7088C54.4095 76.8166 54.585 76.8927 54.7702 76.9327L56.5213 77.3122C56.5213 77.3546 56.5319 77.397 56.5383 77.4394H56.5234L54.8444 78.3807C54.5254 78.5754 54.2944 78.8862 54.1999 79.2478C54.1054 79.6093 54.1548 79.9934 54.3377 80.3193C54.5205 80.6452 54.8226 80.8875 55.1804 80.9953C55.5382 81.103 55.9239 81.0678 56.2563 80.8971L57.9353 79.9558C57.9481 79.9558 57.9565 79.9389 57.9693 79.9325C58.104 80.0451 58.2456 80.1492 58.3933 80.2442L58.0265 81.9402C57.9813 82.1274 57.974 82.3217 58.0051 82.5118C58.0361 82.7018 58.1049 82.8837 58.2073 83.0468C58.3097 83.2099 58.4437 83.3508 58.6014 83.4613C58.7591 83.5718 58.9373 83.6497 59.1256 83.6903C59.3138 83.7308 59.5083 83.7334 59.6975 83.6977C59.8868 83.662 60.0669 83.5888 60.2274 83.4824C60.388 83.376 60.5256 83.2386 60.6322 83.0782C60.7388 82.9179 60.8122 82.7378 60.8482 82.5486L61.2129 80.8526C61.3189 80.8378 61.4249 80.8187 61.5287 80.7954L62.6502 82.2794C62.7578 82.4445 62.8981 82.5858 63.0624 82.6947C63.2267 82.8035 63.4115 82.8776 63.6055 82.9123C63.7996 82.947 63.9986 82.9416 64.1905 82.8964C64.3823 82.8513 64.5629 82.7673 64.721 82.6498C64.8792 82.5322 65.0116 82.3835 65.1101 82.2128C65.2087 82.0421 65.2712 81.853 65.2939 81.6572C65.3166 81.4615 65.2989 81.2631 65.242 81.0744C65.1851 80.8857 65.0902 80.7107 64.9631 80.56L63.9667 79.235C64.0303 79.1481 64.0918 79.0591 64.1491 78.9658L65.9574 79.358C66.1426 79.3982 66.3338 79.4015 66.5202 79.3678C66.7067 79.334 66.8846 79.2638 67.0439 79.1613C67.2032 79.0587 67.3407 78.9257 67.4486 78.7699C67.5564 78.6142 67.6325 78.4387 67.6725 78.2535C67.7136 78.0679 67.7177 77.876 67.6844 77.6888C67.651 77.5017 67.581 77.323 67.4784 77.163C67.3757 77.003 67.2424 76.8649 67.0862 76.7566C66.9299 76.6483 66.7538 76.572 66.568 76.532Z" fill="#FFC1EB"/>
<path d="M66.568 76.532L64.7427 76.1356C64.7278 76.036 64.7087 75.9236 64.6854 75.8367L66.2797 74.942C66.5804 74.7396 66.7939 74.4313 66.8778 74.0786C66.9617 73.7259 66.9099 73.3545 66.7325 73.0383C66.5552 72.7221 66.2654 72.4842 65.9207 72.3718C65.5759 72.2595 65.2016 72.281 64.872 72.432L63.1951 73.3733C63.1675 73.3881 63.1463 73.4072 63.1209 73.4241C63.0403 73.3648 62.9576 73.3075 62.8728 73.2545L63.2417 71.5479C63.3224 71.174 63.2512 70.7834 63.0439 70.4619C62.8366 70.1405 62.51 69.9146 62.1361 69.8339C61.7622 69.7532 61.3716 69.8244 61.0501 70.0317C60.7287 70.2391 60.5028 70.5656 60.4221 70.9395L60.0532 72.6355C59.9105 72.6545 59.769 72.6814 59.6292 72.716C59.5988 72.6593 59.5656 72.6041 59.5296 72.5507L58.3721 71.02C58.1418 70.7147 57.7997 70.5134 57.421 70.4603C57.0423 70.4073 56.6581 70.5068 56.3528 70.737C56.0474 70.9673 55.8461 71.3094 55.793 71.6881C55.74 72.0668 55.8395 72.451 56.0697 72.7563L57.2273 74.2933C57.2273 74.306 57.2485 74.3145 57.2591 74.3273C57.2188 74.3824 57.1849 74.4396 57.1467 74.4947L55.3807 74.1131C55.0069 74.0325 54.6163 74.1035 54.2947 74.3106C53.9732 74.5177 53.7469 74.8439 53.6657 75.2176C53.6254 75.4028 53.6221 75.5941 53.6559 75.7805C53.6896 75.9669 53.7598 76.1449 53.8624 76.3041C53.965 76.4634 54.098 76.6009 54.2537 76.7088C54.4095 76.8166 54.585 76.8927 54.7702 76.9327L56.5213 77.3122C56.5213 77.3546 56.5319 77.397 56.5383 77.4394H56.5234L54.8444 78.3807C54.5254 78.5754 54.2944 78.8862 54.1999 79.2478C54.1054 79.6093 54.1548 79.9934 54.3377 80.3193C54.5205 80.6452 54.8226 80.8875 55.1804 80.9953C55.5382 81.103 55.9239 81.0678 56.2563 80.8971L57.9353 79.9558C57.9481 79.9558 57.9565 79.9389 57.9693 79.9325C58.104 80.0451 58.2456 80.1492 58.3933 80.2442L58.0265 81.9402C57.9813 82.1274 57.974 82.3217 58.0051 82.5118C58.0361 82.7018 58.1049 82.8837 58.2073 83.0468C58.3097 83.2099 58.4437 83.3508 58.6014 83.4613C58.7591 83.5718 58.9373 83.6497 59.1256 83.6903C59.3138 83.7308 59.5083 83.7334 59.6975 83.6977C59.8868 83.662 60.0669 83.5888 60.2274 83.4824C60.388 83.376 60.5256 83.2386 60.6322 83.0782C60.7388 82.9179 60.8122 82.7378 60.8482 82.5486L61.2129 80.8526C61.3189 80.8378 61.4249 80.8187 61.5287 80.7954L62.6502 82.2794C62.7578 82.4445 62.8981 82.5858 63.0624 82.6947C63.2267 82.8035 63.4115 82.8776 63.6055 82.9123C63.7996 82.947 63.9986 82.9416 64.1905 82.8964C64.3823 82.8513 64.5629 82.7673 64.721 82.6498C64.8792 82.5322 65.0116 82.3835 65.1101 82.2128C65.2087 82.0421 65.2712 81.853 65.2939 81.6572C65.3166 81.4615 65.2989 81.2631 65.242 81.0744C65.1851 80.8857 65.0902 80.7107 64.9631 80.56L63.9667 79.235C64.0303 79.1481 64.0918 79.0591 64.1491 78.9658L65.9574 79.358C66.1426 79.3982 66.3338 79.4015 66.5202 79.3678C66.7067 79.334 66.8846 79.2638 67.0439 79.1613C67.2032 79.0587 67.3407 78.9257 67.4486 78.7699C67.5564 78.6142 67.6325 78.4387 67.6725 78.2535C67.7136 78.0679 67.7177 77.876 67.6844 77.6888C67.651 77.5017 67.581 77.323 67.4784 77.163C67.3757 77.003 67.2424 76.8649 67.0862 76.7566C66.9299 76.6483 66.7538 76.572 66.568 76.532Z" fill="#FFC1EB"/>
<path d="M66.568 76.532L64.7427 76.1356C64.7278 76.036 64.7087 75.9236 64.6854 75.8367L66.2797 74.942C66.5804 74.7396 66.7939 74.4313 66.8778 74.0786C66.9617 73.7259 66.9099 73.3545 66.7325 73.0383C66.5552 72.7221 66.2654 72.4842 65.9207 72.3718C65.5759 72.2595 65.2016 72.281 64.872 72.432L63.1951 73.3733C63.1675 73.3881 63.1463 73.4072 63.1209 73.4241C63.0403 73.3648 62.9576 73.3075 62.8728 73.2545L63.2417 71.5479C63.3224 71.174 63.2512 70.7834 63.0439 70.4619C62.8366 70.1405 62.51 69.9146 62.1361 69.8339C61.7622 69.7532 61.3716 69.8244 61.0501 70.0317C60.7287 70.2391 60.5028 70.5656 60.4221 70.9395L60.0532 72.6355C59.9105 72.6545 59.769 72.6814 59.6292 72.716C59.5988 72.6593 59.5656 72.6041 59.5296 72.5507L58.3721 71.02C58.1418 70.7147 57.7997 70.5134 57.421 70.4603C57.0423 70.4073 56.6581 70.5068 56.3528 70.737C56.0474 70.9673 55.8461 71.3094 55.793 71.6881C55.74 72.0668 55.8395 72.451 56.0697 72.7563L57.2273 74.2933C57.2273 74.306 57.2485 74.3145 57.2591 74.3273C57.2188 74.3824 57.1849 74.4396 57.1467 74.4947L55.3807 74.1131C55.0069 74.0325 54.6163 74.1035 54.2947 74.3106C53.9732 74.5177 53.7469 74.8439 53.6657 75.2176C53.6254 75.4028 53.6221 75.5941 53.6559 75.7805C53.6896 75.9669 53.7598 76.1449 53.8624 76.3041C53.965 76.4634 54.098 76.6009 54.2537 76.7088C54.4095 76.8166 54.585 76.8927 54.7702 76.9327L56.5213 77.3122C56.5213 77.3546 56.5319 77.397 56.5383 77.4394H56.5234L54.8444 78.3807C54.5254 78.5754 54.2944 78.8862 54.1999 79.2478C54.1054 79.6093 54.1548 79.9934 54.3377 80.3193C54.5205 80.6452 54.8226 80.8875 55.1804 80.9953C55.5382 81.103 55.9239 81.0678 56.2563 80.8971L57.9353 79.9558C57.9481 79.9558 57.9565 79.9389 57.9693 79.9325C58.104 80.0451 58.2456 80.1492 58.3933 80.2442L58.0265 81.9402C57.9813 82.1274 57.974 82.3217 58.0051 82.5118C58.0361 82.7018 58.1049 82.8837 58.2073 83.0468C58.3097 83.2099 58.4437 83.3508 58.6014 83.4613C58.7591 83.5718 58.9373 83.6497 59.1256 83.6903C59.3138 83.7308 59.5083 83.7334 59.6975 83.6977C59.8868 83.662 60.0669 83.5888 60.2274 83.4824C60.388 83.376 60.5256 83.2386 60.6322 83.0782C60.7388 82.9179 60.8122 82.7378 60.8482 82.5486L61.2129 80.8526C61.3189 80.8378 61.4249 80.8187 61.5287 80.7954L62.6502 82.2794C62.7578 82.4445 62.8981 82.5858 63.0624 82.6947C63.2267 82.8035 63.4115 82.8776 63.6055 82.9123C63.7996 82.947 63.9986 82.9416 64.1905 82.8964C64.3823 82.8513 64.5629 82.7673 64.721 82.6498C64.8792 82.5322 65.0116 82.3835 65.1101 82.2128C65.2087 82.0421 65.2712 81.853 65.2939 81.6572C65.3166 81.4615 65.2989 81.2631 65.242 81.0744C65.1851 80.8857 65.0902 80.7107 64.9631 80.56L63.9667 79.235C64.0303 79.1481 64.0918 79.0591 64.1491 78.9658L65.9574 79.358C66.1426 79.3982 66.3338 79.4015 66.5202 79.3678C66.7067 79.334 66.8846 79.2638 67.0439 79.1613C67.2032 79.0587 67.3407 78.9257 67.4486 78.7699C67.5564 78.6142 67.6325 78.4387 67.6725 78.2535C67.7136 78.0679 67.7177 77.876 67.6844 77.6888C67.651 77.5017 67.581 77.323 67.4784 77.163C67.3757 77.003 67.2424 76.8649 67.0862 76.7566C66.9299 76.6483 66.7538 76.572 66.568 76.532Z" fill="#FFC1EB"/>
<path d="M66.568 76.532L64.7427 76.1356C64.7278 76.036 64.7087 75.9236 64.6854 75.8367L66.2797 74.942C66.5804 74.7396 66.7939 74.4313 66.8778 74.0786C66.9617 73.7259 66.9099 73.3545 66.7325 73.0383C66.5552 72.7221 66.2654 72.4842 65.9207 72.3718C65.5759 72.2595 65.2016 72.281 64.872 72.432L63.1951 73.3733C63.1675 73.3881 63.1463 73.4072 63.1209 73.4241C63.0403 73.3648 62.9576 73.3075 62.8728 73.2545L63.2417 71.5479C63.3224 71.174 63.2512 70.7834 63.0439 70.4619C62.8366 70.1405 62.51 69.9146 62.1361 69.8339C61.7622 69.7532 61.3716 69.8244 61.0501 70.0317C60.7287 70.2391 60.5028 70.5656 60.4221 70.9395L60.0532 72.6355C59.9105 72.6545 59.769 72.6814 59.6292 72.716C59.5988 72.6593 59.5656 72.6041 59.5296 72.5507L58.3721 71.02C58.1418 70.7147 57.7997 70.5134 57.421 70.4603C57.0423 70.4073 56.6581 70.5068 56.3528 70.737C56.0474 70.9673 55.8461 71.3094 55.793 71.6881C55.74 72.0668 55.8395 72.451 56.0697 72.7563L57.2273 74.2933C57.2273 74.306 57.2485 74.3145 57.2591 74.3273C57.2188 74.3824 57.1849 74.4396 57.1467 74.4947L55.3807 74.1131C55.0069 74.0325 54.6163 74.1035 54.2947 74.3106C53.9732 74.5177 53.7469 74.8439 53.6657 75.2176C53.6254 75.4028 53.6221 75.5941 53.6559 75.7805C53.6896 75.9669 53.7598 76.1449 53.8624 76.3041C53.965 76.4634 54.098 76.6009 54.2537 76.7088C54.4095 76.8166 54.585 76.8927 54.7702 76.9327L56.5213 77.3122C56.5213 77.3546 56.5319 77.397 56.5383 77.4394H56.5234L54.8444 78.3807C54.5254 78.5754 54.2944 78.8862 54.1999 79.2478C54.1054 79.6093 54.1548 79.9934 54.3377 80.3193C54.5205 80.6452 54.8226 80.8875 55.1804 80.9953C55.5382 81.103 55.9239 81.0678 56.2563 80.8971L57.9353 79.9558C57.9481 79.9558 57.9565 79.9389 57.9693 79.9325C58.104 80.0451 58.2456 80.1492 58.3933 80.2442L58.0265 81.9402C57.9813 82.1274 57.974 82.3217 58.0051 82.5118C58.0361 82.7018 58.1049 82.8837 58.2073 83.0468C58.3097 83.2099 58.4437 83.3508 58.6014 83.4613C58.7591 83.5718 58.9373 83.6497 59.1256 83.6903C59.3138 83.7308 59.5083 83.7334 59.6975 83.6977C59.8868 83.662 60.0669 83.5888 60.2274 83.4824C60.388 83.376 60.5256 83.2386 60.6322 83.0782C60.7388 82.9179 60.8122 82.7378 60.8482 82.5486L61.2129 80.8526C61.3189 80.8378 61.4249 80.8187 61.5287 80.7954L62.6502 82.2794C62.7578 82.4445 62.8981 82.5858 63.0624 82.6947C63.2267 82.8035 63.4115 82.8776 63.6055 82.9123C63.7996 82.947 63.9986 82.9416 64.1905 82.8964C64.3823 82.8513 64.5629 82.7673 64.721 82.6498C64.8792 82.5322 65.0116 82.3835 65.1101 82.2128C65.2087 82.0421 65.2712 81.853 65.2939 81.6572C65.3166 81.4615 65.2989 81.2631 65.242 81.0744C65.1851 80.8857 65.0902 80.7107 64.9631 80.56L63.9667 79.235C64.0303 79.1481 64.0918 79.0591 64.1491 78.9658L65.9574 79.358C66.1426 79.3982 66.3338 79.4015 66.5202 79.3678C66.7067 79.334 66.8846 79.2638 67.0439 79.1613C67.2032 79.0587 67.3407 78.9257 67.4486 78.7699C67.5564 78.6142 67.6325 78.4387 67.6725 78.2535C67.7136 78.0679 67.7177 77.876 67.6844 77.6888C67.651 77.5017 67.581 77.323 67.4784 77.163C67.3757 77.003 67.2424 76.8649 67.0862 76.7566C66.9299 76.6483 66.7538 76.572 66.568 76.532Z" fill="#FFC1EB"/>
<path d="M60.6699 78.6583C61.7248 78.6583 62.58 77.8031 62.58 76.7482C62.58 75.6932 61.7248 74.8381 60.6699 74.8381C59.615 74.8381 58.7598 75.6932 58.7598 76.7482C58.7598 77.8031 59.615 78.6583 60.6699 78.6583Z" fill="white"/>
<path d="M57.4255 91.7674C58.4354 91.5951 59.1402 90.7874 58.9996 89.9633C58.859 89.1393 57.9264 88.6109 56.9165 88.7831C55.9066 88.9554 55.2018 89.7631 55.3424 90.5872C55.483 91.4112 56.4156 91.9396 57.4255 91.7674Z" fill="black"/>
<path d="M54.8927 101.902C54.801 101.902 54.7119 101.872 54.6388 101.816C54.5657 101.761 54.5125 101.683 54.4872 101.595C54.4619 101.507 54.4658 101.413 54.4984 101.327C54.531 101.242 54.5905 101.169 54.668 101.12C55.7397 100.447 56.9624 100.052 58.2253 99.9708C59.7888 99.8832 61.3419 100.274 62.6773 101.092C62.7713 101.152 62.8381 101.246 62.8633 101.355C62.8884 101.463 62.8699 101.577 62.8117 101.672C62.7536 101.767 62.6604 101.835 62.5523 101.862C62.4443 101.889 62.33 101.872 62.2342 101.815C61.0467 101.089 59.6661 100.741 58.2762 100.819C57.1555 100.891 56.0706 101.241 55.1195 101.838C55.0512 101.88 54.9727 101.902 54.8927 101.902Z" fill="black"/>
<defs>
<filter id="filter0_d_671_14281" x="94.0234" y="63.0212" width="23.4746" height="38.9452" filterUnits="userSpaceOnUse" color-interpolation-filters="sRGB">
<feFlood flood-opacity="0" result="BackgroundImageFix"/>
<feColorMatrix in="SourceAlpha" type="matrix" values="0 0 0 0 0 0 0 0 0 0 0 0 0 0 0 0 0 0 127 0" result="hardAlpha"/>
<feOffset dy="5.50649"/>
<feComposite in2="hardAlpha" operator="out"/>
<feColorMatrix type="matrix" values="0 0 0 0 0.976471 0 0 0 0 0.709804 0 0 0 0 1 0 0 0 1 0"/>
<feBlend mode="normal" in2="BackgroundImageFix" result="effect1_dropShadow_671_14281"/>
<feBlend mode="normal" in="SourceGraphic" in2="effect1_dropShadow_671_14281" result="shape"/>
</filter>
<filter id="filter1_d_671_14281" x="78.9492" y="102.186" width="63.584" height="87.0949" filterUnits="userSpaceOnUse" color-interpolation-filters="sRGB">
<feFlood flood-opacity="0" result="BackgroundImageFix"/>
<feColorMatrix in="SourceAlpha" type="matrix" values="0 0 0 0 0 0 0 0 0 0 0 0 0 0 0 0 0 0 127 0" result="hardAlpha"/>
<feOffset dy="5.50649"/>
<feComposite in2="hardAlpha" operator="out"/>
<feColorMatrix type="matrix" values="0 0 0 0 0.976471 0 0 0 0 0.709804 0 0 0 0 1 0 0 0 1 0"/>
<feBlend mode="normal" in2="BackgroundImageFix" result="effect1_dropShadow_671_14281"/>
<feBlend mode="normal" in="SourceGraphic" in2="effect1_dropShadow_671_14281" result="shape"/>
</filter>
<filter id="filter2_d_671_14281" x="78.3301" y="69.254" width="35.7051" height="45.8232" filterUnits="userSpaceOnUse" color-interpolation-filters="sRGB">
<feFlood flood-opacity="0" result="BackgroundImageFix"/>
<feColorMatrix in="SourceAlpha" type="matrix" values="0 0 0 0 0 0 0 0 0 0 0 0 0 0 0 0 0 0 127 0" result="hardAlpha"/>
<feOffset dy="5.50649"/>
<feComposite in2="hardAlpha" operator="out"/>
<feColorMatrix type="matrix" values="0 0 0 0 0.976471 0 0 0 0 0.709804 0 0 0 0 1 0 0 0 1 0"/>
<feBlend mode="normal" in2="BackgroundImageFix" result="effect1_dropShadow_671_14281"/>
<feBlend mode="normal" in="SourceGraphic" in2="effect1_dropShadow_671_14281" result="shape"/>
</filter>
<filter id="filter3_d_671_14281" x="80.4746" y="61.8515" width="19.666" height="20.4618" filterUnits="userSpaceOnUse" color-interpolation-filters="sRGB">
<feFlood flood-opacity="0" result="BackgroundImageFix"/>
<feColorMatrix in="SourceAlpha" type="matrix" values="0 0 0 0 0 0 0 0 0 0 0 0 0 0 0 0 0 0 127 0" result="hardAlpha"/>
<feOffset dy="5.50649"/>
<feComposite in2="hardAlpha" operator="out"/>
<feColorMatrix type="matrix" values="0 0 0 0 0.976471 0 0 0 0 0.709804 0 0 0 0 1 0 0 0 1 0"/>
<feBlend mode="normal" in2="BackgroundImageFix" result="effect1_dropShadow_671_14281"/>
<feBlend mode="normal" in="SourceGraphic" in2="effect1_dropShadow_671_14281" result="shape"/>
</filter>
<filter id="filter4_d_671_14281" x="71.0547" y="67.4522" width="14.5176" height="20.0243" filterUnits="userSpaceOnUse" color-interpolation-filters="sRGB">
<feFlood flood-opacity="0" result="BackgroundImageFix"/>
<feColorMatrix in="SourceAlpha" type="matrix" values="0 0 0 0 0 0 0 0 0 0 0 0 0 0 0 0 0 0 127 0" result="hardAlpha"/>
<feOffset dy="5.50649"/>
<feComposite in2="hardAlpha" operator="out"/>
<feColorMatrix type="matrix" values="0 0 0 0 0.976471 0 0 0 0 0.709804 0 0 0 0 1 0 0 0 1 0"/>
<feBlend mode="normal" in2="BackgroundImageFix" result="effect1_dropShadow_671_14281"/>
<feBlend mode="normal" in="SourceGraphic" in2="effect1_dropShadow_671_14281" result="shape"/>
</filter>
<filter id="filter5_d_671_14281" x="66.2812" y="152.061" width="17.3633" height="36.3588" filterUnits="userSpaceOnUse" color-interpolation-filters="sRGB">
<feFlood flood-opacity="0" result="BackgroundImageFix"/>
<feColorMatrix in="SourceAlpha" type="matrix" values="0 0 0 0 0 0 0 0 0 0 0 0 0 0 0 0 0 0 127 0" result="hardAlpha"/>
<feOffset dy="5.50649"/>
<feComposite in2="hardAlpha" operator="out"/>
<feColorMatrix type="matrix" values="0 0 0 0 0.976471 0 0 0 0 0.709804 0 0 0 0 1 0 0 0 1 0"/>
<feBlend mode="normal" in2="BackgroundImageFix" result="effect1_dropShadow_671_14281"/>
<feBlend mode="normal" in="SourceGraphic" in2="effect1_dropShadow_671_14281" result="shape"/>
</filter>
<filter id="filter6_d_671_14281" x="65.3164" y="112.121" width="16.6797" height="51.4596" filterUnits="userSpaceOnUse" color-interpolation-filters="sRGB">
<feFlood flood-opacity="0" result="BackgroundImageFix"/>
<feColorMatrix in="SourceAlpha" type="matrix" values="0 0 0 0 0 0 0 0 0 0 0 0 0 0 0 0 0 0 127 0" result="hardAlpha"/>
<feOffset dy="5.50649"/>
<feComposite in2="hardAlpha" operator="out"/>
<feColorMatrix type="matrix" values="0 0 0 0 0.976471 0 0 0 0 0.709804 0 0 0 0 1 0 0 0 1 0"/>
<feBlend mode="normal" in2="BackgroundImageFix" result="effect1_dropShadow_671_14281"/>
<feBlend mode="normal" in="SourceGraphic" in2="effect1_dropShadow_671_14281" result="shape"/>
</filter>
<filter id="filter7_d_671_14281" x="78.709" y="124.293" width="82.0195" height="61.4849" filterUnits="userSpaceOnUse" color-interpolation-filters="sRGB">
<feFlood flood-opacity="0" result="BackgroundImageFix"/>
<feColorMatrix in="SourceAlpha" type="matrix" values="0 0 0 0 0 0 0 0 0 0 0 0 0 0 0 0 0 0 127 0" result="hardAlpha"/>
<feOffset dy="5.50649"/>
<feComposite in2="hardAlpha" operator="out"/>
<feColorMatrix type="matrix" values="0 0 0 0 0.976471 0 0 0 0 0.709804 0 0 0 0 1 0 0 0 1 0"/>
<feBlend mode="normal" in2="BackgroundImageFix" result="effect1_dropShadow_671_14281"/>
<feBlend mode="normal" in="SourceGraphic" in2="effect1_dropShadow_671_14281" result="shape"/>
</filter>
<filter id="filter8_d_671_14281" x="125.434" y="102.258" width="38.5195" height="58.3581" filterUnits="userSpaceOnUse" color-interpolation-filters="sRGB">
<feFlood flood-opacity="0" result="BackgroundImageFix"/>
<feColorMatrix in="SourceAlpha" type="matrix" values="0 0 0 0 0 0 0 0 0 0 0 0 0 0 0 0 0 0 127 0" result="hardAlpha"/>
<feOffset dy="5.50649"/>
<feComposite in2="hardAlpha" operator="out"/>
<feColorMatrix type="matrix" values="0 0 0 0 0.976471 0 0 0 0 0.709804 0 0 0 0 1 0 0 0 1 0"/>
<feBlend mode="normal" in2="BackgroundImageFix" result="effect1_dropShadow_671_14281"/>
<feBlend mode="normal" in="SourceGraphic" in2="effect1_dropShadow_671_14281" result="shape"/>
</filter>
</defs>
</svg>
