<svg width="212" height="212" viewBox="0 0 212 212" fill="none" xmlns="http://www.w3.org/2000/svg">
<path d="M101.862 185.93C135.001 185.93 161.866 181.785 161.866 176.672C161.866 171.559 135.001 167.414 101.862 167.414C68.7222 167.414 41.8573 171.559 41.8573 176.672C41.8573 181.785 68.7222 185.93 101.862 185.93Z" fill="#FFC1EB"/>
<path d="M66.0587 158.029L65.7459 158.704C65.548 159.131 65.7338 159.638 66.1609 159.836L82.3495 167.336C82.7766 167.534 83.2832 167.348 83.4811 166.921L83.7939 166.246C83.9918 165.819 83.806 165.312 83.3789 165.115L67.1903 157.614C66.7632 157.416 66.2566 157.602 66.0587 158.029Z" fill="black"/>
<path d="M66.4006 152.458L74.4566 154.578L85.3385 159.622L83.4814 163.633C83.311 163.999 83.0021 164.283 82.6226 164.423C82.243 164.562 81.8238 164.544 81.4568 164.375L67.132 157.739L66.4006 152.458Z" fill="white"/>
<path d="M82.0947 164.935C81.8127 164.936 81.5342 164.874 81.2785 164.755L66.7438 158.024L65.8958 151.876L74.6387 154.185L85.9022 159.423L83.8649 163.82C83.7062 164.155 83.4555 164.438 83.142 164.635C82.8285 164.833 82.4652 164.937 82.0947 164.935ZM67.5218 157.45L81.6347 163.99C81.7663 164.052 81.909 164.087 82.0544 164.093C82.1998 164.1 82.345 164.077 82.4816 164.027C82.6183 163.977 82.7436 163.901 82.8504 163.802C82.9572 163.703 83.0433 163.584 83.1038 163.451L84.785 159.824L74.3122 154.971L66.907 153.023L67.5218 157.45Z" fill="black"/>
<path d="M68.2639 160.806L59.1013 156.566C58.7644 156.41 58.5032 156.126 58.3752 155.778C58.2473 155.429 58.2629 155.044 58.4187 154.707C59.0599 153.324 60.2241 152.252 61.6553 151.728C63.0865 151.203 64.6675 151.268 66.0507 151.908C66.7356 152.226 67.3513 152.675 67.8626 153.23C68.374 153.785 68.7709 154.436 69.0308 155.145C69.2906 155.854 69.4083 156.606 69.3772 157.361C69.346 158.115 69.1665 158.856 68.8491 159.54L68.2639 160.806Z" fill="black"/>
<path d="M140.38 71.4201L135.68 71.7063C133.532 71.8368 131.421 71.109 129.81 69.6829C128.199 68.2568 127.221 66.2493 127.09 64.1019L126.825 59.7326C126.767 58.7873 126.897 57.84 127.205 56.9448C127.514 56.0496 127.997 55.224 128.625 54.5152C129.253 53.8065 130.014 53.2284 130.866 52.8141C131.717 52.3998 132.642 52.1573 133.587 52.1005L137.251 51.8779C139.901 51.7191 142.507 52.619 144.494 54.38C146.482 56.141 147.689 58.619 147.851 61.2696L147.948 62.8807C148.077 65.0168 147.352 67.1164 145.933 68.7178C144.513 70.3193 142.516 71.2913 140.38 71.4201Z" fill="black"/>
<path d="M60.1294 177.232C60.0284 177.234 59.9302 177.199 59.8524 177.135C59.7747 177.07 59.7226 176.98 59.7054 176.881L48.3358 111.582L30.9942 176.847C30.9628 176.952 30.8919 177.04 30.7963 177.094C30.7008 177.148 30.5881 177.163 30.482 177.136C30.3758 177.108 30.2844 177.041 30.2269 176.947C30.1695 176.854 30.1504 176.742 30.1738 176.635L48.5054 107.631L60.547 176.743C60.5662 176.853 60.5414 176.966 60.4779 177.057C60.4144 177.149 60.3174 177.212 60.2078 177.232C60.1817 177.235 60.1555 177.235 60.1294 177.232Z" fill="black"/>
<path d="M126.17 103.704H40.3162C39.287 103.704 38.4527 104.538 38.4527 105.567V107.742C38.4527 108.772 39.287 109.606 40.3162 109.606H126.17C127.199 109.606 128.033 108.772 128.033 107.742V105.567C128.033 104.538 127.199 103.704 126.17 103.704Z" fill="black"/>
<path d="M120.253 42.2182H105.022C102.811 42.2182 101.018 44.0112 101.018 46.2229C101.018 48.4347 102.811 50.2276 105.022 50.2276H120.253C122.464 50.2276 124.257 48.4347 124.257 46.2229C124.257 44.0112 122.464 42.2182 120.253 42.2182Z" fill="white"/>
<path d="M120.255 50.6484H105.022C104.433 50.6613 103.847 50.5563 103.298 50.3396C102.75 50.1229 102.25 49.7988 101.828 49.3864C101.407 48.974 101.072 48.4815 100.843 47.9379C100.615 47.3943 100.497 46.8105 100.497 46.2208C100.497 45.631 100.615 45.0472 100.843 44.5036C101.072 43.96 101.407 43.4676 101.828 43.0551C102.25 42.6427 102.75 42.3186 103.298 42.1019C103.847 41.8852 104.433 41.7802 105.022 41.7931H120.255C120.844 41.7802 121.43 41.8852 121.979 42.1019C122.527 42.3186 123.027 42.6427 123.449 43.0551C123.87 43.4676 124.205 43.96 124.434 44.5036C124.662 45.0472 124.78 45.631 124.78 46.2208C124.78 46.8105 124.662 47.3943 124.434 47.9379C124.205 48.4815 123.87 48.974 123.449 49.3864C123.027 49.7988 122.527 50.1229 121.979 50.3396C121.43 50.5563 120.844 50.6613 120.255 50.6484ZM105.022 42.6411C104.545 42.6295 104.07 42.7135 103.626 42.8882C103.181 43.0629 102.776 43.3247 102.434 43.6582C102.093 43.9918 101.821 44.3903 101.636 44.8304C101.45 45.2705 101.355 45.7432 101.355 46.2208C101.355 46.6983 101.45 47.171 101.636 47.6111C101.821 48.0512 102.093 48.4498 102.434 48.7833C102.776 49.1169 103.181 49.3787 103.626 49.5533C104.07 49.728 104.545 49.812 105.022 49.8004H120.255C120.732 49.812 121.207 49.728 121.651 49.5533C122.096 49.3787 122.501 49.1169 122.843 48.7833C123.184 48.4498 123.456 48.0512 123.641 47.6111C123.827 47.171 123.922 46.6983 123.922 46.2208C123.922 45.7432 123.827 45.2705 123.641 44.8304C123.456 44.3903 123.184 43.9918 122.843 43.6582C122.501 43.3247 122.096 43.0629 121.651 42.8882C121.207 42.7135 120.732 42.6295 120.255 42.6411H105.022Z" fill="black"/>
<path d="M107.63 48.1515L106.545 47.579C106.529 47.5707 106.511 47.5663 106.493 47.5663C106.475 47.5663 106.457 47.5707 106.441 47.579L105.355 48.1515C105.337 48.1607 105.316 48.1647 105.295 48.1629C105.275 48.1611 105.255 48.1537 105.238 48.1414C105.222 48.1291 105.209 48.1125 105.201 48.0933C105.193 48.0741 105.191 48.0532 105.194 48.0327L105.406 46.8243C105.409 46.8062 105.407 46.7878 105.401 46.7705C105.395 46.7532 105.385 46.7375 105.372 46.7247L104.495 45.8767C104.48 45.8623 104.469 45.8441 104.464 45.824C104.459 45.8039 104.46 45.7828 104.466 45.7631C104.473 45.7434 104.484 45.7259 104.5 45.7126C104.516 45.6993 104.535 45.6908 104.556 45.688L105.771 45.5099C105.788 45.5078 105.805 45.5012 105.82 45.4908C105.834 45.4804 105.846 45.4666 105.853 45.4506L106.398 44.3503C106.407 44.3314 106.421 44.3155 106.439 44.3043C106.457 44.2931 106.477 44.2872 106.498 44.2872C106.519 44.2872 106.539 44.2931 106.557 44.3043C106.575 44.3155 106.589 44.3314 106.598 44.3503L107.14 45.4506C107.148 45.4667 107.161 45.4805 107.175 45.4908C107.19 45.5012 107.207 45.5077 107.225 45.5099L108.438 45.688C108.458 45.6908 108.478 45.6993 108.493 45.7126C108.509 45.7259 108.521 45.7434 108.528 45.7631C108.534 45.7828 108.535 45.8039 108.53 45.824C108.525 45.8441 108.514 45.8623 108.499 45.8767L107.622 46.7247C107.609 46.7376 107.599 46.7533 107.594 46.7707C107.588 46.788 107.587 46.8064 107.59 46.8243L107.802 48.0327C107.807 48.0546 107.805 48.0776 107.797 48.0985C107.789 48.1195 107.775 48.1375 107.756 48.1503C107.738 48.1631 107.716 48.17 107.693 48.1702C107.671 48.1704 107.649 48.1639 107.63 48.1515Z" fill="#FFBB45"/>
<path d="M113.776 48.1522L112.691 47.5798C112.675 47.5715 112.657 47.5671 112.639 47.5671C112.621 47.5671 112.603 47.5715 112.587 47.5798L111.502 48.1522C111.483 48.1621 111.462 48.1665 111.441 48.165C111.42 48.1635 111.4 48.1562 111.383 48.1438C111.366 48.1314 111.353 48.1145 111.345 48.095C111.337 48.0755 111.335 48.0542 111.338 48.0335L111.55 46.8251C111.554 46.8072 111.553 46.7887 111.547 46.7713C111.542 46.7539 111.532 46.7382 111.519 46.7255L110.641 45.8775C110.626 45.8631 110.615 45.8448 110.61 45.8248C110.605 45.8047 110.606 45.7836 110.613 45.7639C110.619 45.7442 110.631 45.7267 110.647 45.7134C110.663 45.7001 110.682 45.6916 110.702 45.6888L111.917 45.5107C111.935 45.5086 111.952 45.502 111.966 45.4916C111.981 45.4812 111.992 45.4674 112 45.4514L112.543 44.3511C112.552 44.3323 112.566 44.3165 112.584 44.3055C112.602 44.2944 112.622 44.2886 112.643 44.2886C112.664 44.2886 112.685 44.2944 112.703 44.3055C112.72 44.3165 112.735 44.3323 112.744 44.3511L113.287 45.4514C113.294 45.4674 113.306 45.4812 113.32 45.4916C113.335 45.502 113.352 45.5086 113.369 45.5107L114.584 45.6888C114.605 45.6916 114.624 45.7001 114.64 45.7134C114.656 45.7267 114.668 45.7442 114.674 45.7639C114.68 45.7836 114.681 45.8047 114.676 45.8248C114.671 45.8448 114.661 45.8631 114.646 45.8775L113.768 46.7255C113.755 46.7382 113.745 46.7539 113.739 46.7713C113.734 46.7887 113.733 46.8072 113.736 46.8251L113.948 48.0335C113.953 48.0554 113.952 48.0783 113.943 48.0993C113.935 48.1203 113.921 48.1383 113.903 48.1511C113.884 48.1639 113.862 48.1708 113.84 48.171C113.817 48.1712 113.795 48.1647 113.776 48.1522Z" fill="#FFBB45"/>
<path d="M119.922 48.1515L118.837 47.579C118.821 47.5707 118.803 47.5663 118.785 47.5663C118.767 47.5663 118.749 47.5707 118.733 47.579L117.647 48.1515C117.629 48.1613 117.608 48.1657 117.587 48.1642C117.566 48.1627 117.546 48.1554 117.529 48.143C117.512 48.1306 117.499 48.1138 117.491 48.0943C117.483 48.0748 117.481 48.0534 117.484 48.0327L117.696 46.8243C117.699 46.8064 117.698 46.788 117.692 46.7707C117.687 46.7533 117.677 46.7376 117.664 46.7247L116.787 45.8767C116.772 45.8623 116.761 45.8441 116.756 45.824C116.751 45.8039 116.752 45.7828 116.758 45.7631C116.765 45.7434 116.777 45.7259 116.792 45.7126C116.808 45.6993 116.828 45.6908 116.848 45.688L118.061 45.5099C118.079 45.5076 118.096 45.5009 118.11 45.4906C118.125 45.4803 118.137 45.4665 118.146 45.4506L118.688 44.3503C118.697 44.3314 118.711 44.3155 118.729 44.3043C118.747 44.2931 118.767 44.2872 118.788 44.2872C118.809 44.2872 118.829 44.2931 118.847 44.3043C118.865 44.3155 118.879 44.3314 118.888 44.3503L119.43 45.4506C119.439 45.4665 119.451 45.4803 119.465 45.4906C119.48 45.5009 119.497 45.5076 119.515 45.5099L120.73 45.688C120.75 45.6908 120.77 45.6993 120.786 45.7126C120.802 45.7259 120.813 45.7434 120.82 45.7631C120.826 45.7828 120.827 45.8039 120.822 45.824C120.817 45.8441 120.806 45.8623 120.791 45.8767L119.912 46.7247C119.899 46.7376 119.889 46.7533 119.884 46.7707C119.878 46.788 119.877 46.8064 119.88 46.8243L120.092 48.0327C120.096 48.0543 120.095 48.0768 120.086 48.0974C120.078 48.1179 120.064 48.1357 120.046 48.1483C120.028 48.161 120.007 48.1681 119.985 48.1686C119.963 48.1692 119.941 48.1632 119.922 48.1515Z" fill="#FFBB45"/>
<path d="M109.604 54.4035H55.6496C53.3993 54.4035 51.575 56.2278 51.575 58.4782V91.8236C51.575 94.074 53.3993 95.8983 55.6496 95.8983H109.604C111.854 95.8983 113.678 94.074 113.678 91.8236V58.4782C113.678 56.2278 111.854 54.4035 109.604 54.4035Z" fill="black"/>
<path d="M106.462 57.9835H58.7918C57.0765 57.9835 55.686 59.374 55.686 61.0893V90.0464C55.686 91.7617 57.0765 93.1522 58.7918 93.1522H106.462C108.177 93.1522 109.568 91.7617 109.568 90.0464V61.0893C109.568 59.374 108.177 57.9835 106.462 57.9835Z" fill="white"/>
<path d="M86.388 63.8611H72.8581C71.6569 63.8611 70.683 64.8349 70.683 66.0362V86.2037C70.683 87.405 71.6569 88.3789 72.8581 88.3789H86.388C87.5893 88.3789 88.5631 87.405 88.5631 86.2037V66.0362C88.5631 64.8349 87.5893 63.8611 86.388 63.8611Z" fill="#6DC8C2"/>
<path d="M65.8405 63.1956H61.0642C60.5619 63.1956 60.1547 63.6028 60.1547 64.1051V68.8815C60.1547 69.3838 60.5619 69.7909 61.0642 69.7909H65.8405C66.3428 69.7909 66.75 69.3838 66.75 68.8815V64.1051C66.75 63.6028 66.3428 63.1956 65.8405 63.1956Z" fill="#6DC8C2"/>
<path d="M65.6646 72.8925H61.2401C60.6406 72.8925 60.1547 73.3785 60.1547 73.9779V78.4024C60.1547 79.0018 60.6406 79.4878 61.2401 79.4878H65.6646C66.264 79.4878 66.75 79.0018 66.75 78.4024V73.9779C66.75 73.3785 66.264 72.8925 65.6646 72.8925Z" fill="#FFC1EB"/>
<path d="M65.6518 82.5866H61.2528C60.6463 82.5866 60.1547 83.0783 60.1547 83.6848V88.0838C60.1547 88.6903 60.6463 89.182 61.2528 89.182H65.6518C66.2583 89.182 66.75 88.6903 66.75 88.0838V83.6848C66.75 83.0783 66.2583 82.5866 65.6518 82.5866Z" fill="#FFBB45"/>
<path d="M106.227 64.7642H92.0736C91.9612 64.7642 91.8533 64.7195 91.7738 64.64C91.6943 64.5605 91.6496 64.4527 91.6496 64.3402C91.6496 64.2277 91.6943 64.1199 91.7738 64.0404C91.8533 63.9609 91.9612 63.9162 92.0736 63.9162H106.227C106.339 63.9162 106.447 63.9609 106.527 64.0404C106.606 64.1199 106.651 64.2277 106.651 64.3402C106.651 64.4527 106.606 64.5605 106.527 64.64C106.447 64.7195 106.339 64.7642 106.227 64.7642Z" fill="black"/>
<path d="M106.227 68.6884H92.0736C91.9612 68.6884 91.8533 68.6437 91.7738 68.5642C91.6943 68.4847 91.6496 68.3768 91.6496 68.2644C91.6496 68.1519 91.6943 68.0441 91.7738 67.9646C91.8533 67.885 91.9612 67.8404 92.0736 67.8404H106.227C106.339 67.8404 106.447 67.885 106.527 67.9646C106.606 68.0441 106.651 68.1519 106.651 68.2644C106.651 68.3768 106.606 68.4847 106.527 68.5642C106.447 68.6437 106.339 68.6884 106.227 68.6884Z" fill="black"/>
<path d="M101.832 72.5924H92.0804C91.9679 72.5924 91.8601 72.5477 91.7806 72.4682C91.701 72.3887 91.6564 72.2809 91.6564 72.1684C91.6564 72.0559 91.701 71.9481 91.7806 71.8686C91.8601 71.7891 91.9679 71.7444 92.0804 71.7444H101.832C101.945 71.7444 102.053 71.7891 102.132 71.8686C102.212 71.9481 102.256 72.0559 102.256 72.1684C102.256 72.2809 102.212 72.3887 102.132 72.4682C102.053 72.5477 101.945 72.5924 101.832 72.5924Z" fill="black"/>
<path d="M99.4427 75.5435H93.5449C92.5063 75.5435 91.6644 76.3854 91.6644 77.424C91.6644 78.4625 92.5063 79.3044 93.5449 79.3044H99.4427C100.481 79.3044 101.323 78.4625 101.323 77.424C101.323 76.3854 100.481 75.5435 99.4427 75.5435Z" fill="#FFC1EB"/>
<path d="M105.249 79.1924C106.225 79.1924 107.015 78.4018 107.015 77.4265C107.015 76.4512 106.225 75.6605 105.249 75.6605C104.274 75.6605 103.483 76.4512 103.483 77.4265C103.483 78.4018 104.274 79.1924 105.249 79.1924Z" fill="#FB6D6D"/>
<path d="M83.1866 103.704H68.4144L74.4628 95.8985H89.8413L83.1866 103.704Z" fill="black"/>
<path d="M147.064 131.05C147.029 131.05 146.994 131.045 146.96 131.037C146.906 131.023 146.855 130.999 146.811 130.966C146.766 130.933 146.728 130.891 146.7 130.843C146.671 130.795 146.652 130.742 146.644 130.687C146.636 130.632 146.639 130.576 146.653 130.522L152.233 108.474C152.261 108.365 152.331 108.271 152.428 108.214C152.525 108.157 152.641 108.14 152.75 108.168C152.859 108.197 152.953 108.267 153.01 108.364C153.067 108.461 153.083 108.577 153.055 108.686L147.475 130.734C147.452 130.824 147.398 130.905 147.324 130.962C147.249 131.019 147.158 131.05 147.064 131.05Z" fill="black"/>
<path d="M116.42 176.306C116.401 176.308 116.381 176.308 116.362 176.306C116.307 176.298 116.254 176.28 116.206 176.252C116.157 176.224 116.115 176.187 116.081 176.143C116.047 176.098 116.022 176.048 116.008 175.994C115.994 175.94 115.99 175.884 115.998 175.829L121.707 133.681C121.714 133.625 121.733 133.571 121.761 133.523C121.789 133.474 121.826 133.432 121.871 133.397C121.915 133.363 121.966 133.338 122.021 133.324C122.075 133.309 122.131 133.306 122.187 133.313C122.243 133.32 122.296 133.339 122.345 133.367C122.394 133.395 122.436 133.432 122.47 133.477C122.505 133.522 122.53 133.572 122.544 133.627C122.559 133.681 122.562 133.738 122.555 133.793L116.839 175.939C116.826 176.04 116.775 176.133 116.698 176.201C116.621 176.268 116.522 176.305 116.42 176.306Z" fill="black"/>
<path d="M153.292 85.7518L148.992 104.695C148.629 106.293 149.63 107.882 151.227 108.244L154.465 108.979C156.062 109.342 157.651 108.341 158.014 106.744L162.314 87.7999C162.677 86.2026 161.676 84.6137 160.079 84.2511L156.841 83.5161C155.244 83.1535 153.655 84.1544 153.292 85.7518Z" fill="#C7B8F8"/>
<path d="M147.364 176.306C147.261 176.307 147.161 176.27 147.083 176.203C147.005 176.136 146.954 176.043 146.94 175.941L140.98 133.791C140.965 133.679 140.994 133.565 141.063 133.474C141.131 133.384 141.232 133.324 141.345 133.308C141.457 133.292 141.572 133.322 141.662 133.39C141.753 133.459 141.813 133.56 141.828 133.673L147.786 175.823C147.801 175.934 147.772 176.047 147.705 176.137C147.637 176.227 147.536 176.286 147.425 176.302C147.405 176.305 147.384 176.307 147.364 176.306Z" fill="black"/>
<path d="M145.39 162.335H118.311C118.198 162.335 118.091 162.29 118.011 162.211C117.931 162.131 117.887 162.024 117.887 161.911C117.887 161.799 117.931 161.691 118.011 161.611C118.091 161.532 118.198 161.487 118.311 161.487H145.39C145.502 161.487 145.61 161.532 145.689 161.611C145.769 161.691 145.814 161.799 145.814 161.911C145.814 162.024 145.769 162.131 145.689 162.211C145.61 162.29 145.502 162.335 145.39 162.335Z" fill="black"/>
<path d="M145.014 123.785H119.349C117.731 123.785 116.419 125.096 116.419 126.714V130.802C116.419 132.42 117.731 133.732 119.349 133.732H145.014C146.632 133.732 147.944 132.42 147.944 130.802V126.714C147.944 125.096 146.632 123.785 145.014 123.785Z" fill="#C7B8F8"/>
<path d="M148.725 59.4023C152.196 59.4023 155.01 56.5881 155.01 53.1165C155.01 49.645 152.196 46.8307 148.725 46.8307C145.253 46.8307 142.439 49.645 142.439 53.1165C142.439 56.5881 145.253 59.4023 148.725 59.4023Z" fill="black"/>
<path d="M160.265 55.8791C164.925 55.8791 168.703 52.1014 168.703 47.4415C168.703 42.7815 164.925 39.0039 160.265 39.0039C155.605 39.0039 151.828 42.7815 151.828 47.4415C151.828 52.1014 155.605 55.8791 160.265 55.8791Z" fill="black"/>
<path d="M144.618 65.0139C144.618 64.283 144.328 63.582 143.811 63.0652C143.294 62.5483 142.593 62.2579 141.862 62.2579C141.733 62.2592 141.604 62.2692 141.476 62.2876L140.948 55.0542L130.66 56.1587C129.603 56.2712 128.626 56.7707 127.915 57.561C127.205 58.3512 126.812 59.3764 126.812 60.439V61.6029C126.821 62.9517 126.446 64.2753 125.731 65.4189L125.712 65.4464V65.457C125.634 65.5748 125.582 65.7079 125.559 65.8474C125.537 65.9869 125.544 66.1296 125.581 66.266C125.618 66.4025 125.683 66.5294 125.773 66.6385C125.863 66.7476 125.975 66.8363 126.102 66.8986L126.818 67.2505V69.9769C126.818 70.5188 126.936 71.0544 127.162 71.5467C127.389 72.039 127.719 72.4763 128.131 72.8287C128.543 73.181 129.026 73.44 129.548 73.5878C130.069 73.7356 130.616 73.7686 131.152 73.6847L133.793 73.2735L134.323 77.8039L142.733 76.8117L142.163 71.976H142.188L141.881 67.7678C142.608 67.7628 143.304 67.4705 143.817 66.9546C144.329 66.4388 144.617 65.7412 144.618 65.0139Z" fill="white"/>
<path d="M133.952 78.275L133.42 73.7764L131.216 74.1198C130.62 74.2129 130.011 74.1758 129.431 74.0111C128.85 73.8465 128.313 73.5581 127.855 73.1659C127.397 72.7737 127.029 72.2869 126.777 71.739C126.525 71.1912 126.394 70.5952 126.395 69.9922V67.5266L125.913 67.2913C125.734 67.204 125.576 67.0797 125.448 66.9266C125.321 66.7735 125.227 66.595 125.174 66.403C125.12 66.2069 125.109 66.0017 125.14 65.8009C125.171 65.6 125.244 65.4079 125.354 65.237L125.377 65.201C126.052 64.1248 126.405 62.8779 126.395 61.6076V60.4437C126.392 59.2764 126.823 58.1497 127.603 57.2813C128.383 56.4128 129.457 55.8642 130.618 55.7415L141.343 54.5904L141.873 61.8387C142.665 61.8547 143.422 62.1657 143.997 62.7108C144.572 63.2559 144.922 63.9959 144.98 64.7859C145.038 65.5759 144.799 66.3591 144.31 66.9821C143.82 67.605 143.116 68.023 142.335 68.1541L142.638 72.3327L143.21 77.1832L133.952 78.275ZM134.164 72.7969L134.699 77.3337L142.267 76.4412L141.699 71.6225H141.741L141.43 67.3507H141.883C142.502 67.349 143.094 67.1017 143.53 66.6631C143.967 66.2246 144.211 65.6308 144.209 65.0123C144.207 64.3938 143.96 63.8013 143.521 63.3652C143.083 62.929 142.489 62.685 141.871 62.6867C141.761 62.6877 141.652 62.6962 141.544 62.7121L141.095 62.7757L140.556 55.5274L130.702 56.5874C129.75 56.6881 128.868 57.1382 128.228 57.8508C127.588 58.5634 127.235 59.4879 127.236 60.4458V61.6097C127.247 63.0416 126.847 64.4467 126.085 65.6589L126.064 65.6928C126.017 65.7637 125.986 65.8435 125.973 65.9272C125.959 66.0108 125.964 66.0964 125.985 66.1783C126.006 66.255 126.043 66.3263 126.094 66.3874C126.145 66.4485 126.208 66.498 126.28 66.5323L127.236 66.9987V69.9901C127.236 70.4706 127.341 70.9453 127.541 71.3818C127.742 71.8183 128.035 72.2061 128.4 72.5187C128.765 72.8313 129.193 73.0612 129.656 73.1926C130.118 73.3241 130.603 73.354 131.078 73.2803L134.164 72.7969Z" fill="black"/>
<path d="M129.532 70.4205C129.424 70.4205 129.316 70.4113 129.21 70.3929C128.8 70.322 128.42 70.1335 128.116 69.8502C128.032 69.7743 127.981 69.668 127.975 69.5547C127.969 69.4414 128.008 69.3304 128.084 69.246C128.16 69.1617 128.266 69.1109 128.38 69.105C128.493 69.099 128.604 69.1383 128.688 69.2142C128.872 69.3848 129.101 69.5002 129.348 69.5471C130.132 69.6764 130.749 68.9111 130.755 68.9111C130.826 68.8275 130.926 68.7747 131.035 68.7635C131.144 68.7523 131.253 68.7837 131.34 68.8511C131.426 68.9185 131.483 69.0167 131.498 69.125C131.514 69.2334 131.487 69.3436 131.423 69.4326C131.379 69.4813 130.63 70.4205 129.532 70.4205Z" fill="black"/>
<path d="M131.268 64.6724C131.637 64.6724 131.936 64.3734 131.936 64.0046C131.936 63.6358 131.637 63.3368 131.268 63.3368C130.899 63.3368 130.6 63.6358 130.6 64.0046C130.6 64.3734 130.899 64.6724 131.268 64.6724Z" fill="black"/>
<path d="M141.582 66.4447C141.357 66.4447 141.136 66.3778 140.949 66.2525C140.761 66.1271 140.615 65.949 140.529 65.7406C140.442 65.5322 140.42 65.3029 140.464 65.0816C140.508 64.8604 140.616 64.6571 140.776 64.4976C140.935 64.3381 141.139 64.2295 141.36 64.1855C141.581 64.1415 141.81 64.1641 142.019 64.2504C142.227 64.3367 142.405 64.4829 142.531 64.6705C142.656 64.858 142.723 65.0785 142.723 65.3041C142.723 65.6066 142.603 65.8967 142.389 66.1106C142.175 66.3245 141.885 66.4447 141.582 66.4447ZM141.582 65.0116C141.525 65.0116 141.468 65.0287 141.42 65.0609C141.372 65.093 141.334 65.1387 141.312 65.1922C141.29 65.2456 141.284 65.3044 141.295 65.3612C141.307 65.418 141.335 65.4701 141.375 65.511C141.416 65.5519 141.469 65.5798 141.525 65.5911C141.582 65.6024 141.641 65.5966 141.694 65.5744C141.748 65.5523 141.793 65.5148 141.826 65.4667C141.858 65.4186 141.875 65.362 141.875 65.3041C141.875 65.2265 141.844 65.1521 141.789 65.0972C141.734 65.0424 141.66 65.0116 141.582 65.0116Z" fill="black"/>
<path d="M134.755 76.659L147.658 76.0739C149.588 75.966 151.482 76.6252 152.928 77.9077C154.787 79.6037 156.242 82.718 154.217 88.3784L151.368 93.689L135.256 91.7386L132.472 97.1531L122.36 98.3085C122.11 98.336 121.336 97.0047 121.228 96.8372C120.423 95.6106 119.899 94.2214 119.693 92.7689C119.163 88.6307 122.237 85.3065 124.618 82.2813C127.145 79.0546 130.503 76.8519 134.755 76.659Z" fill="#FFC1EB"/>
<path d="M140.891 65.9152C140.791 65.9171 140.694 65.884 140.617 65.8216C140.539 65.7592 140.486 65.6715 140.467 65.5739C140.409 65.2886 140.427 64.9932 140.52 64.7172C140.612 64.4412 140.775 64.1942 140.992 64.0009C141.203 63.8249 141.452 63.7015 141.72 63.6407C141.987 63.5799 142.266 63.5834 142.531 63.6511C142.585 63.666 142.635 63.6913 142.679 63.7256C142.723 63.7599 142.76 63.8026 142.788 63.8511C142.815 63.8996 142.833 63.9531 142.839 64.0084C142.846 64.0638 142.842 64.1199 142.827 64.1736C142.812 64.2274 142.787 64.2776 142.753 64.3216C142.718 64.3655 142.676 64.4023 142.627 64.4297C142.579 64.4572 142.525 64.4748 142.47 64.4816C142.415 64.4884 142.358 64.4843 142.305 64.4694C142.175 64.4378 142.039 64.4365 141.909 64.4656C141.778 64.4946 141.656 64.5532 141.552 64.6369C141.446 64.7319 141.367 64.8529 141.323 64.9878C141.278 65.1228 141.269 65.2671 141.298 65.4064C141.309 65.461 141.309 65.5172 141.298 65.5719C141.288 65.6266 141.267 65.6786 141.236 65.7251C141.205 65.7716 141.166 65.8115 141.119 65.8427C141.073 65.8738 141.021 65.8956 140.967 65.9067C140.942 65.9112 140.916 65.914 140.891 65.9152Z" fill="black"/>
<path d="M130.664 56.1627C130.664 56.1627 130.527 64.7042 141.563 62.2789L140.953 55.0582L130.664 56.1627Z" fill="black"/>
<path d="M131.423 67.7147C129.672 67.7147 128.243 66.0632 128.243 64.0301C128.243 61.9971 129.67 60.3456 131.423 60.3456C133.176 60.3456 134.603 61.9992 134.603 64.0301C134.603 66.0611 133.176 67.7147 131.423 67.7147ZM131.423 61.1936C130.138 61.1936 129.091 62.4656 129.091 64.0301C129.091 65.5947 130.136 66.8667 131.423 66.8667C132.71 66.8667 133.755 65.5947 133.755 64.0301C133.755 62.4656 132.712 61.1936 131.423 61.1936Z" fill="black"/>
<path d="M145.949 112.337H129.744V101.58H144.718C145.776 105.061 146.196 108.706 145.958 112.337H145.949Z" fill="black"/>
<path d="M105.095 103.704H96.7463C96.2812 103.705 95.8223 103.597 95.4059 103.39C94.9896 103.183 94.6271 102.882 94.3472 102.51C94.0673 102.139 93.8776 101.707 93.7932 101.25C93.7089 100.793 93.732 100.322 93.861 99.8751C94.0359 99.2747 94.4011 98.7473 94.9015 98.3722C95.402 97.9972 96.0107 97.7947 96.6361 97.7954H105.203C105.806 97.7951 106.394 97.9836 106.885 98.3346C107.375 98.6855 107.743 99.1812 107.938 99.7521C108.09 100.203 108.133 100.684 108.062 101.154C107.992 101.625 107.81 102.072 107.532 102.459C107.254 102.845 106.888 103.159 106.464 103.376C106.04 103.593 105.571 103.705 105.095 103.704Z" fill="#F3EAD6"/>
<path d="M135.006 91.739L132.262 97.1535L116.462 98.7266C115.871 98.7856 115.276 98.6714 114.749 98.398L107.908 94.8448C107.908 94.8448 105.519 93.5071 102.065 94.9487L96.2479 97.5881C96.0036 97.6937 95.7986 97.8732 95.6617 98.1014C95.5248 98.3295 95.4629 98.5949 95.4847 98.8601V98.8728C95.4991 98.9814 95.5367 99.0856 95.5949 99.1784C95.6531 99.2712 95.7306 99.3504 95.822 99.4107C95.9135 99.471 96.0168 99.511 96.125 99.5279C96.2332 99.5448 96.3438 99.5383 96.4493 99.5088L102.608 97.781L99.7226 100.391C99.2978 100.771 99.0015 101.274 98.8746 101.83C98.6795 102.735 98.9148 103.963 101.26 104.523C101.26 104.523 102.339 106.335 104.175 105.371C104.185 105.371 104.446 105.602 104.467 105.617C104.754 105.838 105.06 106.031 105.383 106.195C106.393 106.698 107.499 106.979 108.627 107.02C109.326 107.054 109.983 106.749 110.075 105.99L110.664 106.051C112.501 106.239 114.331 106.509 116.153 106.861L130.087 109.556C133.903 110.096 136.634 109.28 138.027 108.729C142.097 107.12 144.734 104.258 146.85 100.622L150.878 93.6873L135.006 91.739Z" fill="white"/>
<path d="M132.579 110.162C131.727 110.16 130.877 110.098 130.035 109.977H130.013L116.07 107.272C114.272 106.924 112.439 106.655 110.62 106.466L110.391 106.443C110.132 107.094 109.458 107.482 108.604 107.439C107.416 107.394 106.251 107.097 105.186 106.568C104.841 106.391 104.513 106.184 104.204 105.949L104.122 105.877L104.107 105.864C102.623 106.485 101.482 105.587 100.993 104.887C98.3491 104.194 98.2664 102.621 98.4487 101.735C98.5947 101.09 98.9404 100.507 99.4366 100.07L100.988 98.6669L96.5492 99.9071C96.3861 99.9529 96.215 99.9633 96.0476 99.9376C95.8801 99.912 95.7201 99.8508 95.5782 99.7583C95.4362 99.6657 95.3157 99.544 95.2247 99.4011C95.1337 99.2582 95.0742 99.0975 95.0503 98.9298C95.0123 98.5729 95.0885 98.2131 95.2679 97.9022C95.4474 97.5914 95.7208 97.3455 96.0489 97.1999L101.889 94.5562C105.504 93.0468 108.01 94.4099 108.116 94.4693L114.936 98.0139C115.392 98.2519 115.908 98.3507 116.42 98.298L131.987 96.7483L134.76 91.2766L151.58 93.3457L147.219 100.838C144.786 105.016 141.919 107.649 138.186 109.125C136.399 109.822 134.496 110.174 132.579 110.162ZM130.155 109.138C132.933 109.53 135.53 109.261 137.87 108.336C141.461 106.916 144.118 104.471 146.482 100.412L150.196 94.0305L135.256 92.1967L132.543 97.5518L116.511 99.1481C115.838 99.2154 115.161 99.085 114.561 98.7729L107.728 95.2219C107.626 95.1668 105.447 94.0008 102.243 95.3406L96.422 97.9737C96.26 98.0414 96.1231 98.1577 96.0301 98.3066C95.937 98.4554 95.8925 98.6295 95.9026 98.8047C95.9088 98.8539 95.9254 98.9013 95.9514 98.9436C95.9775 98.9858 96.0122 99.022 96.0534 99.0498C96.0946 99.0775 96.1412 99.0961 96.1901 99.1042C96.2391 99.1124 96.2892 99.1101 96.3372 99.0973L104.232 96.884L100.015 100.7C99.6511 101.018 99.396 101.442 99.2861 101.913C99.055 102.983 99.7504 103.721 101.355 104.103L101.529 104.145L101.62 104.3C101.711 104.448 102.549 105.739 103.976 104.989C104.243 104.849 104.419 105.006 104.686 105.243L104.734 105.288C105.001 105.488 105.285 105.665 105.582 105.816C106.54 106.288 107.586 106.552 108.652 106.591C108.93 106.604 109.583 106.57 109.657 105.934L109.706 105.51L110.713 105.614C112.555 105.803 114.414 106.076 116.238 106.43L130.155 109.138Z" fill="black"/>
<path d="M110.914 173.555H93.0726C92.6019 173.555 92.2203 173.937 92.2203 174.408V175.152C92.2203 175.622 92.6019 176.004 93.0726 176.004H110.914C111.385 176.004 111.767 175.622 111.767 175.152V174.408C111.767 173.937 111.385 173.555 110.914 173.555Z" fill="black"/>
<path d="M90.187 169.212L98.3871 167.749H110.382V172.171C110.382 172.576 110.222 172.963 109.936 173.249C109.65 173.535 109.262 173.696 108.858 173.696H93.0681L90.187 169.212Z" fill="white"/>
<path d="M108.858 174.12H92.8412L89.4852 168.907L98.3892 167.326H110.808V172.172C110.808 172.689 110.602 173.184 110.236 173.55C109.87 173.915 109.375 174.12 108.858 174.12ZM93.3033 173.272H108.858C109.149 173.272 109.429 173.156 109.635 172.949C109.841 172.743 109.958 172.464 109.958 172.172V168.174H98.4253L90.8865 169.518L93.3033 173.272Z" fill="black"/>
<path d="M80.0154 159.385L75.0864 155.781C74.3265 155.227 73.6831 154.529 73.1931 153.726C72.7031 152.923 72.376 152.032 72.2305 151.103C72.0851 150.173 72.124 149.225 72.3452 148.311C72.5664 147.396 72.9655 146.535 73.5198 145.775L94.9954 116.324C95.808 115.209 96.8323 114.265 98.0097 113.546C99.1872 112.828 100.495 112.348 101.858 112.134C103.221 111.921 104.612 111.978 105.953 112.303C107.294 112.627 108.558 113.213 109.672 114.026C110.787 114.838 111.731 115.863 112.45 117.04C113.168 118.218 113.648 119.525 113.862 120.888C114.075 122.251 114.018 123.643 113.693 124.983C113.369 126.324 112.783 127.588 111.97 128.703L90.838 157.691C89.6274 159.351 87.8071 160.462 85.7775 160.78C83.7479 161.097 81.6753 160.596 80.0154 159.385Z" fill="black"/>
<path d="M131.257 127.412H93.7334V120.039C93.734 117.202 94.8613 114.482 96.8674 112.476C98.8735 110.47 101.594 109.343 104.431 109.343H145.949V112.721C145.949 116.617 144.401 120.354 141.646 123.109C138.891 125.864 135.154 127.412 131.257 127.412Z" fill="black"/>
<path d="M107.005 168.786H100.912C99.0122 168.786 97.1904 168.032 95.8471 166.689C94.5037 165.346 93.7488 163.524 93.7482 161.625V126.507H114.757V161.04C114.758 162.057 114.557 163.065 114.168 164.006C113.778 164.946 113.207 165.801 112.487 166.52C111.767 167.239 110.912 167.81 109.971 168.199C109.031 168.588 108.022 168.787 107.005 168.786Z" fill="black"/>
<path d="M82.5334 159.534C82.4559 159.534 82.3799 159.513 82.3138 159.472C82.2476 159.432 82.1938 159.374 82.1582 159.305C82.1225 159.236 82.1065 159.159 82.1117 159.082C82.1169 159.004 82.1433 158.93 82.1878 158.867L93.3942 142.967C93.4591 142.875 93.5579 142.812 93.6688 142.793C93.7798 142.774 93.8937 142.8 93.9856 142.865C94.0776 142.93 94.1399 143.029 94.159 143.139C94.1781 143.25 94.1523 143.364 94.0874 143.456L82.8811 159.356C82.8417 159.412 82.7895 159.457 82.729 159.488C82.6685 159.519 82.6014 159.535 82.5334 159.534Z" fill="white"/>
<path d="M108.099 169.131C107.987 169.131 107.879 169.086 107.799 169.007C107.72 168.927 107.675 168.819 107.675 168.707V125.633C107.676 124.038 108.31 122.508 109.438 121.38C110.565 120.252 112.095 119.618 113.69 119.616H130.179C131.911 119.614 133.572 118.926 134.797 117.701C136.022 116.476 136.711 114.815 136.713 113.082V109.343C136.713 109.23 136.757 109.122 136.837 109.043C136.916 108.963 137.024 108.919 137.137 108.919C137.249 108.919 137.357 108.963 137.437 109.043C137.516 109.122 137.561 109.23 137.561 109.343V113.082C137.558 115.039 136.78 116.916 135.396 118.3C134.012 119.683 132.136 120.462 130.179 120.464H113.69C112.319 120.466 111.006 121.011 110.037 121.98C109.069 122.949 108.524 124.263 108.523 125.633V168.707C108.523 168.819 108.478 168.927 108.399 169.007C108.319 169.086 108.212 169.131 108.099 169.131Z" fill="white"/>
<path d="M101.256 104.94C101.164 104.939 101.076 104.909 101.003 104.854C100.93 104.799 100.876 104.722 100.851 104.634C99.8671 101.266 103.478 99.1839 103.516 99.1627C103.564 99.1349 103.618 99.1168 103.673 99.1097C103.728 99.1025 103.785 99.1063 103.839 99.1208C103.893 99.1354 103.943 99.1605 103.987 99.1946C104.032 99.2287 104.069 99.2711 104.097 99.3196C104.124 99.368 104.142 99.4215 104.15 99.4769C104.157 99.5323 104.153 99.5886 104.138 99.6425C104.124 99.6965 104.099 99.747 104.065 99.7913C104.031 99.8355 103.988 99.8726 103.94 99.9005C103.387 100.241 102.891 100.666 102.468 101.16C101.62 102.182 101.343 103.269 101.673 104.397C101.705 104.505 101.692 104.621 101.638 104.72C101.584 104.818 101.493 104.891 101.385 104.923C101.343 104.934 101.299 104.94 101.256 104.94Z" fill="black"/>
<path d="M104.172 105.787C104.103 105.787 104.035 105.77 103.974 105.738C103.913 105.705 103.861 105.658 103.822 105.601C103.593 105.29 103.435 104.933 103.357 104.554C103.279 104.176 103.285 103.785 103.373 103.409C103.797 101.624 105.953 100.409 106.046 100.358C106.095 100.327 106.15 100.306 106.207 100.297C106.264 100.288 106.322 100.291 106.378 100.305C106.434 100.319 106.487 100.345 106.533 100.38C106.578 100.415 106.616 100.459 106.645 100.51C106.673 100.56 106.69 100.616 106.696 100.674C106.702 100.731 106.696 100.789 106.678 100.844C106.661 100.899 106.632 100.95 106.594 100.994C106.556 101.038 106.51 101.073 106.458 101.098C106.424 101.119 104.533 102.192 104.198 103.606C104.138 103.867 104.136 104.139 104.192 104.401C104.248 104.663 104.361 104.91 104.522 105.124C104.566 105.188 104.591 105.262 104.596 105.339C104.6 105.416 104.583 105.493 104.547 105.561C104.511 105.629 104.457 105.687 104.391 105.726C104.325 105.766 104.249 105.787 104.172 105.787Z" fill="black"/>
<path d="M110.073 106.425C109.969 106.425 109.868 106.388 109.79 106.319C109.712 106.25 109.661 106.155 109.649 106.051C109.566 105.373 108.186 104.567 107.529 104.29L106.944 104.04L108.975 102.074C109.056 102.002 109.163 101.964 109.272 101.969C109.381 101.973 109.484 102.019 109.56 102.097C109.636 102.176 109.678 102.28 109.679 102.389C109.68 102.498 109.639 102.603 109.564 102.683L108.426 103.785C109.17 104.184 110.37 104.972 110.488 105.95C110.502 106.061 110.47 106.173 110.401 106.261C110.332 106.349 110.231 106.407 110.12 106.42L110.073 106.425Z" fill="black"/>
<path d="M95.3808 176.006H85.2833C84.9116 176.006 84.5552 175.859 84.2924 175.596C84.0296 175.333 83.8819 174.977 83.8819 174.605C83.8825 173.08 84.4884 171.618 85.5665 170.54C86.6446 169.462 88.1067 168.856 89.6314 168.855C91.1562 168.855 92.6186 169.461 93.6968 170.539C94.7751 171.618 95.3808 173.08 95.3808 174.605V176.006Z" fill="black"/>
<path d="M134.179 63.8477C134.067 63.8539 133.957 63.8151 133.873 63.74C133.789 63.6649 133.738 63.5595 133.732 63.447C133.726 63.3346 133.765 63.2243 133.84 63.1404C133.915 63.0565 134.02 63.0059 134.133 62.9997L140.819 62.2598C140.932 62.2475 141.044 62.2803 141.133 62.351C141.221 62.4218 141.278 62.5247 141.29 62.6372C141.302 62.7496 141.269 62.8624 141.199 62.9507C141.128 63.0389 141.025 63.0955 140.913 63.1078L134.226 63.8456L134.179 63.8477Z" fill="black"/>
<path d="M133.844 72.8492L134.143 75.3932L138.57 72.4739C138.601 72.454 138.624 72.4239 138.636 72.3887C138.647 72.3536 138.646 72.3156 138.633 72.281C138.62 72.2464 138.595 72.2175 138.563 72.1989C138.531 72.1804 138.494 72.1735 138.457 72.1793L133.844 72.8492Z" fill="black"/>
<path d="M135.006 92.1629C134.947 92.1633 134.89 92.1518 134.836 92.129C134.734 92.0827 134.655 91.9982 134.615 91.8938C134.576 91.7894 134.579 91.6735 134.624 91.5714L136.362 87.5688C136.384 87.517 136.416 87.47 136.456 87.4305C136.496 87.391 136.543 87.3598 136.595 87.3388C136.647 87.3178 136.703 87.3074 136.759 87.3081C136.815 87.3088 136.871 87.3207 136.922 87.343C136.974 87.3653 137.021 87.3977 137.059 87.4381C137.098 87.4786 137.129 87.5265 137.149 87.5788C137.169 87.6312 137.179 87.6871 137.178 87.7432C137.176 87.7994 137.164 87.8547 137.141 87.9059L135.4 91.9085C135.367 91.985 135.311 92.0499 135.241 92.0952C135.171 92.1404 135.089 92.164 135.006 92.1629Z" fill="black"/>
<path d="M93.869 153.299C93.7566 153.299 93.6487 153.254 93.5692 153.174C93.4897 153.095 93.445 152.987 93.445 152.875V118.378C93.445 118.266 93.4897 118.158 93.5692 118.078C93.6487 117.999 93.7566 117.954 93.869 117.954C93.9815 117.954 94.0893 117.999 94.1689 118.078C94.2484 118.158 94.293 118.266 94.293 118.378V152.875C94.293 152.987 94.2484 153.095 94.1689 153.174C94.0893 153.254 93.9815 153.299 93.869 153.299Z" fill="white"/>
<path d="M201.267 63.3314H162.706C160.116 63.3314 158.017 65.4309 158.017 68.0208V91.5698C158.017 94.1597 160.116 96.2592 162.706 96.2592H201.267C203.857 96.2592 205.956 94.1597 205.956 91.5698V68.0208C205.956 65.4309 203.857 63.3314 201.267 63.3314Z" fill="white"/>
<path d="M201.267 96.6824H162.706C161.35 96.6807 160.051 96.1415 159.092 95.1829C158.133 94.2243 157.594 92.9246 157.592 91.569V68.02C157.594 66.6644 158.133 65.3647 159.092 64.4061C160.051 63.4475 161.35 62.9083 162.706 62.9066H201.267C202.622 62.9083 203.922 63.4475 204.88 64.4061C205.839 65.3647 206.378 66.6644 206.38 68.02V91.569C206.378 92.9246 205.839 94.2243 204.88 95.1829C203.922 96.1415 202.622 96.6807 201.267 96.6824ZM162.706 63.7546C161.575 63.7557 160.491 64.2055 159.691 65.0051C158.891 65.8048 158.442 66.8891 158.44 68.02V91.569C158.442 92.6999 158.891 93.7842 159.691 94.5839C160.491 95.3836 161.575 95.8333 162.706 95.8344H201.267C202.397 95.8327 203.481 95.3828 204.281 94.5832C205.08 93.7837 205.53 92.6997 205.532 91.569V68.02C205.531 66.8891 205.081 65.8048 204.281 65.0051C203.482 64.2055 202.397 63.7557 201.267 63.7546H162.706Z" fill="black"/>
<path d="M184.156 75.37C184.947 75.37 185.587 74.7293 185.587 73.939C185.587 73.1487 184.947 72.508 184.156 72.508C183.366 72.508 182.725 73.1487 182.725 73.939C182.725 74.7293 183.366 75.37 184.156 75.37Z" fill="#FFC1EB"/>
<path d="M189.112 75.37C189.903 75.37 190.543 74.7293 190.543 73.939C190.543 73.1487 189.903 72.508 189.112 72.508C188.322 72.508 187.681 73.1487 187.681 73.939C187.681 74.7293 188.322 75.37 189.112 75.37Z" fill="#FFC1EB"/>
<path d="M194.071 75.37C194.861 75.37 195.502 74.7293 195.502 73.939C195.502 73.1487 194.861 72.508 194.071 72.508C193.281 72.508 192.64 73.1487 192.64 73.939C192.64 74.7293 193.281 75.37 194.071 75.37Z" fill="#FFC1EB"/>
<path d="M199.03 75.37C199.82 75.37 200.461 74.7293 200.461 73.939C200.461 73.1487 199.82 72.508 199.03 72.508C198.239 72.508 197.599 73.1487 197.599 73.939C197.599 74.7293 198.239 75.37 199.03 75.37Z" fill="#FFC1EB"/>
<path d="M170.325 80.9288C171.86 80.9288 173.104 79.6844 173.104 78.1494C173.104 76.6145 171.86 75.3701 170.325 75.3701C168.79 75.3701 167.545 76.6145 167.545 78.1494C167.545 79.6844 168.79 80.9288 170.325 80.9288Z" fill="#6DC8C2"/>
<path d="M170.079 82.3489C169.153 82.3426 168.241 82.5716 167.427 83.0143C166.614 83.4571 165.926 84.099 165.428 84.8801C166.765 85.9385 168.409 86.5361 170.114 86.5838C171.819 86.6316 173.493 86.1269 174.887 85.1451C174.41 84.2909 173.712 83.5806 172.866 83.0887C172.02 82.5968 171.058 82.3412 170.079 82.3489Z" fill="#6DC8C2"/>
<path d="M200.461 79.7121H182.441C182.328 79.7121 182.22 79.6674 182.141 79.5879C182.061 79.5084 182.017 79.4006 182.017 79.2881C182.017 79.1757 182.061 79.0678 182.141 78.9883C182.22 78.9088 182.328 78.8641 182.441 78.8641H200.461C200.573 78.8641 200.681 78.9088 200.761 78.9883C200.84 79.0678 200.885 79.1757 200.885 79.2881C200.885 79.4006 200.84 79.5084 200.761 79.5879C200.681 79.6674 200.573 79.7121 200.461 79.7121Z" fill="black"/>
<path d="M200.461 83.0407H182.441C182.328 83.0407 182.22 82.9961 182.141 82.9166C182.061 82.837 182.017 82.7292 182.017 82.6167C182.017 82.5043 182.061 82.3965 182.141 82.3169C182.22 82.2374 182.328 82.1927 182.441 82.1927H200.461C200.573 82.1927 200.681 82.2374 200.761 82.3169C200.84 82.3965 200.885 82.5043 200.885 82.6167C200.885 82.7292 200.84 82.837 200.761 82.9166C200.681 82.9961 200.573 83.0407 200.461 83.0407Z" fill="black"/>
<path d="M193.768 86.3734H182.449C182.337 86.3734 182.229 86.3288 182.15 86.2492C182.07 86.1697 182.025 86.0619 182.025 85.9494C182.025 85.837 182.07 85.7291 182.15 85.6496C182.229 85.5701 182.337 85.5254 182.449 85.5254H193.768C193.881 85.5254 193.988 85.5701 194.068 85.6496C194.148 85.7291 194.192 85.837 194.192 85.9494C194.192 86.0619 194.148 86.1697 194.068 86.2492C193.988 86.3288 193.881 86.3734 193.768 86.3734Z" fill="black"/>
<path d="M170.157 86.7849C168.679 86.7849 167.233 86.3464 166.003 85.5248C164.774 84.7032 163.815 83.5354 163.249 82.1691C162.683 80.8028 162.535 79.2994 162.824 77.849C163.112 76.3985 163.825 75.0662 164.87 74.0205C165.916 72.9748 167.248 72.2626 168.699 71.9741C170.149 71.6856 171.653 71.8337 173.019 72.3996C174.385 72.9656 175.553 73.9239 176.375 75.1536C177.196 76.3832 177.635 77.8288 177.635 79.3077C177.632 81.2901 176.844 83.1906 175.442 84.5924C174.04 85.9942 172.14 86.7827 170.157 86.7849ZM170.157 72.6806C168.846 72.6806 167.564 73.0694 166.474 73.7979C165.384 74.5265 164.534 75.5619 164.033 76.7734C163.531 77.9849 163.4 79.3179 163.656 80.6039C163.912 81.8899 164.543 83.0711 165.471 83.9981C166.398 84.9252 167.579 85.5564 168.865 85.8119C170.152 86.0675 171.485 85.9359 172.696 85.4338C173.907 84.9317 174.942 84.0817 175.67 82.9913C176.399 81.9008 176.787 80.6189 176.787 79.3077C176.784 77.5504 176.085 75.8657 174.842 74.6233C173.6 73.3809 171.915 72.6822 170.157 72.6806Z" fill="black"/>
<path d="M179.083 109.343H165.095C163.32 109.343 161.881 110.782 161.881 112.557V126.545C161.881 128.32 163.32 129.759 165.095 129.759H179.083C180.858 129.759 182.297 128.32 182.297 126.545V112.557C182.297 110.782 180.858 109.343 179.083 109.343Z" fill="white"/>
<path d="M179.083 130.182H165.091C164.126 130.182 163.201 129.798 162.518 129.116C161.836 128.434 161.452 127.509 161.451 126.544V112.552C161.452 111.588 161.836 110.663 162.518 109.981C163.201 109.299 164.126 108.915 165.091 108.915H179.083C180.048 108.915 180.973 109.299 181.655 109.981C182.338 110.663 182.722 111.588 182.723 112.552V126.544C182.722 127.509 182.338 128.434 181.655 129.116C180.973 129.798 180.048 130.182 179.083 130.182ZM165.091 109.767C164.351 109.767 163.641 110.061 163.118 110.584C162.594 111.107 162.3 111.817 162.299 112.557V126.549C162.3 127.289 162.594 127.998 163.118 128.521C163.641 129.044 164.351 129.338 165.091 129.339H179.083C179.823 129.338 180.532 129.044 181.056 128.521C181.579 127.998 181.874 127.289 181.875 126.549V112.557C181.874 111.817 181.579 111.107 181.056 110.584C180.532 110.061 179.823 109.767 179.083 109.767H165.091Z" fill="black"/>
<path d="M168.824 124.382V119.585C168.822 119.499 168.844 119.414 168.887 119.339C168.93 119.264 168.992 119.203 169.068 119.161C169.738 118.786 171.58 117.537 171.794 115.008C171.873 114.094 172.273 113.664 172.695 113.56C173.183 113.441 173.685 113.95 173.755 114.018C174.902 115.213 173.704 117.954 173.594 118.2L175.11 118.16C175.407 118.153 175.702 118.203 175.979 118.31C176.256 118.417 176.509 118.577 176.724 118.781C176.939 118.986 177.112 119.231 177.232 119.502C177.352 119.774 177.418 120.066 177.425 120.363L177.478 122.534C177.485 122.835 177.432 123.134 177.322 123.414C177.212 123.694 177.047 123.949 176.837 124.164C176.627 124.38 176.376 124.551 176.098 124.668C175.821 124.784 175.523 124.845 175.222 124.845H169.299C169.175 124.845 169.056 124.796 168.968 124.71C168.879 124.624 168.827 124.506 168.824 124.382Z" fill="#6DC8C2"/>
<path d="M168.877 118.548H167.461C167.173 118.548 166.939 118.782 166.939 119.07V124.751C166.939 125.039 167.173 125.273 167.461 125.273H168.877C169.165 125.273 169.398 125.039 169.398 124.751V119.07C169.398 118.782 169.165 118.548 168.877 118.548Z" fill="#FFC1EB"/>
<path d="M49.3664 55.1863C52.1752 55.1863 54.4522 52.9092 54.4522 50.1004C54.4522 47.2915 52.1752 45.0145 49.3664 45.0145C46.5575 45.0145 44.2805 47.2915 44.2805 50.1004C44.2805 52.9092 46.5575 55.1863 49.3664 55.1863Z" fill="#FFBB45"/>
<path d="M49.6502 64.8461C52.2103 59.9842 51.4236 54.5357 47.8929 52.6766C44.3622 50.8174 39.4247 53.2516 36.8645 58.1135C34.3044 62.9755 35.0912 68.4239 38.6218 70.2831C42.1525 72.1422 47.09 69.708 49.6502 64.8461Z" fill="#FFBB45"/>
<path d="M48.5096 82.852C49.5489 75.503 45.5492 68.8608 39.5762 68.0162C33.6032 67.1715 27.9186 72.4442 26.8794 79.7931C25.8402 87.1421 29.8398 93.7843 35.8128 94.6289C41.7858 95.4736 47.4704 90.2009 48.5096 82.852Z" fill="#FFBB45"/>
<path d="M10.7464 71.4693C13.3433 71.4693 15.4486 69.3641 15.4486 66.7672C15.4486 64.1702 13.3433 62.065 10.7464 62.065C8.14946 62.065 6.04424 64.1702 6.04424 66.7672C6.04424 69.3641 8.14946 71.4693 10.7464 71.4693Z" fill="#FFBB45"/>
<path d="M15.8003 85.9006C19.3423 85.0712 21.3391 80.6643 20.2603 76.0575C19.1815 71.4508 15.4356 68.3887 11.8936 69.2181C8.35163 70.0476 6.35483 74.4545 7.43364 79.0613C8.51244 83.668 12.2583 86.7301 15.8003 85.9006Z" fill="#FFBB45"/>
<path d="M20.2321 106.641C25.3749 105.755 28.6605 99.9068 27.5707 93.5778C26.4809 87.2489 21.4284 82.8362 16.2857 83.7217C11.1429 84.6072 7.85731 90.4557 8.94709 96.7847C10.0369 103.114 15.0894 107.526 20.2321 106.641Z" fill="#FFBB45"/>
<path d="M26.3344 127.594C26.2305 127.595 26.13 127.557 26.0519 127.489C25.9737 127.421 25.9234 127.326 25.9104 127.223C23.4067 107.361 16.5082 90.0996 16.4382 89.9364C16.4154 89.8843 16.4033 89.8283 16.4026 89.7715C16.4018 89.7147 16.4125 89.6583 16.434 89.6057C16.4555 89.5531 16.4873 89.5054 16.5276 89.4654C16.5679 89.4253 16.6158 89.3938 16.6685 89.3726C16.7212 89.3514 16.7776 89.3411 16.8344 89.3421C16.8912 89.3432 16.9472 89.3556 16.9991 89.3788C17.051 89.4019 17.0977 89.4352 17.1365 89.4767C17.1752 89.5182 17.2052 89.5671 17.2248 89.6205C17.2947 89.7922 24.2335 107.142 26.7648 127.117C26.7719 127.172 26.768 127.229 26.7533 127.283C26.7386 127.336 26.7133 127.387 26.6791 127.431C26.6448 127.475 26.6021 127.512 26.5535 127.54C26.5049 127.567 26.4513 127.585 26.3959 127.592L26.3344 127.594Z" fill="black"/>
<path d="M31.4566 127.812C31.3441 127.812 31.2363 127.768 31.1568 127.688C31.0772 127.609 31.0326 127.501 31.0326 127.388C30.9796 107.46 33.7886 91.4819 36.1524 81.5773C38.7176 70.8353 41.34 64.717 41.3612 64.6597C41.4069 64.5581 41.4908 64.4785 41.5947 64.4382C41.6986 64.398 41.8142 64.4002 41.9165 64.4445C42.0187 64.4888 42.0994 64.5716 42.1411 64.675C42.1828 64.7783 42.1821 64.8939 42.1392 64.9968C42.1138 65.0561 39.5189 71.1236 36.9707 81.8041C34.6196 91.6579 31.8276 107.569 31.8827 127.384C31.8827 127.497 31.838 127.604 31.7585 127.684C31.679 127.763 31.5711 127.808 31.4587 127.808L31.4566 127.812Z" fill="black"/>
<path d="M33.8924 127.389H23.1992C19.9711 127.389 17.3543 130.006 17.3543 133.234V173.641C17.3543 176.869 19.9711 179.486 23.1992 179.486H33.8924C37.1205 179.486 39.7373 176.869 39.7373 173.641V133.234C39.7373 130.006 37.1205 127.389 33.8924 127.389Z" fill="#6DC8C2"/>
<path d="M18.4441 176.702C18.3612 176.702 18.28 176.678 18.2106 176.632C18.1413 176.587 18.0869 176.522 18.0541 176.446C18.0088 176.344 18.0057 176.228 18.0454 176.123C18.0851 176.019 18.1644 175.934 18.2661 175.888C21.5834 174.451 25.153 173.688 28.7678 173.641C32.3827 173.594 35.9708 174.266 39.324 175.617C39.4249 175.661 39.5046 175.743 39.5462 175.845C39.5879 175.947 39.5882 176.061 39.5472 176.163C39.5061 176.265 39.4269 176.348 39.3263 176.392C39.2257 176.437 39.1116 176.441 39.0081 176.403C35.7585 175.094 32.2813 174.444 28.7782 174.489C25.2752 174.534 21.8159 175.274 18.601 176.666C18.5515 176.688 18.4983 176.7 18.4441 176.702Z" fill="black"/>
<path d="M36.6339 136.031H20.7762C20.6638 136.031 20.556 135.987 20.4764 135.907C20.3969 135.828 20.3522 135.72 20.3522 135.607C20.3522 135.495 20.3969 135.387 20.4764 135.308C20.556 135.228 20.6638 135.183 20.7762 135.183H36.6339C36.7463 135.183 36.8541 135.228 36.9337 135.308C37.0132 135.387 37.0578 135.495 37.0578 135.607C37.0578 135.72 37.0132 135.828 36.9337 135.907C36.8541 135.987 36.7463 136.031 36.6339 136.031Z" fill="black"/>
<path d="M32.5656 174.486C32.4531 174.486 32.3453 174.441 32.2658 174.362C32.1863 174.282 32.1416 174.174 32.1416 174.062V135.732C32.1416 135.62 32.1863 135.512 32.2658 135.433C32.3453 135.353 32.4531 135.308 32.5656 135.308C32.6781 135.308 32.7859 135.353 32.8654 135.433C32.9449 135.512 32.9896 135.62 32.9896 135.732V174.062C32.9896 174.174 32.9449 174.282 32.8654 174.362C32.7859 174.441 32.6781 174.486 32.5656 174.486Z" fill="black"/>
<path d="M24.8335 174.486C24.7211 174.486 24.6132 174.441 24.5337 174.362C24.4542 174.282 24.4095 174.174 24.4095 174.062V135.732C24.4095 135.62 24.4542 135.512 24.5337 135.433C24.6132 135.353 24.7211 135.308 24.8335 135.308C24.946 135.308 25.0538 135.353 25.1333 135.433C25.2128 135.512 25.2575 135.62 25.2575 135.732V174.062C25.2575 174.174 25.2128 174.282 25.1333 174.362C25.0538 174.441 24.946 174.486 24.8335 174.486Z" fill="black"/>
</svg>
