<svg width="200" height="200" viewBox="0 0 200 200" fill="none" xmlns="http://www.w3.org/2000/svg">
<path d="M156.6 67.6C156.6 67.6 116.1 61.9 107.5 58.4L99.7996 57.4C99.7996 57.4 83.9996 52 74.3996 44.2L74.9996 51.6L66.8996 50L68.6996 56.2L58.8996 56.7L60.3996 63.4L50.5996 64.9L54.2996 72.2L45.8996 71.3L46.5996 79.3L40.0996 82.5L52.9996 83.7L47.9996 97.2C47.9996 97.2 68.1996 112.1 105.8 115.4C127 116.9 140.3 114.5 140.3 114.5L135.7 106.9L143.4 104.9L140.2 97.2H149.1L144.6 89.7L155.8 89.2L149.3 82L159.2 80.2L151.4 73.1L156.6 67.6Z" fill="#FFFAF0"/>
<path d="M100.499 70.1L103.199 67.6L107.299 73.1L106.499 19.8L103.099 11.9L100.199 20L100.499 70.1Z" fill="#FED604"/>
<path d="M40.0996 83.4L46.5996 96.5L47.7996 97.3L52.1996 84.2L40.0996 83.4Z" fill="#FEE45E"/>
<path d="M43.8004 91.6C43.8004 91.6 34.7004 104.7 29.4004 109.4L40.7004 111.3L36.0004 113.3L41.4004 118.9L30.5004 123.4L44.8004 124.1L41.3004 133.9L53.5004 131.8L141.5 137L140.6 131.6L146.6 132.8L143.6 126.7L151.5 123.4L157.3 124.4L157.8 114.8L161.6 117.4L169.5 96.1C169.5 96.1 167.8 85.7 156.7 81.8L151.9 85.2L155.4 89.3L150.2 89.7L147.5 94L148.8 97.2L145.6 97.7L142.1 101.9L143 104L140.2 106L140.7 108.5L138.2 110.6L140.3 114.4C140.3 114.4 129.8 116.7 111.3 115.9C92.8004 115 79.5004 111.4 79.5004 111.4C79.5004 111.4 57.0004 104.8 47.7004 97.3L43.8004 91.6Z" fill="#FFFAF0"/>
<path d="M75.1992 114.9C75.1992 114.9 95.7992 122.6 114.599 122.6C133.499 122.6 150.999 121.4 157.399 124.5L157.899 114.9C157.899 114.9 147.899 109.7 138.199 110.8L140.299 114.6C140.299 114.6 126.599 116.1 120.599 116C114.699 115.6 75.1992 114.9 75.1992 114.9Z" fill="#FED604"/>
<path d="M29.8008 109.5L60.5008 113L61.5008 105.3L48.5008 98L44.3008 92.3C44.3008 92.3 31.3008 107.7 29.8008 109.5Z" fill="#FED604"/>
<path d="M61.4994 105.3C61.4994 105.3 59.6994 118.7 60.7994 123.7C60.7994 123.7 72.2994 113.1 81.9994 112.3L61.4994 105.3Z" fill="#FEE45E"/>
<path d="M51.3008 132.4L141.501 137.1L139.801 131.1L88.3008 126.4L51.3008 132.4Z" fill="#F9B5FF"/>
<path d="M44.8008 124.2L41.3008 134L88.4008 126.3L44.8008 124.2Z" fill="#002140" stroke="#002140" stroke-miterlimit="10"/>
<path d="M138.1 110.8L143.2 109.5L140.4 106L136 107.4L138.1 110.8Z" fill="#0B1B34" stroke="#002140" stroke-miterlimit="10"/>
<path d="M140.4 97.5L142.2 102.4L146.5 101L145.6 97.5L139.9 97.8" fill="#0B1B34"/>
<path d="M144 89.7L147.2 94.3L152.5 93.2L151.6 89.4L144 89.7Z" fill="#0B1B34" stroke="#002140" stroke-miterlimit="10"/>
<path d="M149.4 82.3L151.4 84.9L158.4 84.6V82.5L156.6 80.9L149.4 82.3Z" fill="#0B1B34" stroke="#002140" stroke-miterlimit="10"/>
<path d="M53.1 101L50.5 105.9L60.1 109.3L61.7 104.9L53.1 101Z" fill="#002140" stroke="#002140" stroke-miterlimit="10"/>
<path d="M75.5996 114.3L99.7996 115.4L81.7996 112C81.7996 112 76.1996 112.2 75.5996 114.3Z" fill="#002140" stroke="#002140" stroke-miterlimit="10"/>
<path d="M106.4 128V132L112.3 132.5L112.9 128.1L106.4 128Z" fill="#002140"/>
<path d="M128.5 129.6L128.8 133.5L135.2 133.8L134.9 130.8L128.5 129.6Z" fill="#0B1B34" stroke="#002140" stroke-miterlimit="10"/>
<path d="M63.5001 81.7C63.6001 81.6 63.6001 81.5 63.7001 81.4C63.9001 80.7 63.4001 80.2 62.8001 79.9C62.5001 79.7 62.1001 79.6 61.7001 79.3C61.3001 79 60.8001 79 60.4001 79.2C60.2001 79.5 60.0001 80 60.0001 80.3C60.0001 80.3 60.1001 80.7 60.2001 80.7C60.2001 80.7 59.1001 81.1 58.7001 81.9L57.6001 81.3C57.6001 81.3 56.7001 80.9 56.2001 81.8C55.7001 82.7 56.6001 83.3 56.6001 83.3L57.7001 83.9C57.7001 83.9 56.4001 87.2 59.6001 88.9C63.8001 91.1 65.4001 83.4 68.0001 84.7C68.3001 84.9 69.4001 85.8 68.2001 88.1C66.7001 90.9 65.0001 88.4 64.0001 90.1C63.5001 91.1 64.1001 91.7 64.7001 92.1L66.8001 93.2C66.8001 93.2 67.7001 93.6 68.2001 92.7C68.7001 91.8 68.4001 91.3 68.4001 91.3C68.4001 91.3 69.4001 91 69.9001 90.1C70.3001 90.4 70.8001 90.5 71.2001 90.8C72.0001 91.2 73.1001 91.9 73.7001 90.9C74.2001 90 73.4001 89.5 72.8001 89.1C72.2001 88.8 71.6001 88.5 71.1001 88.2C71.2001 88.2 71.4001 86.7 71.4001 86.6C71.5001 85.4 71.1001 84.3 70.3001 83.4C69.4001 82.5 67.9001 81.8 66.5001 82.2C65.6001 82.5 64.8001 83.2 64.1001 84C63.5001 84.7 62.9001 85.5 62.3001 86.2C61.9001 86.6 61.3001 87.1 60.7001 86.8C59.4001 86.1 60.0001 84.6 60.4001 83.7C60.8001 82.8 61.4001 82.3 62.4001 82.3C62.8001 82.3 63.3001 82.1 63.5001 81.7Z" fill="#0B1B34"/>
<path d="M100.1 70.7V20.3L102.7 12.3C102.9 11.9 103.5 11.9 103.6 12.3L106.8 19.8V72.2" stroke="#002140" stroke-linecap="round" stroke-linejoin="round"/>
<path d="M94 75.9C95.3 73.1 95.4 69.7 94.2 66.8C96.4 67.7 98.3 69 99.9 70.8C101 69.6 101.9 68.6 103.1 67.4C104.6 69.4 105.8 71.4 107.3 73.5C108.7 71.4 110.7 69.8 113.2 69C112.8 70.5 112.3 71.9 112.3 73.4C112.3 74.9 112.9 76.5 114.1 77.4" stroke="#002140" stroke-linecap="round" stroke-linejoin="round"/>
<path d="M94.8996 71C93.0996 71.9 90.9996 72 89.0996 71.2" stroke="#002140" stroke-linecap="round" stroke-linejoin="round"/>
<path d="M39.5 83L46.7 96.5C46.7 96.5 78.5 121.9 140.3 114.6C138.6 111.9 135.6 106.9 135.6 106.9L143.3 105L139.8 97.3L149.4 97.1L144.2 89.4L155.4 88.9L148.9 81.9L159.4 80.2L151.2 73.2L157.2 67.4C157.2 67.4 131.2 64.6 107.3 58.1" stroke="#002140" stroke-linecap="round" stroke-linejoin="round"/>
<path d="M100.1 57.6C92.6 55.7 80.2 48.9 74.1 44L75.1 51.6L66.6 50.1L68.7 56.4H58.6L60.3 63.6L50.7 65L54.4 72.5L46 71.5L46.9 79.7L40 82.9C44.1 83.3 48.3 83.7 52.4 83.8C50.7 88.2 49.2 92.6 48.1 97.1" stroke="#002140" stroke-linecap="round" stroke-linejoin="round"/>
<path d="M74.8008 114.3C93.1008 115.8 112.401 116.8 123.801 116" stroke="#002140" stroke-linecap="round" stroke-linejoin="round"/>
<path d="M44.0992 91.6C44.0992 91.6 34.3992 105.9 28.6992 109.6C28.6992 109.6 42.5992 111.2 60.2992 112.9" stroke="#002140" stroke-linecap="round" stroke-linejoin="round"/>
<path d="M156.7 80.9C156.7 80.9 169.1 87.3 169.5 95.9L161.6 117.3C161.6 117.3 150.5 109.4 138.4 110.5" stroke="#002140" stroke-linecap="round" stroke-linejoin="round"/>
<path d="M42.5996 111.2L35.5996 113.4L41.2996 118.9L30.0996 123.2C30.0996 123.2 130.1 127 147 132.9L143.3 126.2L151.2 123.3" stroke="#002140" stroke-linecap="round" stroke-linejoin="round"/>
<path d="M73.9004 114.6C111.8 129 138.1 118.2 157.6 124.3V115.3" stroke="#002140" stroke-linecap="round" stroke-linejoin="round"/>
<path d="M45.2992 124L41.1992 133.7C41.1992 133.7 86.0992 127.4 91.3992 126.4" stroke="#002140" stroke-linecap="round" stroke-linejoin="round"/>
<path d="M50.1992 132.2L141.499 137.4L140.399 131.4" stroke="#002140" stroke-linecap="round" stroke-linejoin="round"/>
<path d="M97.6992 135.2C96.9992 136.1 97.0992 137.5 97.6992 138.4C98.2992 139.3 99.3992 140 100.399 140.3C101.799 140.6 103.399 140.6 104.599 139.7C105.799 138.8 106.499 137.2 105.999 135.9" stroke="#002140" stroke-linecap="round" stroke-linejoin="round"/>
<path d="M119.4 106.3C120.2 105.1 121.4 105.9 122.2 104.7C123 103.5 121.7 102.7 122.5 101.5C123.3 100.3 124.5 101.1 125.3 99.9C126.1 98.7 124.8 97.9 125.6 96.7C126.4 95.5 127.6 96.3 128.4 95.1C129.2 93.9 127.9 93.1 128.7 91.9C129.5 90.7 130.7 91.5 131.5 90.3C132.3 89.1 131 88.3 131.8 87.1C132.6 85.9 133.8 86.7 134.6 85.5C135.4 84.3 134.1 83.5 134.9 82.3C135.7 81.1 136.9 81.9 137.7 80.7C138.5 79.5 137.2 78.7 138 77.5C138.8 76.3 140 77.1 140.8 75.9" stroke="#002140" stroke-linecap="round" stroke-linejoin="round"/>
<path d="M111.801 104C112.601 102.8 113.801 103.6 114.601 102.4C115.401 101.2 114.101 100.4 114.901 99.2C115.701 98 116.901 98.8 117.701 97.6C118.501 96.4 117.201 95.6 118.001 94.4C118.801 93.2 120.001 94 120.801 92.8C121.601 91.6 120.301 90.8 121.101 89.6C121.901 88.4 123.101 89.2 123.901 88C124.701 86.8 123.401 86 124.201 84.8C125.001 83.6 126.201 84.4 127.001 83.2C127.801 82 126.501 81.2 127.301 80C128.101 78.8 129.301 79.6 130.101 78.4C130.901 77.2 129.601 76.4 130.401 75.2C131.201 74 132.401 74.8 133.201 73.6" stroke="#002140" stroke-linecap="round" stroke-linejoin="round"/>
<path d="M105.1 101C105.9 99.8 107.1 100.6 107.9 99.4C108.7 98.2 107.4 97.4 108.2 96.2C109 95 110.2 95.8 111 94.6C111.8 93.4 110.5 92.6 111.3 91.4C112.1 90.2 113.3 91 114.1 89.8C114.9 88.6 113.6 87.8 114.4 86.6C115.2 85.4 116.4 86.2 117.2 85C118 83.8 116.7 83 117.5 81.8C118.3 80.6 119.5 81.4 120.3 80.2C121.1 79 119.8 78.2 120.6 77C121.4 75.8 122.6 76.6 123.4 75.4C124.2 74.2 122.9 73.4 123.7 72.2C124.5 71 125.7 71.8 126.5 70.6" stroke="#002140" stroke-linecap="round" stroke-linejoin="round"/>
<path d="M73.6992 76.4C74.1992 75.6 75.4992 76.4 75.8992 75.6C76.3992 74.8 75.0992 74.1 75.5992 73.2C76.0992 72.4 77.3992 73.2 77.7992 72.4C78.2992 71.6 76.9992 70.9 77.4992 70C77.9992 69.2 79.2992 70 79.6992 69.2C80.1992 68.4 78.8992 67.7 79.3992 66.8C79.8992 66 81.1992 66.8 81.5992 66C82.0992 65.2 80.7992 64.5 81.2992 63.6C81.7992 62.8 83.0992 63.6 83.4992 62.8C83.9992 62 82.6992 61.3 83.1992 60.4C83.6992 59.6 84.9992 60.4 85.3992 59.6C85.8992 58.8 84.5992 58 85.0992 57.2C85.5992 56.4 86.8992 57.2 87.2992 56.4" stroke="#002140" stroke-linecap="round" stroke-linejoin="round"/>
<path d="M80.6992 95L93.0992 98.8L102.099 84.1L90.5992 80.3L80.6992 95Z" fill="#0B1B34"/>
<path d="M43.8008 105.3C44.0008 104.8 49.0008 98.5 49.0008 98.5" stroke="#002140" stroke-linecap="round" stroke-linejoin="round"/>
<path d="M53.4992 101L50.6992 106L60.4992 109L61.4992 105.3C61.4992 105.3 59.0992 117.6 60.5992 124C60.5992 124 72.9992 112 82.3992 112.4" stroke="#002140" stroke-linecap="round" stroke-linejoin="round"/>
<path d="M158.2 90.1C158.2 90.1 163.1 91.5 165.5 93.4L158.8 110.9C156.3 108.9 151.5 107.6 151.5 107.6L158.2 90.1Z" fill="#0B1B34"/>
<path d="M141.1 110.3L143.1 109.4L140.5 105.8" stroke="#002140" stroke-linecap="round" stroke-linejoin="round"/>
<path d="M142.4 102.4L146.3 101.3L145.4 97.4" stroke="#002140" stroke-linecap="round" stroke-linejoin="round"/>
<path d="M147.6 94.3L153.1 93L151.7 89.4" stroke="#002140" stroke-linecap="round" stroke-linejoin="round"/>
<path d="M48 118.7L50.6 112.4" stroke="#002140" stroke-linecap="round" stroke-linejoin="round"/>
<path d="M51.3008 119.2L53.9008 112.9" stroke="#002140" stroke-linecap="round" stroke-linejoin="round"/>
<path d="M54 128.9L55.9 124.5" stroke="#002140" stroke-linecap="round" stroke-linejoin="round"/>
<path d="M94.5996 132L94.8996 127.3" stroke="#002140" stroke-linecap="round" stroke-linejoin="round"/>
<path d="M99 132.2L99.3 127.5" stroke="#002140" stroke-linecap="round" stroke-linejoin="round"/>
<path d="M112.8 128.4L112.5 132.6L106.4 132.1L106.6 127.7" stroke="#002140" stroke-linecap="round" stroke-linejoin="round"/>
<path d="M135 130.9L135.3 134.1L129 133.6L128.5 130.1" stroke="#002140" stroke-linecap="round" stroke-linejoin="round"/>
<path d="M119.1 132.4V129.2" stroke="#002140" stroke-linecap="round" stroke-linejoin="round"/>
<path d="M123.5 132.9V129.7" stroke="#002140" stroke-linecap="round" stroke-linejoin="round"/>
<path d="M108.1 118.9V116.1" stroke="#002140" stroke-linecap="round" stroke-linejoin="round"/>
<path d="M113 119.4V116.6" stroke="#002140" stroke-linecap="round" stroke-linejoin="round"/>
</svg>
