<svg width="212" height="212" viewBox="0 0 212 212" fill="none" xmlns="http://www.w3.org/2000/svg">
<g filter="url(#filter0_d_1067_27020)">
<g filter="url(#filter1_d_1067_27020)">
<path d="M133.282 89.617L108.841 88.487C108.841 88.487 102.875 87.3613 98.4762 96.066C98.4762 96.066 97.8402 97.6793 99.6973 98.2666C99.6973 98.2666 100.041 100.76 102.436 99.4389C102.436 99.4389 103.903 101.629 106.006 99.8248C106.006 99.8248 107.914 101.097 112.655 97.7281C117.609 99.9004 122.81 101.456 128.143 102.36C129.177 102.534 130.191 102.68 131.186 102.799L135.002 103.405C136.291 103.611 137.608 103.56 138.878 103.256C140.147 102.952 141.345 102.402 142.402 101.635C143.458 100.868 144.354 99.9011 145.037 98.7884C145.72 97.6758 146.177 96.4395 146.382 95.1502L133.282 89.617Z" fill="white"/>
</g>
<path d="M136.585 103.957C136.032 103.956 135.48 103.912 134.934 103.825L131.118 103.217C130.115 103.098 129.085 102.95 128.071 102.778C122.784 101.881 117.625 100.347 112.705 98.2113C108.845 100.899 106.795 100.596 106.063 100.331C105.398 100.834 104.717 101.042 104.035 100.948C103.369 100.833 102.764 100.49 102.322 99.9794C101.586 100.314 100.942 100.348 100.414 100.079C99.7289 99.7335 99.447 98.9915 99.3431 98.595C98.8229 98.414 98.3929 98.0387 98.1432 97.5478C97.9201 97.0306 97.9011 96.4481 98.0902 95.9175L98.1071 95.8836C102.483 87.2297 108.357 87.9823 108.898 88.0735L133.388 89.2056L146.863 94.8978L146.812 95.2264C146.424 97.6587 145.183 99.8736 143.311 101.475C141.439 103.076 139.059 103.959 136.596 103.965L136.585 103.957ZM112.606 97.2425L112.818 97.34C117.741 99.496 122.909 101.042 128.207 101.943C129.205 102.11 130.223 102.256 131.228 102.377L135.061 102.988C137.5 103.377 139.994 102.803 142.018 101.388C144.041 99.9717 145.435 97.8247 145.905 95.4002L133.185 90.0302L108.79 88.9003H108.76C108.531 88.8579 103.051 87.9696 98.864 96.2312C98.7596 96.5407 98.7716 96.8777 98.8979 97.1789C98.9969 97.3497 99.1301 97.4983 99.2892 97.6154C99.4482 97.7325 99.6296 97.8156 99.8222 97.8594L100.079 97.94L100.115 98.205C100.115 98.205 100.242 99.0402 100.785 99.3116C101.134 99.4833 101.62 99.4028 102.228 99.0657L102.57 98.877L102.782 99.2014C102.782 99.2014 103.327 99.99 104.149 100.098C104.654 100.168 105.184 99.9646 105.722 99.5003L105.968 99.2883L106.235 99.4685C106.235 99.4685 108.033 100.486 112.402 97.3782L112.606 97.2425Z" fill="black"/>
<path d="M99.6969 98.7919C99.5963 98.7914 99.4979 98.7628 99.4128 98.7092C99.2942 98.6339 99.2103 98.5145 99.1797 98.3773C99.1491 98.2402 99.1742 98.0965 99.2495 97.9778L101.919 93.7612C101.957 93.702 102.006 93.6509 102.064 93.6108C102.121 93.5707 102.186 93.5423 102.255 93.5274C102.324 93.5124 102.395 93.5111 102.464 93.5236C102.533 93.5361 102.599 93.562 102.658 93.6C102.718 93.638 102.769 93.6873 102.809 93.7451C102.849 93.8028 102.877 93.8679 102.892 93.9366C102.907 94.0053 102.909 94.0763 102.896 94.1455C102.884 94.2147 102.858 94.2808 102.82 94.3399L100.151 98.5566C100.101 98.6313 100.034 98.6922 99.9544 98.7334C99.8749 98.7746 99.7863 98.7947 99.6969 98.7919Z" fill="black"/>
<path d="M102.436 99.9688C102.339 99.9695 102.245 99.9437 102.162 99.8943C102.079 99.8449 102.011 99.7737 101.966 99.6884C101.921 99.6032 101.9 99.5072 101.905 99.4109C101.911 99.3145 101.942 99.2216 101.997 99.142L104.598 95.326C104.638 95.2685 104.688 95.2193 104.746 95.1813C104.804 95.1432 104.87 95.1169 104.938 95.104C105.006 95.0911 105.077 95.0918 105.145 95.1061C105.213 95.1204 105.278 95.1479 105.335 95.1872C105.393 95.2264 105.442 95.2766 105.48 95.3349C105.518 95.3931 105.544 95.4583 105.557 95.5268C105.57 95.5952 105.569 95.6654 105.555 95.7336C105.541 95.8017 105.513 95.8664 105.474 95.9239L102.873 99.7399C102.824 99.811 102.759 99.869 102.683 99.909C102.607 99.9489 102.522 99.9695 102.436 99.9688Z" fill="black"/>
<path d="M106 100.355C105.889 100.355 105.782 100.32 105.692 100.255C105.635 100.215 105.587 100.163 105.55 100.104C105.514 100.045 105.489 99.9791 105.478 99.9103C105.466 99.8415 105.469 99.7712 105.485 99.7034C105.501 99.6356 105.53 99.5716 105.571 99.5152L107.971 96.1762C108.012 96.1197 108.063 96.0717 108.122 96.0351C108.182 95.9984 108.247 95.9738 108.316 95.9626C108.385 95.9513 108.455 95.9538 108.523 95.9697C108.591 95.9856 108.655 96.0147 108.711 96.0554C108.768 96.096 108.816 96.1474 108.852 96.2066C108.889 96.2658 108.913 96.3316 108.925 96.4003C108.936 96.469 108.934 96.5392 108.918 96.607C108.902 96.6748 108.873 96.7387 108.832 96.7953L106.43 100.134C106.381 100.203 106.316 100.259 106.242 100.297C106.167 100.335 106.084 100.355 106 100.355Z" fill="black"/>
<g filter="url(#filter2_d_1067_27020)">
<path d="M115.116 172.077L95.3347 180.201C95.0592 180.314 94.8248 180.508 94.663 180.758C94.5012 181.008 94.4197 181.302 94.4295 181.6C94.4417 181.983 94.6042 182.346 94.8818 182.611C95.1595 182.875 95.53 183.02 95.9135 183.014L119.445 182.59L119.172 185.282C119.156 185.437 119.17 185.593 119.215 185.742C119.259 185.891 119.333 186.03 119.432 186.15C119.53 186.271 119.652 186.37 119.789 186.443C119.927 186.516 120.077 186.561 120.232 186.575L125.445 187.046C125.741 187.074 126.036 186.989 126.272 186.809C126.508 186.628 126.667 186.366 126.717 186.073L128.765 174.311L115.116 172.077Z" fill="#C7B8F8"/>
</g>
<path d="M170.659 169.896L162.412 189.612C162.298 189.887 162.27 190.191 162.332 190.482C162.395 190.774 162.545 191.039 162.762 191.243C163.043 191.504 163.415 191.645 163.798 191.636C164.182 191.626 164.546 191.465 164.812 191.19L181.136 174.253L182.845 176.352C182.943 176.473 183.065 176.573 183.202 176.646C183.34 176.72 183.491 176.766 183.646 176.78C183.801 176.795 183.958 176.779 184.107 176.733C184.256 176.686 184.394 176.611 184.513 176.511L188.541 173.157C188.769 172.968 188.917 172.7 188.956 172.407C188.995 172.115 188.923 171.818 188.753 171.575L181.885 161.811L170.659 169.896Z" fill="#C7B8F8"/>
<path d="M115.328 114.87C115.229 114.871 115.132 114.844 115.048 114.792C114.964 114.741 114.895 114.667 114.851 114.578C114.807 114.49 114.789 114.391 114.798 114.293C114.807 114.194 114.844 114.101 114.904 114.022L125.105 100.586C125.312 100.307 125.438 99.977 125.469 99.6315C125.499 99.2859 125.432 98.9387 125.277 98.6288C125.121 98.3188 124.882 98.0583 124.587 97.8763C124.291 97.6944 123.951 97.5982 123.604 97.5985H108.27C108.13 97.5985 107.995 97.5426 107.895 97.4432C107.796 97.3438 107.74 97.209 107.74 97.0685C107.74 96.9279 107.796 96.7931 107.895 96.6937C107.995 96.5943 108.13 96.5385 108.27 96.5385H123.613C124.156 96.5386 124.689 96.6901 125.152 96.9758C125.615 97.2615 125.989 97.6702 126.233 98.1564C126.476 98.6425 126.58 99.1868 126.532 99.7284C126.484 100.27 126.287 100.788 125.962 101.224L115.752 114.662C115.702 114.727 115.637 114.779 115.564 114.815C115.49 114.851 115.41 114.87 115.328 114.87Z" fill="black"/>
<g filter="url(#filter3_d_1067_27020)">
<path d="M140.845 108.663C138.271 110.147 136.375 112.573 135.557 115.43C134.74 118.286 135.064 121.348 136.463 123.969L161.99 171.72C162.274 172.265 162.671 172.742 163.155 173.12C163.638 173.497 164.198 173.767 164.795 173.91C166.703 174.353 169.533 174.076 171.64 169.865C171.82 169.942 175.005 171.245 177.826 169.253C180.285 167.514 180.461 164.688 180.476 164.345C180.76 164.442 182.677 165.063 184.515 163.963C184.591 163.917 184.667 163.87 184.74 163.819C186.66 162.513 187.101 159.859 185.829 157.915C176.565 143.741 165.884 127.283 156.132 112.335C154.534 109.888 152.06 108.145 149.217 107.463C146.375 106.782 143.379 107.213 140.845 108.669V108.663Z" fill="black"/>
</g>
<g filter="url(#filter4_d_1067_27020)">
<path d="M148.612 59.3602L144.003 61.2428C142.115 62.0122 139.999 62.0004 138.121 61.2101C136.242 60.4197 134.754 58.9155 133.984 57.0282L131.44 50.8187C131.005 49.7544 131.011 48.561 131.457 47.5011C131.902 46.4412 132.75 45.6016 133.814 45.1668L140.53 42.4235C142.418 41.6543 144.534 41.6664 146.413 42.4571C148.292 43.2479 149.78 44.7526 150.549 46.6402L152.226 50.7424C152.889 52.3647 152.88 54.1834 152.202 55.7993C151.524 57.4151 150.233 58.6958 148.612 59.3602Z" fill="black"/>
</g>
<path d="M135.892 52.833C135.038 52.8311 134.203 52.5837 133.486 52.1202C132.768 51.6567 132.2 50.9968 131.847 50.219L131.767 50.0431L131.847 49.8692C132.26 48.9636 132.971 48.2267 133.861 47.781L138.436 45.4978C138.988 45.223 139.59 45.062 140.205 45.0244C140.82 44.9867 141.437 45.0733 142.018 45.2787C142.6 45.4842 143.134 45.8045 143.589 46.2206C144.044 46.6366 144.41 47.1399 144.667 47.7005L145.682 49.9265L145.559 50.1194C145.236 50.6333 144.81 51.0752 144.308 51.4177C143.807 51.7601 143.24 51.9956 142.644 52.1098C142.047 52.2239 141.434 52.2141 140.841 52.0811C140.249 51.948 139.69 51.6945 139.199 51.3363C138.784 51.8041 138.275 52.1792 137.705 52.437C137.135 52.6949 136.518 52.8298 135.892 52.833ZM132.712 50.0452C132.994 50.5896 133.41 51.0528 133.922 51.3905C134.434 51.7283 135.023 51.9294 135.635 51.9747C136.246 52.02 136.859 51.9079 137.414 51.6492C137.97 51.3905 138.45 50.9937 138.809 50.4968L139.072 50.1173L139.424 50.4289C139.798 50.7648 140.239 51.018 140.718 51.1723C141.196 51.3266 141.702 51.3785 142.202 51.3245C142.702 51.2705 143.185 51.1119 143.619 50.859C144.054 50.6061 144.43 50.2645 144.724 49.8565L143.901 48.0566C143.693 47.5981 143.394 47.1863 143.022 46.846C142.651 46.5056 142.215 46.2435 141.74 46.0755C141.265 45.9075 140.761 45.837 140.258 45.8681C139.755 45.8993 139.264 46.0314 138.813 46.2568L134.232 48.5485C133.578 48.8757 133.042 49.399 132.699 50.0452H132.712Z" fill="black"/>
<g filter="url(#filter5_d_1067_27020)">
<path d="M149.061 58.0631L147.312 54.5206C147.936 54.2875 148.441 53.8164 148.717 53.2109C148.993 52.6054 149.017 51.9151 148.784 51.2918C148.551 50.6686 148.079 50.1634 147.474 49.8875C146.868 49.6116 146.178 49.5875 145.555 49.8205C145.445 49.8611 145.338 49.91 145.235 49.9668L145.201 49.8947C144.89 50.3879 144.475 50.8073 143.986 51.1236C143.496 51.44 142.943 51.6457 142.366 51.7265C141.789 51.8072 141.201 51.761 140.643 51.5911C140.086 51.4212 139.572 51.1317 139.138 50.7427C138.726 51.3137 138.171 51.7663 137.529 52.0551C136.887 52.3438 136.18 52.4585 135.48 52.3876C134.78 52.3167 134.11 52.0627 133.539 51.6512C132.968 51.2397 132.515 50.6851 132.226 50.0431C132.012 50.5105 131.891 51.0157 131.872 51.5297C131.853 52.0438 131.935 52.5565 132.114 53.0387L132.521 54.1369C132.921 55.2153 133.016 56.3829 132.797 57.5119C132.747 57.7469 132.788 57.992 132.911 58.1983C133.034 58.4047 133.23 58.557 133.46 58.6249L134.279 58.8581L135.144 61.1901C135.315 61.6528 135.585 62.0729 135.935 62.4214C136.285 62.77 136.705 63.0387 137.169 63.2093C137.632 63.3799 138.126 63.4483 138.619 63.4097C139.111 63.3711 139.589 63.2264 140.02 62.9857L142.14 61.7964L144.037 65.5085L150.912 61.9915L149.061 58.0631Z" fill="white"/>
</g>
<path d="M143.852 66.0697L141.97 62.3893L140.229 63.3645C139.744 63.6355 139.207 63.7983 138.653 63.8419C138.1 63.8855 137.543 63.8088 137.022 63.6171C136.501 63.4254 136.027 63.1232 135.634 62.7312C135.24 62.3392 134.936 61.8668 134.743 61.3463L133.954 59.2157L133.348 59.0419C133.016 58.9478 132.731 58.7316 132.552 58.4367C132.373 58.1418 132.312 57.79 132.381 57.4519V57.4243C132.479 56.9239 132.51 56.4128 132.474 55.9043C132.435 55.3513 132.317 54.8067 132.124 54.2867L131.715 53.1864C131.516 52.6525 131.425 52.0844 131.446 51.515C131.468 50.9456 131.602 50.3861 131.84 49.8686L132.228 49.0206L132.612 49.8686C132.87 50.4431 133.275 50.9397 133.785 51.3085C134.296 51.6773 134.894 51.9053 135.521 51.9697C136.147 52.0342 136.78 51.9327 137.354 51.6756C137.929 51.4184 138.427 51.0146 138.796 50.5046L139.072 50.1167L139.424 50.4283C139.812 50.776 140.272 51.0347 140.77 51.1865C141.269 51.3383 141.795 51.3795 142.311 51.3073C142.827 51.235 143.322 51.051 143.76 50.7682C144.198 50.4853 144.568 50.1103 144.847 49.6693L145.271 49.0079L145.455 49.4107C146.181 49.1526 146.979 49.1907 147.677 49.5169C148.375 49.843 148.916 50.4309 149.184 51.1533C149.424 51.8047 149.426 52.52 149.189 53.1727C148.953 53.8253 148.493 54.3731 147.891 54.7192L149.445 57.8759L151.472 62.1667L143.852 66.0697ZM142.324 61.2191L144.221 64.9291L150.352 61.7915L148.68 58.2469L146.725 54.2888L147.162 54.1235C147.679 53.9298 148.099 53.5383 148.328 53.0352C148.558 52.532 148.577 51.9584 148.384 51.4406C148.19 50.9228 147.799 50.5031 147.295 50.2739C146.792 50.0447 146.219 50.0247 145.701 50.2184C145.61 50.2534 145.521 50.2945 145.436 50.3414L145.396 50.3647C145.053 50.8358 144.622 51.2347 144.125 51.5388C143.628 51.8428 143.077 52.0459 142.502 52.1365C141.926 52.2271 141.339 52.2033 140.773 52.0666C140.207 51.93 139.674 51.683 139.203 51.3399C138.768 51.8312 138.228 52.2196 137.624 52.477C137.02 52.7345 136.367 52.8545 135.711 52.8286C135.055 52.8026 134.413 52.6312 133.831 52.3269C133.249 52.0225 132.742 51.5927 132.347 51.0685C132.237 51.6799 132.293 52.3097 132.51 52.8917L132.919 53.992C133.347 55.1434 133.449 56.3907 133.212 57.596C133.18 57.7283 133.2 57.8677 133.267 57.9859C133.335 58.1041 133.444 58.1921 133.575 58.232L134.599 58.5119L135.538 61.0559C135.688 61.4616 135.925 61.8299 136.232 62.1355C136.538 62.441 136.908 62.6766 137.314 62.8261C137.72 62.9755 138.154 63.0353 138.585 63.0012C139.017 62.9672 139.436 62.8402 139.814 62.6289L142.324 61.2191Z" fill="black"/>
<g filter="url(#filter6_d_1067_27020)">
<path d="M150.912 44.7335C154.389 44.7335 157.207 41.9155 157.207 38.4393C157.207 34.963 154.389 32.145 150.912 32.145C147.436 32.145 144.618 34.963 144.618 38.4393C144.618 41.9155 147.436 44.7335 150.912 44.7335Z" fill="black"/>
</g>
<g filter="url(#filter7_d_1067_27020)">
<path d="M160.615 36.7584C165.693 36.7584 169.81 32.6419 169.81 27.5639C169.81 22.486 165.693 18.3695 160.615 18.3695C155.537 18.3695 151.421 22.486 151.421 27.5639C151.421 32.6419 155.537 36.7584 160.615 36.7584Z" fill="black"/>
</g>
<g filter="url(#filter8_d_1067_27020)">
<path d="M132.458 100.01L107.285 168.197C106.52 170.105 106.997 172.242 108.409 173.463C110.147 174.966 113.028 174.848 114.849 172.963C114.959 173.19 116.2 175.598 118.975 176.024C119.964 176.169 120.975 176.044 121.9 175.664C122.825 175.283 123.63 174.661 124.232 173.862C124.654 174.726 125.292 175.466 126.085 176.009C126.878 176.552 127.798 176.881 128.756 176.962C129.713 177.043 130.676 176.874 131.549 176.472C132.422 176.07 133.176 175.448 133.736 174.668C134.137 174.115 134.437 173.496 134.625 172.84L149.677 122.596C149.677 122.596 157.487 116.548 155.68 103.741L132.458 100.01Z" fill="black"/>
</g>
<path d="M137.05 55.728C137.386 55.728 137.658 55.4556 137.658 55.1195C137.658 54.7835 137.386 54.5111 137.05 54.5111C136.714 54.5111 136.441 54.7835 136.441 55.1195C136.441 55.4556 136.714 55.728 137.05 55.728Z" fill="black"/>
<path d="M142.058 61.3443L143.118 63.4198L145.975 59.5211C145.992 59.4938 146 59.4617 145.997 59.4296C145.994 59.3975 145.981 59.3672 145.96 59.3433C145.938 59.3194 145.909 59.3031 145.878 59.2969C145.846 59.2908 145.814 59.295 145.785 59.3091L142.058 61.3443Z" fill="black"/>
<path d="M137.474 60.2987C137.292 60.3012 137.111 60.2798 136.935 60.2351C136.833 60.2004 136.748 60.1278 136.697 60.0322C136.646 59.9366 136.634 59.8253 136.663 59.721C136.691 59.6167 136.759 59.5273 136.851 59.4711C136.944 59.415 137.054 59.3963 137.16 59.4189C137.49 59.4919 137.836 59.443 138.133 59.2811C138.451 59.0861 138.672 58.7214 138.788 58.1957C138.813 58.0857 138.88 57.9901 138.976 57.9299C139.071 57.8697 139.186 57.8497 139.296 57.8745C139.406 57.8992 139.502 57.9666 139.562 58.0618C139.622 58.157 139.642 58.2723 139.617 58.3822C139.445 59.1454 139.091 59.6945 138.557 60.0125C138.229 60.204 137.854 60.3029 137.474 60.2987Z" fill="black"/>
<path d="M146.457 53.1849C146.302 53.1861 146.149 53.1445 146.015 53.0648C145.882 52.985 145.773 52.8701 145.7 52.7325C145.628 52.595 145.595 52.4401 145.604 52.2849C145.614 52.1297 145.666 51.9801 145.754 51.8525C145.843 51.7249 145.966 51.6241 146.108 51.5613C146.25 51.4984 146.407 51.4759 146.561 51.4961C146.715 51.5163 146.861 51.5786 146.982 51.676C147.103 51.7734 147.195 51.9023 147.248 52.0485C147.324 52.2583 147.315 52.4897 147.221 52.6926C147.128 52.8954 146.959 53.0532 146.75 53.1319C146.656 53.167 146.557 53.185 146.457 53.1849ZM146.457 52.1249C146.412 52.1243 146.368 52.1383 146.331 52.1648C146.294 52.1913 146.266 52.2289 146.253 52.2721C146.239 52.3153 146.239 52.3618 146.254 52.4048C146.268 52.4478 146.296 52.485 146.333 52.5109C146.371 52.5368 146.415 52.5501 146.461 52.5488C146.506 52.5474 146.55 52.5316 146.585 52.5036C146.621 52.4756 146.647 52.4368 146.659 52.3931C146.671 52.3493 146.669 52.3029 146.652 52.2605C146.636 52.2226 146.608 52.1904 146.574 52.1678C146.539 52.1452 146.499 52.1332 146.457 52.1333V52.1249Z" fill="black"/>
<path d="M145.997 52.9404C145.943 52.9404 145.89 52.9266 145.842 52.9002C145.795 52.8739 145.755 52.8359 145.726 52.7899C145.599 52.5844 145.528 52.3493 145.52 52.1079C145.512 51.8665 145.568 51.6272 145.681 51.414C145.794 51.2161 145.952 51.0478 146.143 50.9232C146.333 50.7986 146.551 50.7212 146.777 50.6974C146.861 50.6921 146.944 50.7193 147.008 50.7735C147.072 50.8276 147.112 50.9045 147.121 50.9879C147.124 51.0295 147.12 51.0714 147.107 51.1112C147.094 51.151 147.074 51.1879 147.047 51.2198C147.02 51.2517 146.987 51.2779 146.95 51.2971C146.913 51.3162 146.872 51.3279 146.83 51.3313C146.709 51.3456 146.593 51.3877 146.491 51.4543C146.389 51.5208 146.303 51.6101 146.241 51.715C146.18 51.8299 146.151 51.9586 146.155 52.0884C146.16 52.2182 146.198 52.3445 146.267 52.4549C146.289 52.4902 146.304 52.5296 146.311 52.5707C146.317 52.6118 146.316 52.6539 146.307 52.6945C146.297 52.7351 146.28 52.7734 146.255 52.8072C146.231 52.8411 146.2 52.8698 146.165 52.8916C146.115 52.9237 146.057 52.9407 145.997 52.9404Z" fill="black"/>
<g filter="url(#filter9_d_1067_27020)">
<path d="M142.54 66.3563C141.999 66.6181 141.439 66.8398 140.866 67.0199C140.182 67.2255 139.548 67.568 139.001 68.0265C138.455 68.485 138.007 69.0499 137.686 69.6869L132.432 80.0897C132.432 80.0897 128.987 86.685 133.753 89.6191L159.083 91.2748L163.732 65.9323C163.732 65.9323 160.098 61.9743 152.284 62.4174L151.105 60.5921C150.999 60.4266 150.836 60.306 150.647 60.2536C150.457 60.2012 150.255 60.2205 150.079 60.308L143.134 63.7615C142.959 63.8482 142.822 63.996 142.749 64.1769C142.676 64.3578 142.672 64.5593 142.738 64.743L143.202 66.0595L142.54 66.3563Z" fill="#FFC1EB"/>
</g>
<g filter="url(#filter10_d_1067_27020)">
<path d="M160.352 64.3759C158.546 64.0882 156.699 64.5294 155.217 65.6027C153.736 66.676 152.741 68.2935 152.451 70.0999L149.229 90.3459L124.787 89.2138C124.787 89.2138 118.821 88.0881 114.422 96.7928C114.422 96.7928 113.786 98.4061 115.644 98.9934C115.644 98.9934 115.987 101.486 118.383 100.166C118.383 100.166 119.85 102.356 121.953 100.552C121.953 100.552 123.861 101.824 128.601 98.4549C133.555 100.628 138.756 102.184 144.09 103.087C145.121 103.261 146.136 103.407 147.132 103.526L150.948 104.132C152.237 104.337 153.554 104.287 154.824 103.983C156.094 103.679 157.291 103.128 158.348 102.362C159.405 101.595 160.3 100.628 160.983 99.5152C161.666 98.4026 162.123 97.1663 162.328 95.877L166.085 72.2708C166.37 70.4639 165.926 68.6177 164.852 67.1375C163.777 65.6573 162.159 64.6641 160.352 64.3759Z" fill="white"/>
</g>
<path d="M152.532 104.692C151.979 104.691 151.426 104.647 150.88 104.561L147.064 103.952C146.059 103.833 145.029 103.685 144.018 103.513C138.731 102.616 133.571 101.083 128.652 98.9468C124.791 101.635 122.741 101.332 122.01 101.067C121.344 101.569 120.664 101.777 119.981 101.684C119.315 101.568 118.71 101.226 118.268 100.715C117.533 101.05 116.888 101.084 116.36 100.815C115.675 100.469 115.396 99.727 115.29 99.3306C114.769 99.1495 114.339 98.7742 114.09 98.2833C113.865 97.7662 113.847 97.183 114.039 96.653L114.054 96.6191C118.429 87.9652 124.302 88.7178 124.844 88.809L148.881 89.922L152.042 70.0512C152.347 68.132 153.403 66.4126 154.976 65.2713C156.549 64.1301 158.51 63.6605 160.43 63.9658C162.349 64.2711 164.068 65.3263 165.21 66.8993C166.351 68.4723 166.821 70.4343 166.515 72.3536L162.748 95.9534C162.36 98.3858 161.119 100.601 159.247 102.202C157.375 103.803 154.995 104.686 152.532 104.692ZM128.552 97.978L128.764 98.0755C133.689 100.232 138.859 101.778 144.16 102.678C145.156 102.846 146.174 102.992 147.181 103.113L151.014 103.723C153.506 104.12 156.054 103.51 158.097 102.029C160.14 100.548 161.512 98.3161 161.911 95.8241L165.667 72.2158C165.937 70.5185 165.521 68.7836 164.512 67.3924C163.503 66.0011 161.984 65.0672 160.287 64.7958C158.59 64.5276 156.855 64.9434 155.464 65.9521C154.073 66.9607 153.139 68.4799 152.867 70.1763L149.587 90.7954L124.707 89.6379C124.476 89.5955 118.998 88.7072 114.811 96.9689C114.707 97.2785 114.719 97.615 114.844 97.9165C114.943 98.0874 115.077 98.236 115.236 98.353C115.395 98.4701 115.576 98.5532 115.769 98.597L116.025 98.6776L116.061 98.9426C116.061 98.9426 116.189 99.7906 116.731 100.049C117.079 100.221 117.567 100.14 118.175 99.8033L118.516 99.6168L118.728 99.939C118.728 99.939 119.275 100.728 120.096 100.836C120.6 100.901 121.13 100.702 121.669 100.238L121.915 100.026L122.182 100.206C122.182 100.206 123.98 101.224 128.349 98.1158L128.552 97.978Z" fill="black"/>
<path d="M115.644 99.532C115.55 99.5313 115.457 99.5054 115.376 99.4569C115.294 99.4084 115.228 99.3391 115.182 99.2562C115.136 99.1732 115.114 99.0796 115.116 98.985C115.119 98.8904 115.147 98.7982 115.197 98.7179L117.872 94.5013C117.908 94.4387 117.955 94.384 118.013 94.3404C118.07 94.2969 118.135 94.2654 118.205 94.2478C118.274 94.2303 118.347 94.2272 118.418 94.2385C118.489 94.2499 118.557 94.2756 118.617 94.314C118.678 94.3524 118.73 94.4027 118.771 94.4619C118.812 94.5212 118.84 94.5881 118.854 94.6585C118.868 94.729 118.867 94.8015 118.852 94.8718C118.838 94.9421 118.809 95.0086 118.767 95.0673L116.092 99.284C116.045 99.3601 115.979 99.4229 115.9 99.4663C115.822 99.5097 115.734 99.5324 115.644 99.532Z" fill="black"/>
<path d="M118.383 100.7C118.287 100.701 118.192 100.675 118.109 100.625C118.026 100.576 117.958 100.505 117.913 100.42C117.868 100.334 117.847 100.238 117.852 100.142C117.858 100.046 117.89 99.9526 117.944 99.8731L120.546 96.0571C120.583 95.9963 120.633 95.9437 120.691 95.9025C120.75 95.8614 120.816 95.8325 120.886 95.8176C120.956 95.8027 121.028 95.8021 121.098 95.8159C121.169 95.8297 121.235 95.8575 121.294 95.8978C121.354 95.938 121.404 95.9898 121.443 96.05C121.481 96.1103 121.507 96.1777 121.519 96.2483C121.531 96.3188 121.528 96.391 121.511 96.4605C121.495 96.5301 121.464 96.5955 121.421 96.6528L118.822 100.469C118.773 100.54 118.708 100.598 118.631 100.639C118.555 100.679 118.47 100.7 118.383 100.7Z" fill="black"/>
<path d="M121.951 101.091C121.84 101.091 121.733 101.056 121.643 100.991C121.587 100.95 121.539 100.899 121.502 100.84C121.466 100.781 121.441 100.715 121.43 100.646C121.419 100.577 121.421 100.507 121.437 100.439C121.453 100.372 121.482 100.308 121.523 100.251L123.922 96.9121C124.005 96.7979 124.129 96.7211 124.267 96.6984C124.406 96.6757 124.548 96.7091 124.662 96.7912C124.777 96.8733 124.853 96.9974 124.876 97.1361C124.899 97.2749 124.865 97.417 124.783 97.5311L122.383 100.87C122.334 100.939 122.269 100.994 122.194 101.033C122.119 101.071 122.035 101.091 121.951 101.091Z" fill="black"/>
<path d="M144.795 139.327C144.753 139.327 144.712 139.32 144.672 139.308C144.564 139.275 144.474 139.201 144.421 139.102C144.367 139.003 144.356 138.887 144.388 138.78L149.309 122.348L149.417 122.265C154.112 118.661 155.16 111.665 155.168 111.586C155.184 111.474 155.244 111.372 155.335 111.304C155.426 111.236 155.54 111.207 155.653 111.223C155.765 111.239 155.867 111.299 155.935 111.39C156.003 111.481 156.032 111.595 156.016 111.707C155.974 112.006 154.931 119.025 150.051 122.854L145.208 139.023C145.182 139.112 145.127 139.19 145.053 139.245C144.978 139.299 144.888 139.328 144.795 139.327Z" fill="white"/>
<path d="M153.978 91.2153H153.942L149.193 90.8825C149.124 90.8776 149.056 90.8591 148.993 90.8279C148.931 90.7968 148.875 90.7537 148.83 90.701C148.737 90.5946 148.691 90.4559 148.701 90.3154C148.71 90.1748 148.776 90.0439 148.882 89.9515C148.988 89.859 149.127 89.8126 149.268 89.8225L154.016 90.1553C154.086 90.1578 154.154 90.174 154.218 90.2029C154.281 90.2319 154.338 90.273 154.386 90.324C154.433 90.375 154.47 90.4348 154.494 90.5001C154.519 90.5654 154.53 90.6348 154.527 90.7044C154.525 90.774 154.509 90.8424 154.48 90.9058C154.451 90.9691 154.41 91.0261 154.359 91.0736C154.308 91.121 154.248 91.1579 154.183 91.1823C154.117 91.2066 154.048 91.2178 153.978 91.2153Z" fill="black"/>
<path d="M93.1288 35.1098H61.5302C59.0574 35.1098 57.0527 37.1144 57.0527 39.5872V52.9899C57.0527 55.4627 59.0574 57.4673 61.5302 57.4673H93.1288C95.6016 57.4673 97.6062 55.4627 97.6062 52.9899V39.5872C97.6062 37.1144 95.6016 35.1098 93.1288 35.1098Z" fill="white"/>
<path d="M93.1291 57.8911H61.5411C60.2413 57.8894 58.9952 57.3722 58.0764 56.4529C57.1575 55.5336 56.6408 54.2874 56.6396 52.9876V39.5892C56.6408 38.2894 57.1575 37.0431 58.0764 36.1238C58.9952 35.2045 60.2413 34.6873 61.5411 34.6856H93.1291C94.4289 34.6873 95.6749 35.2045 96.5938 36.1238C97.5127 37.0431 98.0294 38.2894 98.0305 39.5892V52.9876C98.0294 54.2874 97.5127 55.5336 96.5938 56.4529C95.6749 57.3722 94.4289 57.8894 93.1291 57.8911ZM61.5411 35.5336C60.4662 35.5353 59.4358 35.9632 58.676 36.7234C57.9161 37.4837 57.4888 38.5143 57.4876 39.5892V52.9876C57.4888 54.0625 57.9161 55.093 58.676 55.8533C59.4358 56.6136 60.4662 57.0414 61.5411 57.0431H93.1291C94.204 57.0414 95.2343 56.6136 95.9942 55.8533C96.7541 55.093 97.1814 54.0625 97.1825 52.9876V39.5892C97.1814 38.5143 96.7541 37.4837 95.9942 36.7234C95.2343 35.9632 94.204 35.5353 93.1291 35.5336H61.5411Z" fill="black"/>
<path d="M64.4486 42.7941C64.3362 42.7941 64.2283 42.7495 64.1488 42.6699C64.0693 42.5904 64.0246 42.4826 64.0246 42.3701C63.9971 41.1681 64.4486 40.4473 64.826 40.0551C65.034 39.8332 65.2838 39.6546 65.561 39.5294C65.8382 39.4043 66.1374 39.3351 66.4414 39.3258C66.7382 39.3297 67.0312 39.3921 67.3037 39.5097C67.5763 39.6272 67.8228 39.7974 68.0293 40.0106C68.4194 40.4028 68.8773 41.1278 68.8646 42.3659C68.8646 42.4783 68.8199 42.5862 68.7404 42.6657C68.6609 42.7452 68.553 42.7899 68.4406 42.7899C68.3281 42.7899 68.2203 42.7452 68.1408 42.6657C68.0613 42.5862 68.0166 42.4783 68.0166 42.3659C68.0166 41.6196 67.8237 41.0154 67.4294 40.6211C67.1737 40.3552 66.8249 40.1987 66.4563 40.1844C66.0701 40.2033 65.7065 40.3721 65.4429 40.655C65.0592 41.0515 64.8642 41.6408 64.8811 42.351C64.8825 42.4067 64.873 42.4621 64.8529 42.5141C64.8329 42.5661 64.8029 42.6136 64.7645 42.654C64.7261 42.6944 64.6801 42.7268 64.6292 42.7493C64.5783 42.7719 64.5234 42.7843 64.4677 42.7856L64.4486 42.7941Z" fill="black"/>
<path d="M70.4714 53.5281H62.4705C62.2737 53.5269 62.0794 53.4837 61.9006 53.4014C61.7217 53.3192 61.5625 53.1997 61.4335 53.051C61.3045 52.9024 61.2087 52.7279 61.1524 52.5393C61.0962 52.3506 61.0808 52.1522 61.1074 51.9572L62.2225 43.5726C62.2652 43.2409 62.427 42.9361 62.6778 42.715C62.9286 42.4938 63.2513 42.3714 63.5856 42.3705H69.1676C69.4966 42.3723 69.8141 42.4913 70.0632 42.7061C70.3123 42.921 70.4766 43.2177 70.5265 43.5429L71.8303 51.9275C71.8618 52.1245 71.8503 52.3259 71.7966 52.518C71.7429 52.7102 71.6483 52.8884 71.5191 53.0404C71.39 53.1925 71.2295 53.3148 71.0487 53.399C70.8678 53.4832 70.6709 53.5272 70.4714 53.5281Z" fill="#FFC1EB"/>
<path d="M91.7763 41.0923H77.4854C76.6424 41.0923 75.959 41.7752 75.959 42.6177C75.959 43.4601 76.6424 44.143 77.4854 44.143H91.7763C92.6193 44.143 93.3027 43.4601 93.3027 42.6177C93.3027 41.7752 92.6193 41.0923 91.7763 41.0923Z" fill="#FFBB45"/>
<path d="M92.5808 48.1468H76.6808C76.5684 48.1468 76.4605 48.1021 76.381 48.0226C76.3015 47.9431 76.2568 47.8352 76.2568 47.7228C76.2568 47.6103 76.3015 47.5025 76.381 47.423C76.4605 47.3434 76.5684 47.2988 76.6808 47.2988H92.5808C92.6933 47.2988 92.8011 47.3434 92.8806 47.423C92.9602 47.5025 93.0048 47.6103 93.0048 47.7228C93.0048 47.8352 92.9602 47.9431 92.8806 48.0226C92.8011 48.1021 92.6933 48.1468 92.5808 48.1468Z" fill="black"/>
<path d="M90.3418 51.7721H76.6847C76.5723 51.7721 76.4644 51.7274 76.3849 51.6479C76.3054 51.5684 76.2607 51.4605 76.2607 51.3481C76.2607 51.2356 76.3054 51.1278 76.3849 51.0483C76.4644 50.9687 76.5723 50.9241 76.6847 50.9241H90.3418C90.4542 50.9241 90.5621 50.9687 90.6416 51.0483C90.7211 51.1278 90.7658 51.2356 90.7658 51.3481C90.7658 51.4605 90.7211 51.5684 90.6416 51.6479C90.5621 51.7274 90.4542 51.7721 90.3418 51.7721Z" fill="black"/>
<path d="M118.166 25.565H107.131C105.472 25.565 104.127 26.9099 104.127 28.569V39.6036C104.127 41.2627 105.472 42.6077 107.131 42.6077H118.166C119.825 42.6077 121.17 41.2627 121.17 39.6036V28.569C121.17 26.9099 119.825 25.565 118.166 25.565Z" fill="white"/>
<path d="M118.164 43.0357H107.129C106.22 43.0352 105.349 42.6738 104.706 42.0311C104.063 41.3883 103.702 40.5167 103.701 39.6077V28.5688C103.702 27.6598 104.063 26.7882 104.706 26.1455C105.349 25.5027 106.22 25.1414 107.129 25.1408H118.164C119.073 25.1414 119.944 25.5027 120.587 26.1455C121.23 26.7882 121.591 27.6598 121.592 28.5688V39.6034C121.592 40.0539 121.504 40.5 121.332 40.9163C121.159 41.3325 120.907 41.7108 120.589 42.0296C120.27 42.3483 119.892 42.6012 119.476 42.7738C119.06 42.9465 118.614 43.0354 118.164 43.0357ZM107.129 25.993C106.445 25.9936 105.789 26.2656 105.305 26.7493C104.822 27.2331 104.55 27.889 104.549 28.5731V39.6077C104.55 40.2918 104.822 40.9477 105.305 41.4314C105.789 41.9152 106.445 42.1872 107.129 42.1877H118.164C118.848 42.1872 119.504 41.9152 119.988 41.4314C120.471 40.9477 120.743 40.2918 120.744 39.6077V28.5688C120.743 27.8848 120.471 27.2288 119.988 26.7451C119.504 26.2614 118.848 25.9894 118.164 25.9888L107.129 25.993Z" fill="black"/>
<path d="M115.796 30.7678H109.5C108.479 30.7678 107.651 31.5954 107.651 32.6164V37.7426C107.651 38.7635 108.479 39.5912 109.5 39.5912H115.796C116.817 39.5912 117.645 38.7635 117.645 37.7426V32.6164C117.645 31.5954 116.817 30.7678 115.796 30.7678Z" fill="#FFC1EB"/>
<path d="M117.643 34.0765H107.652C107.539 34.0765 107.431 34.0318 107.352 33.9523C107.272 33.8728 107.228 33.765 107.228 33.6525C107.228 33.5401 107.272 33.4322 107.352 33.3527C107.431 33.2732 107.539 33.2285 107.652 33.2285H117.643C117.756 33.2285 117.863 33.2732 117.943 33.3527C118.022 33.4322 118.067 33.5401 118.067 33.6525C118.067 33.765 118.022 33.8728 117.943 33.9523C117.863 34.0318 117.756 34.0765 117.643 34.0765Z" fill="#FB6D6D"/>
<path d="M113.305 31.1913H112.646C110.081 31.1913 109.339 30.267 109.167 29.4953C109.133 29.3409 109.133 29.181 109.167 29.0266C109.2 28.8722 109.267 28.7269 109.362 28.6006C109.456 28.4747 109.575 28.3707 109.713 28.2956C109.851 28.2206 110.003 28.1764 110.159 28.166C111.855 28.0473 112.985 30.498 113.032 30.5934L113.305 31.1913ZM110.276 29.0077H110.217C110.182 29.0103 110.148 29.0204 110.118 29.0373C110.088 29.0541 110.061 29.0773 110.041 29.1052C110.019 29.1335 110.004 29.1662 109.996 29.201C109.988 29.2358 109.988 29.2718 109.996 29.3066C110.119 29.862 110.789 30.2076 111.904 30.3094C111.525 29.7094 110.918 29.0077 110.276 29.0077Z" fill="#FB6D6D"/>
<path d="M112.611 31.191H111.954L112.225 30.5911C112.274 30.4872 113.402 28.0471 115.098 28.1637C115.255 28.1746 115.408 28.2192 115.546 28.2947C115.685 28.3701 115.805 28.4744 115.899 28.6007C115.993 28.7269 116.059 28.8719 116.092 29.0259C116.125 29.1799 116.124 29.3392 116.09 29.4929C115.921 30.2667 115.179 31.191 112.611 31.191ZM114.984 29.0074C114.348 29.0074 113.737 29.7155 113.351 30.3112C114.471 30.2095 115.14 29.8639 115.259 29.3085C115.267 29.2737 115.267 29.2377 115.259 29.2029C115.251 29.1681 115.236 29.1354 115.215 29.1071C115.194 29.0789 115.167 29.0556 115.136 29.0387C115.106 29.0219 115.072 29.0119 115.037 29.0096L114.984 29.0074Z" fill="#FB6D6D"/>
<path d="M115.311 35.8848C115.236 35.8851 115.162 35.8657 115.098 35.8284C115.033 35.7912 114.979 35.7375 114.942 35.6728L112.589 31.6151L110.352 35.5159C110.324 35.5642 110.287 35.6066 110.243 35.6405C110.199 35.6745 110.148 35.6995 110.094 35.7139C110.04 35.7284 109.984 35.7321 109.929 35.7249C109.874 35.7176 109.82 35.6996 109.772 35.6717C109.724 35.6439 109.681 35.6068 109.647 35.5626C109.614 35.5184 109.589 35.4679 109.574 35.4141C109.56 35.3603 109.556 35.3041 109.563 35.2488C109.57 35.1935 109.588 35.1402 109.616 35.0919L112.584 29.9149L115.675 35.2467C115.732 35.3437 115.747 35.4591 115.718 35.5676C115.69 35.6761 115.619 35.7688 115.523 35.8254C115.458 35.8636 115.385 35.884 115.311 35.8848Z" fill="#FB6D6D"/>
<path d="M112.692 40.0132C112.579 40.0132 112.471 39.9686 112.392 39.889C112.312 39.8095 112.268 39.7017 112.268 39.5892V31.0477C112.268 30.9353 112.312 30.8275 112.392 30.7479C112.471 30.6684 112.579 30.6237 112.692 30.6237C112.804 30.6237 112.912 30.6684 112.991 30.7479C113.071 30.8275 113.116 30.9353 113.116 31.0477V39.5892C113.116 39.6449 113.105 39.7 113.083 39.7515C113.062 39.8029 113.031 39.8497 112.991 39.889C112.952 39.9284 112.905 39.9596 112.854 39.981C112.802 40.0023 112.747 40.0132 112.692 40.0132Z" fill="#FB6D6D"/>
<path d="M131.126 50.0721C130.418 50.0721 129.757 49.6481 129.256 48.887C128.775 48.0622 128.508 47.1303 128.478 46.1759C128.449 45.2215 128.658 44.2748 129.087 43.4217C129.549 42.6034 130.204 42.1497 130.936 42.1179C131.667 42.0861 132.35 42.5164 132.86 43.3051C133.36 44.1216 133.629 45.0576 133.641 46.0144C133.708 48.2447 132.629 50.0276 131.184 50.0721H131.126ZM130.989 42.9659H130.961C130.537 42.9786 130.136 43.2902 129.825 43.8393C129.473 44.5573 129.302 45.3505 129.326 46.1497C129.351 46.949 129.571 47.7301 129.967 48.4249C130.312 48.9528 130.734 49.2326 131.156 49.2241C132.097 49.1944 132.852 47.7401 132.793 46.0441C132.787 45.2427 132.568 44.4573 132.157 43.7694C131.813 43.2478 131.402 42.9659 130.989 42.9659Z" fill="#FB6D6D"/>
<path d="M137.488 48.5761C135.815 48.5761 134.454 46.7911 134.454 44.599C134.454 42.4069 135.815 40.6198 137.488 40.6198C139.161 40.6198 140.526 42.4048 140.526 44.599C140.526 46.7932 139.163 48.5761 137.488 48.5761ZM137.488 41.4678C136.282 41.4678 135.302 42.8712 135.302 44.599C135.302 46.3268 136.282 47.7281 137.488 47.7281C138.694 47.7281 139.678 46.3247 139.678 44.599C139.678 42.8733 138.696 41.4678 137.488 41.4678Z" fill="#FB6D6D"/>
<path d="M133.18 46.0044C133.077 46.0032 132.979 45.965 132.903 45.8969C132.826 45.8289 132.777 45.7355 132.764 45.634C132.751 45.5325 132.775 45.4297 132.832 45.3447C132.889 45.2597 132.975 45.1981 133.074 45.1713L134.602 44.7748C134.657 44.7585 134.714 44.7533 134.771 44.7596C134.828 44.766 134.882 44.7837 134.932 44.8117C134.982 44.8397 135.025 44.8775 135.06 44.9227C135.095 44.9679 135.12 45.0197 135.134 45.0749C135.149 45.1302 135.152 45.1877 135.143 45.2441C135.135 45.3005 135.115 45.3546 135.085 45.4032C135.055 45.4518 135.016 45.4938 134.969 45.5268C134.923 45.5598 134.87 45.5831 134.814 45.5953L133.286 45.9917C133.251 46 133.215 46.0043 133.18 46.0044Z" fill="#FB6D6D"/>
<g filter="url(#filter11_d_1067_27020)">
<path d="M144.988 45.0222H140.112C140 45.0222 139.892 44.9775 139.813 44.898C139.733 44.8185 139.688 44.7106 139.688 44.5982C139.688 44.4857 139.733 44.3779 139.813 44.2984C139.892 44.2188 140 44.1742 140.112 44.1742H144.988C145.101 44.1742 145.209 44.2188 145.288 44.2984C145.368 44.3779 145.412 44.4857 145.412 44.5982C145.412 44.7106 145.368 44.8185 145.288 44.898C145.209 44.9775 145.101 45.0222 144.988 45.0222Z" fill="#FB6D6D"/>
</g>
<path d="M143.56 66.5147C143.439 66.5135 143.322 66.4711 143.229 66.3944C143.136 66.3178 143.071 66.2115 143.046 66.0933C143.022 65.975 143.038 65.8519 143.093 65.7442C143.148 65.6366 143.238 65.5509 143.348 65.5014L149.017 62.9362C149.145 62.8783 149.291 62.8736 149.422 62.9233C149.554 62.973 149.66 63.073 149.718 63.2012C149.776 63.3294 149.781 63.4753 149.731 63.6069C149.682 63.7385 149.582 63.845 149.453 63.9029L143.785 66.4681C143.714 66.5 143.637 66.5159 143.56 66.5147Z" fill="black"/>
<path d="M73.7272 114.821C73.623 114.822 73.5209 114.792 73.4337 114.735C73.3466 114.678 73.2783 114.596 73.2375 114.5C73.1967 114.404 73.1851 114.298 73.2044 114.196C73.2236 114.093 73.2728 113.999 73.3456 113.924L86.8479 99.8243C87.1404 99.5169 87.4118 99.1883 87.6959 98.8576L87.7807 98.7558C88.3714 98.0599 89.1065 97.5009 89.935 97.1176C90.7634 96.7343 91.6654 96.5359 92.5782 96.5362H98.4104C98.5509 96.5362 98.6857 96.592 98.7851 96.6914C98.8845 96.7908 98.9404 96.9256 98.9404 97.0662C98.9404 97.2068 98.8845 97.3416 98.7851 97.441C98.6857 97.5404 98.5509 97.5962 98.4104 97.5962H92.5825C91.8235 97.5957 91.0736 97.7606 90.3849 98.0795C89.6962 98.3984 89.0853 98.8636 88.5948 99.4427L88.5078 99.5445C88.2238 99.8794 87.9291 100.227 87.6132 100.556L74.1109 114.658C74.0612 114.71 74.0017 114.751 73.9357 114.779C73.8698 114.807 73.7989 114.821 73.7272 114.821Z" fill="black"/>
<path d="M76.982 138.798L64.4613 136.695C63.6056 136.551 62.7925 136.219 62.0804 135.723C61.3683 135.227 60.775 134.579 60.343 133.826C59.911 133.074 59.6512 132.235 59.5821 131.37C59.513 130.505 59.6365 129.635 59.9436 128.823L83.8529 65.6982C84.314 64.4815 85.1661 63.4524 86.2754 62.7725C87.3847 62.0926 88.6885 61.8003 89.9819 61.9416L102.6 63.3196C103.491 63.4165 104.348 63.716 105.105 64.1952C105.863 64.6744 106.5 65.3206 106.969 66.0843C107.438 66.848 107.726 67.7089 107.811 68.601C107.896 69.4932 107.776 70.393 107.459 71.2314L83.4523 135.075C82.973 136.35 82.0655 137.418 80.8851 138.097C79.7047 138.777 78.3249 139.024 76.982 138.798Z" fill="#FFC1EB"/>
<path d="M69.5939 137.982C69.5439 137.983 69.4942 137.973 69.4477 137.955C69.3424 137.916 69.2567 137.837 69.2094 137.736C69.1621 137.634 69.1571 137.518 69.1954 137.412L96.7045 62.5762C96.7218 62.5216 96.7501 62.471 96.7875 62.4276C96.8249 62.3842 96.8707 62.3488 96.9221 62.3236C96.9736 62.2984 97.0296 62.2839 97.0869 62.281C97.1441 62.278 97.2013 62.2867 97.2551 62.3065C97.3089 62.3263 97.3581 62.3568 97.3998 62.3961C97.4414 62.4354 97.4747 62.4828 97.4975 62.5354C97.5204 62.5879 97.5323 62.6446 97.5327 62.7019C97.533 62.7592 97.5217 62.8159 97.4995 62.8688L69.9904 137.705C69.9605 137.786 69.9066 137.856 69.8357 137.906C69.7648 137.955 69.6805 137.982 69.5939 137.982Z" fill="#FB6D6D"/>
<path d="M99.2154 93.596H99.1667L74.4835 90.7361C74.4278 90.7297 74.3739 90.7124 74.325 90.6852C74.276 90.658 74.2328 90.6213 74.198 90.5774C74.1631 90.5335 74.1373 90.4832 74.1219 90.4293C74.1065 90.3754 74.1019 90.319 74.1083 90.2633C74.1147 90.2077 74.132 90.1538 74.1592 90.1048C74.1864 90.0558 74.223 90.0127 74.2669 89.9778C74.3108 89.943 74.3612 89.9171 74.4151 89.9017C74.4689 89.8863 74.5253 89.8817 74.581 89.8881L99.2536 92.7543C99.3093 92.7575 99.3638 92.7717 99.414 92.796C99.4642 92.8202 99.5091 92.8541 99.5463 92.8958C99.5834 92.9374 99.6119 92.9859 99.6303 93.0386C99.6486 93.0913 99.6564 93.1471 99.6532 93.2027C99.65 93.2584 99.6359 93.3129 99.6116 93.3631C99.5873 93.4133 99.5534 93.4583 99.5118 93.4954C99.4701 93.5325 99.4216 93.5611 99.3689 93.5794C99.3163 93.5978 99.2605 93.6055 99.2048 93.6023L99.2154 93.596Z" fill="#FB6D6D"/>
<path d="M86.513 92.008C86.3261 92.0078 86.1452 91.9418 86.0021 91.8214C82.2052 88.6414 79.9368 85.9724 79.2584 83.8969C79.1538 83.5797 79.1407 83.2394 79.2204 82.9151C79.3002 82.5908 79.4697 82.2955 79.7095 82.063C79.9493 81.8305 80.2497 81.6702 80.5763 81.6005C80.903 81.5308 81.2426 81.5544 81.5565 81.6688C84.9654 82.8814 86.6975 88.6202 87.2805 91.0286C87.3221 91.1905 87.3104 91.3615 87.247 91.5163C87.1836 91.671 87.0719 91.8011 86.9285 91.8872C86.804 91.9654 86.6601 92.0072 86.513 92.008ZM80.9459 82.4086C80.7073 82.4118 80.4792 82.5076 80.3099 82.6758C80.1838 82.7962 80.0949 82.9504 80.0539 83.1199C80.013 83.2894 80.0216 83.4671 80.0788 83.6319C80.5028 84.942 81.955 87.291 86.4388 91.0625C84.7767 84.3696 82.29 82.822 81.2936 82.468C81.1812 82.4247 81.062 82.4018 80.9416 82.4002L80.9459 82.4086Z" fill="#FB6D6D"/>
<path d="M75.1886 103.958C75.1095 103.958 75.032 103.936 74.9649 103.894C74.8979 103.852 74.8438 103.792 74.809 103.721C74.7741 103.65 74.7598 103.571 74.7677 103.492C74.7756 103.413 74.8054 103.338 74.8536 103.276C75.1271 102.919 81.5868 94.5836 85.848 91.4312C86.3759 90.7804 91.6441 84.4352 95.9985 85.103C96.3292 85.1506 96.6398 85.2904 96.8948 85.5064C97.1497 85.7223 97.3386 86.0057 97.44 86.3241C97.5413 86.6424 97.5509 86.9829 97.4677 87.3065C97.3845 87.6301 97.2118 87.9237 96.9695 88.1537C95.2841 89.7628 91.7013 91.1047 86.3186 92.1393C82.1486 95.2387 75.5914 103.708 75.5236 103.799C75.4834 103.849 75.4324 103.89 75.3744 103.917C75.3164 103.945 75.2528 103.959 75.1886 103.958ZM95.3286 85.9022C92.3479 85.9022 88.8223 89.3748 87.2726 91.0793C92.9627 89.8815 95.3668 88.5077 96.3886 87.5389C96.5168 87.4206 96.6085 87.2682 96.6528 87.0995C96.6971 86.9308 96.6923 86.753 96.6388 86.587C96.5848 86.4196 96.4845 86.2709 96.3494 86.1583C96.2143 86.0458 96.05 85.9738 95.8756 85.951C95.6969 85.9207 95.5162 85.9044 95.335 85.9022H95.3286Z" fill="#FB6D6D"/>
<path d="M88.6162 106.424H88.595C88.5393 106.421 88.4847 106.407 88.4343 106.383C88.3839 106.36 88.3387 106.326 88.3013 106.285C88.2639 106.243 88.235 106.195 88.2163 106.142C88.1975 106.09 88.1894 106.034 88.1922 105.978C88.4594 100.657 85.7733 91.9526 85.7458 91.8656C85.7123 91.7583 85.7229 91.642 85.7752 91.5424C85.8274 91.4428 85.9171 91.368 86.0245 91.3346C86.1319 91.3011 86.2482 91.3117 86.3478 91.364C86.4474 91.4163 86.5221 91.506 86.5556 91.6134C86.668 91.9759 89.3116 100.551 89.0402 106.029C89.0327 106.137 88.9847 106.237 88.906 106.31C88.8273 106.383 88.7237 106.424 88.6162 106.424Z" fill="#FB6D6D"/>
<path d="M44.9497 127.321H78.6662C80.186 127.321 81.418 126.089 81.418 124.569V100.293C81.418 98.7732 80.186 97.5412 78.6662 97.5412H44.9497C43.43 97.5412 42.198 98.7732 42.198 100.293V124.569C42.198 126.089 43.43 127.321 44.9497 127.321Z" fill="#6DC8C2"/>
<path d="M49.4386 127.743C49.3262 127.743 49.2184 127.698 49.1388 127.618C49.0593 127.539 49.0146 127.431 49.0146 127.319V111.399C49.0146 111.287 49.0593 111.179 49.1388 111.1C49.2184 111.02 49.3262 110.975 49.4386 110.975C49.5511 110.975 49.6589 111.02 49.7385 111.1C49.818 111.179 49.8626 111.287 49.8626 111.399V127.319C49.8626 127.431 49.818 127.539 49.7385 127.618C49.6589 127.698 49.5511 127.743 49.4386 127.743Z" fill="black"/>
<path d="M77.5366 100.524H71.8147C71.1755 100.524 70.6572 101.042 70.6572 101.681V104.857C70.6572 105.496 71.1755 106.015 71.8147 106.015H77.5366C78.1759 106.015 78.6941 105.496 78.6941 104.857V101.681C78.6941 101.042 78.1759 100.524 77.5366 100.524Z" fill="white"/>
<path d="M78.0324 109.449H71.5558C71.4434 109.449 71.3355 109.405 71.256 109.325C71.1765 109.246 71.1318 109.138 71.1318 109.025C71.1318 108.913 71.1765 108.805 71.256 108.726C71.3355 108.646 71.4434 108.601 71.5558 108.601H78.0324C78.1449 108.601 78.2527 108.646 78.3322 108.726C78.4118 108.805 78.4564 108.913 78.4564 109.025C78.4564 109.138 78.4118 109.246 78.3322 109.325C78.2527 109.405 78.1449 109.449 78.0324 109.449Z" fill="black"/>
<path d="M78.0335 112.027H73.2677C73.1553 112.027 73.0475 111.982 72.9679 111.903C72.8884 111.823 72.8438 111.716 72.8438 111.603C72.8438 111.491 72.8884 111.383 72.9679 111.303C73.0475 111.224 73.1553 111.179 73.2677 111.179H78.0335C78.146 111.179 78.2538 111.224 78.3333 111.303C78.4128 111.383 78.4575 111.491 78.4575 111.603C78.4575 111.716 78.4128 111.823 78.3333 111.903C78.2538 111.982 78.146 112.027 78.0335 112.027Z" fill="black"/>
<path d="M49.4763 111.823H49.4233C48.5753 111.802 47.8142 111.244 47.3902 110.339L42.6668 99.2727C42.6227 99.1692 42.6215 99.0525 42.6634 98.9481C42.7053 98.8438 42.787 98.7603 42.8905 98.7162C42.9939 98.6721 43.1107 98.6708 43.2151 98.7128C43.3194 98.7547 43.4029 98.8364 43.447 98.9399L48.164 109.994C48.4438 110.594 48.9251 110.967 49.4466 110.981H49.4763C49.9766 110.981 50.4345 110.659 50.7356 110.091L57.1422 98.8551C57.17 98.8068 57.2071 98.7644 57.2513 98.7304C57.2955 98.6965 57.346 98.6715 57.3998 98.6571C57.4537 98.6426 57.5098 98.6389 57.5651 98.6461C57.6204 98.6533 57.6737 98.6714 57.722 98.6992C57.7703 98.7271 57.8127 98.7642 57.8466 98.8084C57.8806 98.8526 57.9055 98.903 57.92 98.9569C57.9345 99.0107 57.9382 99.0669 57.931 99.1222C57.9237 99.1774 57.9057 99.2308 57.8778 99.2791L51.4776 110.515C51.0345 111.325 50.2882 111.823 49.4763 111.823Z" fill="black"/>
<path d="M58.3005 127.639C58.188 127.639 58.0802 127.594 58.0007 127.515C57.9212 127.435 57.8765 127.327 57.8765 127.215V102.142C57.9528 98.9044 56.4985 98.2344 56.437 98.2069C56.3337 98.1633 56.2519 98.0807 56.2094 97.977C56.1669 97.8733 56.1672 97.7571 56.2102 97.6536C56.2529 97.5516 56.3338 97.4704 56.4356 97.4272C56.5374 97.3841 56.652 97.3824 56.755 97.4225C56.8398 97.4564 58.8156 98.2874 58.7245 102.152V127.215C58.7245 127.327 58.6798 127.435 58.6003 127.515C58.5208 127.594 58.4129 127.639 58.3005 127.639Z" fill="black"/>
<path d="M77.28 81.4297H47.3329C46.436 81.4297 45.709 82.1567 45.709 83.0536V95.9177C45.709 96.8146 46.436 97.5417 47.3329 97.5417H77.28C78.1769 97.5417 78.9039 96.8146 78.9039 95.9177V83.0536C78.9039 82.1567 78.1769 81.4297 77.28 81.4297Z" fill="#FFBB45"/>
<path d="M59.9963 97.8418C59.8838 97.8418 59.776 97.7971 59.6965 97.7176C59.6169 97.6381 59.5723 97.5303 59.5723 97.4178V81.8019C59.5723 81.6894 59.6169 81.5816 59.6965 81.5021C59.776 81.4226 59.8838 81.3779 59.9963 81.3779C60.1087 81.3779 60.2166 81.4226 60.2961 81.5021C60.3756 81.5816 60.4203 81.6894 60.4203 81.8019V97.4178C60.4203 97.5303 60.3756 97.6381 60.2961 97.7176C60.2166 97.7971 60.1087 97.8418 59.9963 97.8418Z" fill="black"/>
<path d="M54.611 91.1852H49.5591L45.6307 83.3285C45.6058 83.2786 45.591 83.2244 45.587 83.1688C45.5831 83.1132 45.5901 83.0574 45.6077 83.0046C45.6253 82.9517 45.6532 82.9029 45.6897 82.8608C45.7262 82.8187 45.7706 82.7842 45.8205 82.7593C45.8703 82.7343 45.9246 82.7195 45.9801 82.7155C46.0357 82.7116 46.0915 82.7186 46.1444 82.7362C46.1972 82.7539 46.2461 82.7817 46.2882 82.8182C46.3303 82.8547 46.3648 82.8992 46.3897 82.949L50.0827 90.3372H54.1319L59.1987 81.959C59.2569 81.8625 59.351 81.7932 59.4604 81.7661C59.5697 81.7391 59.6853 81.7566 59.7817 81.8148C59.8782 81.873 59.9475 81.9671 59.9746 82.0764C60.0016 82.1858 59.9841 82.3014 59.9259 82.3978L54.611 91.1852Z" fill="black"/>
<path d="M59.2395 97.8424C59.1726 97.8426 59.1066 97.827 59.0469 97.7967C58.9872 97.7665 58.9355 97.7226 58.8961 97.6686L54.1557 91.1856H50.0535L46.6276 96.4984C46.5973 96.5452 46.5581 96.5856 46.5122 96.6172C46.4662 96.6489 46.4145 96.6711 46.36 96.6828C46.3054 96.6944 46.2491 96.6951 46.1943 96.6849C46.1394 96.6748 46.0871 96.6539 46.0404 96.6234C45.9464 96.5623 45.8805 96.4664 45.857 96.3567C45.8336 96.2471 45.8545 96.1326 45.9153 96.0383L49.5914 90.3376H54.5861L59.5723 97.1662C59.6053 97.2112 59.6291 97.2624 59.6422 97.3166C59.6554 97.3709 59.6577 97.4272 59.649 97.4823C59.6403 97.5375 59.6209 97.5904 59.5917 97.638C59.5625 97.6856 59.5243 97.727 59.4791 97.7598C59.4095 97.8111 59.3259 97.84 59.2395 97.8424Z" fill="black"/>
<path d="M99.9836 181.149H36.7504L33.458 160.621H104.631L99.9836 181.149ZM37.6556 180.089H99.1356L103.304 161.681H34.7003L37.6556 180.089Z" fill="black"/>
<path d="M67.5661 181.423C67.4256 181.423 67.2908 181.367 67.1914 181.268C67.092 181.168 67.0361 181.034 67.0361 180.893V161.612C67.0361 161.471 67.092 161.336 67.1914 161.237C67.2908 161.137 67.4256 161.082 67.5661 161.082C67.7067 161.082 67.8415 161.137 67.9409 161.237C68.0403 161.336 68.0961 161.471 68.0961 161.612V180.893C68.0961 181.034 68.0403 181.168 67.9409 181.268C67.8415 181.367 67.7067 181.423 67.5661 181.423Z" fill="black"/>
<path d="M40.4225 185.868C43.1471 185.868 45.3557 183.641 45.3557 180.893C45.3557 178.145 43.1471 175.917 40.4225 175.917C37.6979 175.917 35.4893 178.145 35.4893 180.893C35.4893 183.641 37.6979 185.868 40.4225 185.868Z" fill="black"/>
<path d="M67.6045 185.868C70.3525 185.868 72.5802 183.641 72.5802 180.893C72.5802 178.145 70.3525 175.917 67.6045 175.917C64.8566 175.917 62.6289 178.145 62.6289 180.893C62.6289 183.641 64.8566 185.868 67.6045 185.868Z" fill="black"/>
<path d="M96.0509 185.868C98.7719 185.868 100.978 183.641 100.978 180.893C100.978 178.145 98.7719 175.917 96.0509 175.917C93.3299 175.917 91.124 178.145 91.124 180.893C91.124 183.641 93.3299 185.868 96.0509 185.868Z" fill="black"/>
<path d="M112.915 113.905H29.2848C26.6391 113.905 24.6717 116.661 25.2399 119.568L33.6923 162.786H104.259L116.943 120.274C117.871 117.147 115.825 113.905 112.915 113.905Z" fill="#C7B8F8"/>
<path d="M67.5661 150.48C67.4256 150.48 67.2908 150.424 67.1914 150.325C67.092 150.225 67.0361 150.09 67.0361 149.95V118.557C67.0361 118.416 67.092 118.282 67.1914 118.182C67.2908 118.083 67.4256 118.027 67.5661 118.027C67.7067 118.027 67.8415 118.083 67.9409 118.182C68.0403 118.282 68.0961 118.416 68.0961 118.557V149.95C68.0961 150.02 68.0824 150.088 68.0558 150.153C68.0292 150.217 67.9901 150.275 67.9409 150.325C67.8917 150.374 67.8333 150.413 67.769 150.44C67.7047 150.466 67.6357 150.48 67.5661 150.48Z" fill="black"/>
<path d="M54.7619 121.765H35.9109C34.5422 121.765 33.4326 122.874 33.4326 124.243C33.4326 125.612 34.5422 126.721 35.9109 126.721H54.7619C56.1307 126.721 57.2402 125.612 57.2402 124.243C57.2402 122.874 56.1307 121.765 54.7619 121.765Z" fill="white"/>
<path d="M192.284 85.4933H173.798C172.817 85.4921 171.876 85.1017 171.183 84.4077C170.489 83.7138 170.099 82.7729 170.099 81.7917V46.5997C170.1 45.6187 170.49 44.6782 171.183 43.9844C171.877 43.2905 172.817 42.8999 173.798 42.8982H192.284C193.266 42.8993 194.207 43.2897 194.901 43.9836C195.594 44.6775 195.985 45.6184 195.986 46.5997V81.7917C195.985 82.7731 195.594 83.7139 194.901 84.4079C194.207 85.1018 193.266 85.4921 192.284 85.4933ZM173.798 43.7483C173.042 43.7495 172.317 44.0505 171.782 44.5855C171.248 45.1204 170.947 45.8456 170.947 46.6019V81.7939C170.947 82.5501 171.248 83.2753 171.782 83.8102C172.317 84.3452 173.042 84.6463 173.798 84.6474H192.284C193.041 84.6463 193.766 84.3453 194.301 83.8104C194.836 83.2755 195.137 82.5503 195.138 81.7939V46.6019C195.137 45.8454 194.836 45.1203 194.301 44.5854C193.766 44.0505 193.041 43.7495 192.284 43.7483H173.798Z" fill="black"/>
<path d="M188.374 67.4798H177.715C176.789 67.4798 176.038 68.2306 176.038 69.1567V75.7287C176.038 76.6549 176.789 77.4056 177.715 77.4056H188.374C189.301 77.4056 190.051 76.6549 190.051 75.7287V69.1567C190.051 68.2306 189.301 67.4798 188.374 67.4798Z" fill="#C7B8F8"/>
<path d="M189.672 71.4637H176.384C176.272 71.4637 176.164 71.419 176.084 71.3395C176.005 71.26 175.96 71.1521 175.96 71.0397C175.96 70.9272 176.005 70.8194 176.084 70.7398C176.164 70.6603 176.272 70.6157 176.384 70.6157H189.676C189.789 70.6157 189.897 70.6603 189.976 70.7398C190.056 70.8194 190.1 70.9272 190.1 71.0397C190.1 71.1521 190.056 71.26 189.976 71.3395C189.897 71.419 189.789 71.4637 189.676 71.4637H189.672Z" fill="black"/>
<path d="M180.478 76.2121H178.782C178.413 76.1979 178.064 76.0413 177.807 75.775C177.551 75.5088 177.408 75.1538 177.408 74.7843C177.408 74.4149 177.551 74.0598 177.807 73.7936C178.064 73.5274 178.413 73.3707 178.782 73.3565H180.478C180.67 73.3491 180.862 73.3805 181.042 73.449C181.221 73.5174 181.385 73.6214 181.524 73.7547C181.662 73.888 181.773 74.0479 181.848 74.2248C181.923 74.4017 181.962 74.592 181.962 74.7843C181.962 74.9766 181.923 75.1669 181.848 75.3438C181.773 75.5207 181.662 75.6806 181.524 75.814C181.385 75.9473 181.221 76.0513 181.042 76.1197C180.862 76.1881 180.67 76.2195 180.478 76.2121ZM178.782 74.2045C178.634 74.2134 178.496 74.2784 178.394 74.3862C178.293 74.4939 178.236 74.6363 178.236 74.7843C178.236 74.9323 178.293 75.0747 178.394 75.1825C178.496 75.2902 178.634 75.3552 178.782 75.3641H180.478C180.557 75.3689 180.636 75.3575 180.711 75.3305C180.785 75.3035 180.854 75.2616 180.911 75.2073C180.969 75.153 181.015 75.0874 181.046 75.0147C181.078 74.942 181.094 74.8636 181.094 74.7843C181.094 74.7051 181.078 74.6267 181.046 74.5539C181.015 74.4812 180.969 74.4157 180.911 74.3614C180.854 74.307 180.785 74.2651 180.711 74.2381C180.636 74.2112 180.557 74.1997 180.478 74.2045H178.782Z" fill="black"/>
<path d="M188.7 49.8731H177.368C176.284 49.8731 175.405 50.7521 175.405 51.8363V57.8359C175.405 58.9201 176.284 59.799 177.368 59.799H188.7C189.784 59.799 190.663 58.9201 190.663 57.8359V51.8363C190.663 50.7521 189.784 49.8731 188.7 49.8731Z" fill="#6DC8C2"/>
<path d="M183.032 57.378C182.529 57.378 182.037 57.2288 181.619 56.9493C181.201 56.6697 180.874 56.2724 180.682 55.8076C180.489 55.3427 180.439 54.8312 180.537 54.3377C180.635 53.8442 180.878 53.3909 181.233 53.0351C181.589 52.6793 182.042 52.4371 182.536 52.3389C183.029 52.2407 183.541 52.2911 184.006 52.4837C184.471 52.6762 184.868 53.0023 185.148 53.4206C185.427 53.839 185.576 54.3309 185.576 54.834C185.576 55.5087 185.308 56.1558 184.831 56.6329C184.354 57.11 183.707 57.378 183.032 57.378ZM183.032 53.138C182.697 53.138 182.369 53.2375 182.09 53.4238C181.811 53.6102 181.594 53.8751 181.465 54.185C181.337 54.4949 181.303 54.8359 181.369 55.1649C181.434 55.4939 181.596 55.7961 181.833 56.0333C182.07 56.2705 182.372 56.432 182.701 56.4974C183.03 56.5629 183.371 56.5293 183.681 56.4009C183.991 56.2725 184.256 56.0552 184.442 55.7763C184.629 55.4974 184.728 55.1694 184.728 54.834C184.729 54.6108 184.686 54.3895 184.601 54.183C184.516 53.9765 184.391 53.7888 184.234 53.6306C184.076 53.4725 183.889 53.347 183.683 53.2614C183.477 53.1757 183.256 53.1316 183.032 53.1316V53.138Z" fill="black"/>
<path d="M190.685 57.3885H189.248C188.617 57.3885 188.013 57.1381 187.567 56.6924C187.121 56.2467 186.871 55.6422 186.871 55.012C186.871 54.3817 187.121 53.7772 187.567 53.3315C188.013 52.8858 188.617 52.6354 189.248 52.6354H190.685V53.4834H189.248C188.842 53.4834 188.453 53.6445 188.167 53.9311C187.88 54.2178 187.719 54.6066 187.719 55.012C187.719 55.4173 187.88 55.8061 188.167 56.0928C188.453 56.3794 188.842 56.5405 189.248 56.5405H190.685V57.3885Z" fill="black"/>
<path d="M176.862 57.3885H175.423V56.5405H176.862C177.268 56.5405 177.657 56.3794 177.943 56.0928C178.23 55.8061 178.391 55.4173 178.391 55.012C178.391 54.6066 178.23 54.2178 177.943 53.9311C177.657 53.6445 177.268 53.4834 176.862 53.4834H175.423V52.6354H176.862C177.493 52.6354 178.097 52.8858 178.543 53.3315C178.988 53.7772 179.239 54.3817 179.239 55.012C179.239 55.6422 178.988 56.2467 178.543 56.6924C178.097 57.1381 177.493 57.3885 176.862 57.3885Z" fill="black"/>
<path d="M172.672 175.876C172.633 175.876 172.594 175.871 172.556 175.861L169.104 175.074C168.967 175.043 168.848 174.959 168.773 174.84C168.698 174.721 168.673 174.577 168.705 174.439C168.736 174.302 168.82 174.183 168.939 174.108C169.058 174.033 169.202 174.009 169.34 174.04L172.791 174.828C172.919 174.857 173.031 174.932 173.107 175.038C173.183 175.145 173.217 175.276 173.202 175.405C173.187 175.535 173.125 175.655 173.027 175.742C172.929 175.829 172.803 175.877 172.672 175.876Z" fill="black"/>
<path d="M171.45 178.771C171.41 178.771 171.37 178.766 171.331 178.756L167.88 177.968C167.81 177.955 167.742 177.928 167.683 177.889C167.623 177.849 167.572 177.798 167.532 177.738C167.493 177.679 167.466 177.611 167.453 177.541C167.44 177.47 167.442 177.398 167.458 177.328C167.474 177.258 167.503 177.193 167.545 177.135C167.588 177.077 167.641 177.028 167.702 176.991C167.764 176.954 167.832 176.93 167.903 176.921C167.974 176.911 168.046 176.916 168.115 176.935L171.567 177.724C171.694 177.752 171.807 177.827 171.883 177.933C171.959 178.04 171.993 178.171 171.978 178.301C171.963 178.431 171.901 178.551 171.803 178.638C171.705 178.724 171.579 178.772 171.448 178.771H171.45Z" fill="black"/>
<path d="M110.861 178.157C110.786 178.157 110.712 178.141 110.644 178.11C110.575 178.079 110.514 178.033 110.465 177.977L108.12 175.325C108.035 175.218 107.993 175.083 108.005 174.947C108.017 174.811 108.08 174.684 108.183 174.594C108.285 174.504 108.419 174.457 108.555 174.463C108.692 174.468 108.821 174.526 108.915 174.625L111.247 177.281C111.34 177.387 111.387 177.525 111.378 177.665C111.369 177.805 111.306 177.936 111.201 178.03C111.105 178.11 110.986 178.155 110.861 178.157Z" fill="black"/>
<path d="M107.416 179.668C107.34 179.669 107.266 179.653 107.197 179.622C107.128 179.591 107.067 179.545 107.017 179.488L104.685 176.834C104.639 176.782 104.604 176.721 104.581 176.655C104.559 176.589 104.549 176.52 104.554 176.45C104.558 176.381 104.576 176.313 104.607 176.25C104.637 176.188 104.68 176.132 104.732 176.086C104.784 176.04 104.845 176.004 104.911 175.982C104.977 175.959 105.046 175.95 105.116 175.954C105.185 175.958 105.253 175.976 105.316 176.007C105.378 176.037 105.434 176.08 105.48 176.132L107.812 178.789C107.881 178.865 107.925 178.959 107.941 179.06C107.956 179.161 107.942 179.264 107.9 179.357C107.858 179.451 107.79 179.53 107.704 179.585C107.618 179.64 107.518 179.669 107.416 179.668Z" fill="black"/>
</g>
<defs>
<filter id="filter0_d_1067_27020" x="-4" y="0" width="220" height="220" filterUnits="userSpaceOnUse" color-interpolation-filters="sRGB">
<feFlood flood-opacity="0" result="BackgroundImageFix"/>
<feColorMatrix in="SourceAlpha" type="matrix" values="0 0 0 0 0 0 0 0 0 0 0 0 0 0 0 0 0 0 127 0" result="hardAlpha"/>
<feOffset dy="4"/>
<feGaussianBlur stdDeviation="2"/>
<feComposite in2="hardAlpha" operator="out"/>
<feColorMatrix type="matrix" values="0 0 0 0 0.976471 0 0 0 0 0.709804 0 0 0 0 1 0 0 0 1 0"/>
<feBlend mode="normal" in2="BackgroundImageFix" result="effect1_dropShadow_1067_27020"/>
<feBlend mode="normal" in="SourceGraphic" in2="effect1_dropShadow_1067_27020" result="shape"/>
</filter>
<filter id="filter1_d_1067_27020" x="98.3711" y="88.4395" width="48.0107" height="20.5996" filterUnits="userSpaceOnUse" color-interpolation-filters="sRGB">
<feFlood flood-opacity="0" result="BackgroundImageFix"/>
<feColorMatrix in="SourceAlpha" type="matrix" values="0 0 0 0 0 0 0 0 0 0 0 0 0 0 0 0 0 0 127 0" result="hardAlpha"/>
<feOffset dy="5.51"/>
<feComposite in2="hardAlpha" operator="out"/>
<feColorMatrix type="matrix" values="0 0 0 0 0.976471 0 0 0 0 0.709804 0 0 0 0 1 0 0 0 1 0"/>
<feBlend mode="normal" in2="BackgroundImageFix" result="effect1_dropShadow_1067_27020"/>
<feBlend mode="normal" in="SourceGraphic" in2="effect1_dropShadow_1067_27020" result="shape"/>
</filter>
<filter id="filter2_d_1067_27020" x="94.4287" y="172.077" width="34.3359" height="20.4845" filterUnits="userSpaceOnUse" color-interpolation-filters="sRGB">
<feFlood flood-opacity="0" result="BackgroundImageFix"/>
<feColorMatrix in="SourceAlpha" type="matrix" values="0 0 0 0 0 0 0 0 0 0 0 0 0 0 0 0 0 0 127 0" result="hardAlpha"/>
<feOffset dy="5.51"/>
<feComposite in2="hardAlpha" operator="out"/>
<feColorMatrix type="matrix" values="0 0 0 0 0.976471 0 0 0 0 0.709804 0 0 0 0 1 0 0 0 1 0"/>
<feBlend mode="normal" in2="BackgroundImageFix" result="effect1_dropShadow_1067_27020"/>
<feBlend mode="normal" in="SourceGraphic" in2="effect1_dropShadow_1067_27020" result="shape"/>
</filter>
<filter id="filter3_d_1067_27020" x="135.115" y="107.148" width="51.4346" height="72.4266" filterUnits="userSpaceOnUse" color-interpolation-filters="sRGB">
<feFlood flood-opacity="0" result="BackgroundImageFix"/>
<feColorMatrix in="SourceAlpha" type="matrix" values="0 0 0 0 0 0 0 0 0 0 0 0 0 0 0 0 0 0 127 0" result="hardAlpha"/>
<feOffset dy="5.51"/>
<feComposite in2="hardAlpha" operator="out"/>
<feColorMatrix type="matrix" values="0 0 0 0 0.976471 0 0 0 0 0.709804 0 0 0 0 1 0 0 0 1 0"/>
<feBlend mode="normal" in2="BackgroundImageFix" result="effect1_dropShadow_1067_27020"/>
<feBlend mode="normal" in="SourceGraphic" in2="effect1_dropShadow_1067_27020" result="shape"/>
</filter>
<filter id="filter4_d_1067_27020" x="131.118" y="41.8552" width="21.5986" height="25.4662" filterUnits="userSpaceOnUse" color-interpolation-filters="sRGB">
<feFlood flood-opacity="0" result="BackgroundImageFix"/>
<feColorMatrix in="SourceAlpha" type="matrix" values="0 0 0 0 0 0 0 0 0 0 0 0 0 0 0 0 0 0 127 0" result="hardAlpha"/>
<feOffset dy="5.51"/>
<feComposite in2="hardAlpha" operator="out"/>
<feColorMatrix type="matrix" values="0 0 0 0 0.976471 0 0 0 0 0.709804 0 0 0 0 1 0 0 0 1 0"/>
<feBlend mode="normal" in2="BackgroundImageFix" result="effect1_dropShadow_1067_27020"/>
<feBlend mode="normal" in="SourceGraphic" in2="effect1_dropShadow_1067_27020" result="shape"/>
</filter>
<filter id="filter5_d_1067_27020" x="131.869" y="49.6616" width="19.043" height="21.3569" filterUnits="userSpaceOnUse" color-interpolation-filters="sRGB">
<feFlood flood-opacity="0" result="BackgroundImageFix"/>
<feColorMatrix in="SourceAlpha" type="matrix" values="0 0 0 0 0 0 0 0 0 0 0 0 0 0 0 0 0 0 127 0" result="hardAlpha"/>
<feOffset dy="5.51"/>
<feComposite in2="hardAlpha" operator="out"/>
<feColorMatrix type="matrix" values="0 0 0 0 0.976471 0 0 0 0 0.709804 0 0 0 0 1 0 0 0 1 0"/>
<feBlend mode="normal" in2="BackgroundImageFix" result="effect1_dropShadow_1067_27020"/>
<feBlend mode="normal" in="SourceGraphic" in2="effect1_dropShadow_1067_27020" result="shape"/>
</filter>
<filter id="filter6_d_1067_27020" x="144.618" y="32.145" width="12.5889" height="18.0986" filterUnits="userSpaceOnUse" color-interpolation-filters="sRGB">
<feFlood flood-opacity="0" result="BackgroundImageFix"/>
<feColorMatrix in="SourceAlpha" type="matrix" values="0 0 0 0 0 0 0 0 0 0 0 0 0 0 0 0 0 0 127 0" result="hardAlpha"/>
<feOffset dy="5.51"/>
<feComposite in2="hardAlpha" operator="out"/>
<feColorMatrix type="matrix" values="0 0 0 0 0.976471 0 0 0 0 0.709804 0 0 0 0 1 0 0 0 1 0"/>
<feBlend mode="normal" in2="BackgroundImageFix" result="effect1_dropShadow_1067_27020"/>
<feBlend mode="normal" in="SourceGraphic" in2="effect1_dropShadow_1067_27020" result="shape"/>
</filter>
<filter id="filter7_d_1067_27020" x="151.421" y="18.3695" width="18.3887" height="23.8989" filterUnits="userSpaceOnUse" color-interpolation-filters="sRGB">
<feFlood flood-opacity="0" result="BackgroundImageFix"/>
<feColorMatrix in="SourceAlpha" type="matrix" values="0 0 0 0 0 0 0 0 0 0 0 0 0 0 0 0 0 0 127 0" result="hardAlpha"/>
<feOffset dy="5.51"/>
<feComposite in2="hardAlpha" operator="out"/>
<feColorMatrix type="matrix" values="0 0 0 0 0.976471 0 0 0 0 0.709804 0 0 0 0 1 0 0 0 1 0"/>
<feBlend mode="normal" in2="BackgroundImageFix" result="effect1_dropShadow_1067_27020"/>
<feBlend mode="normal" in="SourceGraphic" in2="effect1_dropShadow_1067_27020" result="shape"/>
</filter>
<filter id="filter8_d_1067_27020" x="106.922" y="100.01" width="49.0293" height="82.4823" filterUnits="userSpaceOnUse" color-interpolation-filters="sRGB">
<feFlood flood-opacity="0" result="BackgroundImageFix"/>
<feColorMatrix in="SourceAlpha" type="matrix" values="0 0 0 0 0 0 0 0 0 0 0 0 0 0 0 0 0 0 127 0" result="hardAlpha"/>
<feOffset dy="5.51"/>
<feComposite in2="hardAlpha" operator="out"/>
<feColorMatrix type="matrix" values="0 0 0 0 0.976471 0 0 0 0 0.709804 0 0 0 0 1 0 0 0 1 0"/>
<feBlend mode="normal" in2="BackgroundImageFix" result="effect1_dropShadow_1067_27020"/>
<feBlend mode="normal" in="SourceGraphic" in2="effect1_dropShadow_1067_27020" result="shape"/>
</filter>
<filter id="filter9_d_1067_27020" x="131.229" y="60.2247" width="32.5039" height="36.5601" filterUnits="userSpaceOnUse" color-interpolation-filters="sRGB">
<feFlood flood-opacity="0" result="BackgroundImageFix"/>
<feColorMatrix in="SourceAlpha" type="matrix" values="0 0 0 0 0 0 0 0 0 0 0 0 0 0 0 0 0 0 127 0" result="hardAlpha"/>
<feOffset dy="5.51"/>
<feComposite in2="hardAlpha" operator="out"/>
<feColorMatrix type="matrix" values="0 0 0 0 0.976471 0 0 0 0 0.709804 0 0 0 0 1 0 0 0 1 0"/>
<feBlend mode="normal" in2="BackgroundImageFix" result="effect1_dropShadow_1067_27020"/>
<feBlend mode="normal" in="SourceGraphic" in2="effect1_dropShadow_1067_27020" result="shape"/>
</filter>
<filter id="filter10_d_1067_27020" x="114.317" y="64.2899" width="51.8516" height="45.4759" filterUnits="userSpaceOnUse" color-interpolation-filters="sRGB">
<feFlood flood-opacity="0" result="BackgroundImageFix"/>
<feColorMatrix in="SourceAlpha" type="matrix" values="0 0 0 0 0 0 0 0 0 0 0 0 0 0 0 0 0 0 127 0" result="hardAlpha"/>
<feOffset dy="5.51"/>
<feComposite in2="hardAlpha" operator="out"/>
<feColorMatrix type="matrix" values="0 0 0 0 0.976471 0 0 0 0 0.709804 0 0 0 0 1 0 0 0 1 0"/>
<feBlend mode="normal" in2="BackgroundImageFix" result="effect1_dropShadow_1067_27020"/>
<feBlend mode="normal" in="SourceGraphic" in2="effect1_dropShadow_1067_27020" result="shape"/>
</filter>
<filter id="filter11_d_1067_27020" x="139.688" y="44.1742" width="5.72363" height="6.35799" filterUnits="userSpaceOnUse" color-interpolation-filters="sRGB">
<feFlood flood-opacity="0" result="BackgroundImageFix"/>
<feColorMatrix in="SourceAlpha" type="matrix" values="0 0 0 0 0 0 0 0 0 0 0 0 0 0 0 0 0 0 127 0" result="hardAlpha"/>
<feOffset dy="5.51"/>
<feComposite in2="hardAlpha" operator="out"/>
<feColorMatrix type="matrix" values="0 0 0 0 0.976471 0 0 0 0 0.709804 0 0 0 0 1 0 0 0 1 0"/>
<feBlend mode="normal" in2="BackgroundImageFix" result="effect1_dropShadow_1067_27020"/>
<feBlend mode="normal" in="SourceGraphic" in2="effect1_dropShadow_1067_27020" result="shape"/>
</filter>
</defs>
</svg>
