<svg width="212" height="212" viewBox="0 0 212 212" fill="none" xmlns="http://www.w3.org/2000/svg">
<path d="M24.9061 159.06H186.414V197.167H24.9061V159.06Z" fill="#C7B8F8"/>
<path d="M73.4469 184.749C73.4681 184.751 73.4894 184.751 73.5105 184.749C73.5657 184.741 73.6186 184.722 73.6664 184.693C73.7142 184.664 73.7558 184.626 73.7889 184.581C73.822 184.537 73.8459 184.486 73.8592 184.431C73.8726 184.377 73.8751 184.321 73.8667 184.266L54.4835 56.1246C54.3966 55.549 54.4349 54.9613 54.5959 54.4019C54.7568 53.8424 55.0367 53.3243 55.4163 52.8829C55.7959 52.4415 56.2663 52.0873 56.7953 51.8444C57.3244 51.6015 57.8997 51.4756 58.4818 51.4754H82.0753C83.024 51.4749 83.9426 51.8081 84.6705 52.4165C85.3983 53.025 85.889 53.8701 86.0567 54.8038L109.044 182.676C109.051 182.733 109.07 182.788 109.099 182.838C109.128 182.888 109.167 182.931 109.213 182.966C109.26 183 109.313 183.024 109.369 183.037C109.425 183.05 109.483 183.052 109.54 183.041C109.597 183.031 109.651 183.009 109.699 182.978C109.747 182.946 109.788 182.904 109.82 182.856C109.851 182.808 109.873 182.753 109.882 182.697C109.892 182.64 109.89 182.581 109.877 182.525L86.8898 54.6533C86.6882 53.5234 86.0952 52.5005 85.2149 51.764C84.3346 51.0275 83.2231 50.6244 82.0753 50.6253H58.4924C57.7881 50.6253 57.092 50.7774 56.4518 51.0712C55.8116 51.365 55.2424 51.7935 54.7831 52.3275C54.3238 52.8615 53.9851 53.4884 53.7904 54.1653C53.5956 54.8422 53.5493 55.5532 53.6546 56.2497L73.0271 184.389C73.0424 184.489 73.0931 184.581 73.1702 184.647C73.2472 184.713 73.3454 184.749 73.4469 184.749Z" fill="black"/>
<path d="M59.6498 92.3792H93.1649C93.2773 92.3792 93.3852 92.3345 93.4647 92.255C93.5442 92.1755 93.5889 92.0677 93.5889 91.9552C93.5889 91.8428 93.5442 91.7349 93.4647 91.6554C93.3852 91.5759 93.2773 91.5312 93.1649 91.5312H59.6498C59.5373 91.5312 59.4295 91.5759 59.35 91.6554C59.2705 91.7349 59.2258 91.8428 59.2258 91.9552C59.2258 92.0677 59.2705 92.1755 59.35 92.255C59.4295 92.3345 59.5373 92.3792 59.6498 92.3792Z" fill="black"/>
<path d="M65.8217 134.317H100.59C100.702 134.317 100.81 134.273 100.889 134.193C100.969 134.114 101.014 134.006 101.014 133.893C101.014 133.781 100.969 133.673 100.889 133.593C100.81 133.514 100.702 133.469 100.59 133.469H65.8217C65.7092 133.469 65.6014 133.514 65.5219 133.593C65.4423 133.673 65.3977 133.781 65.3977 133.893C65.3977 134.006 65.4423 134.114 65.5219 134.193C65.6014 134.273 65.7092 134.317 65.8217 134.317Z" fill="black"/>
<path d="M40.022 184.75C40.1261 184.751 40.2269 184.713 40.3051 184.644C40.3833 184.575 40.4335 184.48 40.446 184.377L55.1503 60.5262C55.1638 60.4138 55.132 60.3006 55.0621 60.2115C54.9921 60.1225 54.8896 60.0648 54.7772 60.0514C54.6647 60.0379 54.5515 60.0696 54.4624 60.1396C54.3734 60.2095 54.3158 60.312 54.3023 60.4245L39.5937 184.277C39.5806 184.389 39.6123 184.501 39.6818 184.589C39.7514 184.677 39.8531 184.734 39.9647 184.748L40.022 184.75Z" fill="black"/>
<path d="M86.0421 76.8391C84.7752 76.8391 83.7483 75.8121 83.7483 74.5453C83.7483 73.2784 84.7752 72.2514 86.0421 72.2514C87.3089 72.2514 88.3359 73.2784 88.3359 74.5453C88.3359 75.8121 87.3089 76.8391 86.0421 76.8391Z" fill="#6DC8C2"/>
<path d="M69.9283 86.3959C68.288 86.3959 66.9582 85.0662 66.9582 83.4258C66.9582 81.7855 68.288 80.4557 69.9283 80.4557C71.5687 80.4557 72.8984 81.7855 72.8984 83.4258C72.8984 85.0662 71.5687 86.3959 69.9283 86.3959Z" fill="#C7B8F8"/>
<path d="M83.4712 91.9026C81.181 91.9026 79.3245 90.0461 79.3245 87.7559C79.3245 85.4657 81.181 83.6092 83.4712 83.6092C85.7614 83.6092 87.6179 85.4657 87.6179 87.7559C87.6179 90.0461 85.7614 91.9026 83.4712 91.9026Z" fill="#FFBB45"/>
<path d="M84.2873 84.078C84.5673 84.0758 84.8386 83.9814 85.0594 83.8093C85.2802 83.6372 85.438 83.397 85.5085 83.1261L86.6872 78.4621C86.7458 78.2304 86.7372 77.9868 86.6625 77.7598C86.5877 77.5328 86.4499 77.3317 86.2652 77.1801C86.0804 77.0285 85.8564 76.9325 85.6191 76.9035C85.3819 76.8745 85.1413 76.9136 84.9255 77.0163L79.3859 79.6472C79.1696 79.7489 78.9868 79.9101 78.8587 80.1119C78.7307 80.3137 78.6627 80.5477 78.6627 80.7867C78.6627 81.0257 78.7307 81.2597 78.8587 81.4615C78.9868 81.6633 79.1696 81.8245 79.3859 81.9262L83.7552 83.9529C83.9214 84.0327 84.103 84.0754 84.2873 84.078ZM85.4661 77.7392C85.5612 77.7408 85.6531 77.7744 85.7268 77.8346C85.7888 77.884 85.8348 77.9506 85.8593 78.0259C85.8838 78.1013 85.8857 78.1822 85.8646 78.2586L84.6859 82.9226C84.6712 82.9814 84.6437 83.0363 84.6054 83.0832C84.5671 83.1302 84.5188 83.1681 84.4641 83.1942C84.4094 83.2203 84.3496 83.2341 84.289 83.2344C84.2284 83.2347 84.1685 83.2216 84.1135 83.1961L79.7527 81.163C79.6822 81.1294 79.6227 81.0765 79.581 81.0105C79.5394 80.9444 79.5173 80.868 79.5173 80.7899C79.5173 80.7118 79.5394 80.6353 79.581 80.5693C79.6227 80.5033 79.6822 80.4504 79.7527 80.4168L85.2922 77.7858C85.3462 77.758 85.4054 77.7421 85.4661 77.7392Z" fill="black"/>
<path d="M77.1826 91.5328H62.8175C63.3312 90.0361 64.2995 88.7374 65.5872 87.8179C66.875 86.8984 68.4177 86.4041 70.0001 86.4041C71.5824 86.4041 73.1251 86.8984 74.4129 87.8179C75.7006 88.7374 76.6689 90.0361 77.1826 91.5328Z" fill="#FFC1EB"/>
<path d="M67.8395 89.5769C68.6433 89.5769 69.4291 89.3385 70.0974 88.892C70.7657 88.4454 71.2866 87.8107 71.5942 87.0681C71.9018 86.3255 71.9823 85.5083 71.8255 84.72C71.6687 83.9316 71.2816 83.2075 70.7132 82.6391C70.1449 82.0708 69.4207 81.6837 68.6324 81.5269C67.844 81.3701 67.0269 81.4506 66.2843 81.7581C65.5417 82.0657 64.907 82.5866 64.4604 83.255C64.0138 83.9233 63.7755 84.709 63.7755 85.5128C63.7766 86.5903 64.2051 87.6234 64.9671 88.3853C65.729 89.1472 66.762 89.5757 67.8395 89.5769ZM67.8395 82.2968C68.4756 82.2968 69.0974 82.4854 69.6263 82.8388C70.1551 83.1922 70.5673 83.6945 70.8108 84.2821C71.0542 84.8698 71.1179 85.5164 70.9938 86.1403C70.8697 86.7641 70.5634 87.3371 70.1136 87.7869C69.6638 88.2367 69.0908 88.543 68.4669 88.6671C67.8431 88.7912 67.1965 88.7275 66.6088 88.4841C66.0211 88.2406 65.5189 87.8284 65.1655 87.2996C64.8121 86.7707 64.6235 86.1489 64.6235 85.5128C64.6246 84.6602 64.9638 83.8429 65.5667 83.24C66.1696 82.6371 66.9869 82.2979 67.8395 82.2968Z" fill="#FB6D6D"/>
<path d="M74.412 96.2024C74.8185 96.1995 75.2233 96.1497 75.6183 96.054C77.009 95.7296 78.4612 94.8964 79.7056 93.7071C80.9501 92.5178 81.8532 91.1059 82.2496 89.7321C82.6609 88.2778 82.4617 87.0291 81.6794 86.2129C80.8971 85.3967 79.6611 85.136 78.192 85.4794C76.8013 85.8038 75.349 86.6369 74.1025 87.8284C72.8559 89.0198 71.9549 90.4296 71.5585 91.8034C71.1472 93.2556 71.3465 94.5042 72.1309 95.3204C72.6821 95.9034 73.4707 96.2024 74.412 96.2024ZM79.3855 86.179C79.6916 86.162 79.9978 86.2081 80.2852 86.3146C80.5727 86.4212 80.8351 86.5857 81.0561 86.798C81.62 87.3895 81.7515 88.3478 81.425 89.501C81.0773 90.7306 80.259 92.0069 79.1205 93.0923C77.9821 94.1778 76.6698 94.9388 75.4254 95.2293C74.2594 95.5006 73.3054 95.3268 72.7436 94.7353C72.1818 94.1438 72.0482 93.1856 72.3747 92.0344C72.7224 90.8027 73.5407 89.5265 74.6791 88.441C75.8176 87.3535 77.1299 86.5945 78.3764 86.3041C78.7063 86.2246 79.0441 86.1827 79.3834 86.179H79.3855Z" fill="#FB6D6D"/>
<path d="M83.8876 117.957C83.9745 117.957 84.0593 117.931 84.1306 117.881C84.2019 117.831 84.2562 117.761 84.2862 117.679C85.8402 113.439 89.052 110.003 89.0838 109.969C89.1486 109.885 89.1799 109.781 89.1715 109.675C89.1631 109.57 89.1156 109.471 89.0384 109.399C88.9611 109.327 88.8597 109.286 88.7539 109.285C88.6482 109.284 88.5458 109.322 88.4668 109.392C88.329 109.536 85.1045 112.996 83.4891 117.391C83.4698 117.443 83.461 117.499 83.4633 117.555C83.4655 117.61 83.4787 117.665 83.5022 117.716C83.5256 117.766 83.5588 117.812 83.5998 117.85C83.6409 117.887 83.689 117.917 83.7414 117.936C83.7886 117.951 83.838 117.958 83.8876 117.957Z" fill="black"/>
<path d="M82.3621 118.397C82.4746 118.397 82.5824 118.352 82.6619 118.272C82.7415 118.193 82.7861 118.085 82.7861 117.973V114.279C82.7861 114.167 82.7415 114.059 82.6619 113.98C82.5824 113.9 82.4746 113.855 82.3621 113.855C82.2497 113.855 82.1418 113.9 82.0623 113.98C81.9828 114.059 81.9381 114.167 81.9381 114.279V117.973C81.9381 118.028 81.9491 118.083 81.9704 118.135C81.9917 118.186 82.023 118.233 82.0623 118.272C82.1017 118.312 82.1484 118.343 82.1999 118.364C82.2513 118.386 82.3065 118.397 82.3621 118.397Z" fill="black"/>
<path d="M74.412 123.525C74.412 122.643 74.7627 121.796 75.3869 121.172C76.0111 120.548 76.8577 120.197 77.7404 120.197H78.4824V117.681H87.6641V120.203H88.404C88.8411 120.203 89.2739 120.29 89.6777 120.457C90.0816 120.624 90.4485 120.869 90.7576 121.178C91.0666 121.487 91.3118 121.854 91.4791 122.258C91.6463 122.662 91.7324 123.095 91.7324 123.532C91.7324 124.415 91.3817 125.261 90.7576 125.885C90.1334 126.51 89.2868 126.86 88.404 126.86C89.2864 126.86 90.1327 127.211 90.7568 127.834C91.3809 128.458 91.7319 129.304 91.7324 130.187C91.7324 130.624 91.6463 131.056 91.4791 131.46C91.3118 131.864 91.0666 132.231 90.7576 132.54C90.4485 132.849 90.0816 133.094 89.6777 133.262C89.2739 133.429 88.8411 133.515 88.404 133.515H77.7447C77.3076 133.515 76.8748 133.429 76.4709 133.262C76.0671 133.094 75.7002 132.849 75.3911 132.54C75.0821 132.231 74.8369 131.864 74.6696 131.46C74.5023 131.056 74.4163 130.624 74.4163 130.187C74.4168 129.304 74.7677 128.458 75.3919 127.834C76.016 127.211 76.8623 126.86 77.7447 126.86C77.3067 126.861 76.8729 126.775 76.4682 126.607C76.0634 126.44 75.6957 126.194 75.3861 125.885C75.0765 125.575 74.8311 125.207 74.6639 124.802C74.4968 124.397 74.4112 123.963 74.412 123.525Z" fill="#6DC8C2"/>
<path d="M77.6075 126.445H81.3662V127.293H77.6075V126.445Z" fill="black"/>
<path d="M86.6362 126.424H88.6057V127.272H86.6362V126.424Z" fill="black"/>
<path d="M83.0746 118.463C80.494 118.463 78.4021 118.028 78.4021 117.49C78.4021 116.953 80.494 116.517 83.0746 116.517C85.6551 116.517 87.7471 116.953 87.7471 117.49C87.7471 118.028 85.6551 118.463 83.0746 118.463Z" fill="black"/>
<path d="M82.3616 114.281C81.1439 114.281 80.1568 113.294 80.1568 112.076C80.1568 110.858 81.1439 109.871 82.3616 109.871C83.5793 109.871 84.5664 110.858 84.5664 112.076C84.5664 113.294 83.5793 114.281 82.3616 114.281Z" fill="#FFBB45"/>
<path d="M89.5709 111.138C88.2666 111.138 87.2093 110.081 87.2093 108.776C87.2093 107.472 88.2666 106.415 89.5709 106.415C90.8753 106.415 91.9326 107.472 91.9326 108.776C91.9326 110.081 90.8753 111.138 89.5709 111.138Z" fill="#FFBB45"/>
<path d="M93.1003 169.021L109.289 176.522C109.716 176.72 109.902 177.227 109.704 177.654L109.391 178.329C109.193 178.756 108.687 178.942 108.26 178.744L92.0709 171.243C91.6439 171.045 91.4581 170.539 91.656 170.112L91.9688 169.436C92.1667 169.009 92.6733 168.824 93.1003 169.021Z" fill="black"/>
<path d="M92.308 163.876L100.364 165.996L111.248 171.037L109.391 175.046C109.221 175.412 108.912 175.696 108.533 175.836C108.154 175.975 107.735 175.958 107.368 175.788L93.0436 169.15L92.308 163.876Z" fill="white"/>
<path d="M94.1658 172.218L85.0032 167.978C84.667 167.821 84.4067 167.537 84.2792 167.189C84.1517 166.84 84.1673 166.456 84.3227 166.119C84.9636 164.736 86.1276 163.663 87.5588 163.138C88.99 162.613 90.5712 162.678 91.9547 163.318C93.3379 163.959 94.41 165.123 94.9352 166.554C95.4604 167.986 95.3956 169.567 94.7552 170.95L94.1658 172.218Z" fill="black"/>
<path d="M142.329 187.72C142.432 187.721 142.532 187.684 142.61 187.616C142.688 187.549 142.739 187.455 142.753 187.353L148.458 145.203C148.465 145.147 148.462 145.091 148.447 145.036C148.433 144.982 148.408 144.931 148.374 144.886C148.34 144.842 148.298 144.804 148.249 144.776C148.2 144.748 148.147 144.729 148.091 144.722C148.035 144.714 147.979 144.718 147.924 144.732C147.87 144.747 147.819 144.771 147.774 144.805C147.73 144.84 147.692 144.882 147.664 144.931C147.636 144.979 147.617 145.033 147.61 145.089L141.909 187.238C141.894 187.35 141.924 187.462 141.992 187.552C142.06 187.641 142.16 187.7 142.272 187.715L142.329 187.72Z" fill="black"/>
<path d="M173.274 187.72H173.334C173.445 187.704 173.545 187.645 173.613 187.555C173.681 187.465 173.71 187.352 173.694 187.241L167.735 145.087C167.719 144.974 167.659 144.873 167.569 144.804C167.478 144.736 167.364 144.706 167.251 144.722C167.139 144.738 167.037 144.798 166.969 144.888C166.901 144.979 166.871 145.093 166.887 145.205L172.855 187.355C172.869 187.456 172.919 187.549 172.996 187.616C173.073 187.683 173.172 187.72 173.274 187.72Z" fill="black"/>
<path d="M144.438 173.748H170.926C171.038 173.748 171.146 173.703 171.225 173.624C171.305 173.544 171.35 173.436 171.35 173.324C171.35 173.212 171.305 173.104 171.225 173.024C171.146 172.945 171.038 172.9 170.926 172.9H144.438C144.326 172.9 144.218 172.945 144.139 173.024C144.059 173.104 144.014 173.212 144.014 173.324C144.014 173.436 144.059 173.544 144.139 173.624C144.218 173.703 144.326 173.748 144.438 173.748Z" fill="black"/>
<path d="M170.923 145.146H145.258C143.64 145.146 142.328 143.834 142.328 142.216V138.129C142.328 136.511 143.64 135.199 145.258 135.199H170.923C172.541 135.199 173.853 136.511 173.853 138.129V142.216C173.853 143.834 172.541 145.146 170.923 145.146Z" fill="#FFC1EB"/>
<path d="M171.827 123.751H145.525V112.997H170.008C170.835 114.837 171.405 116.781 171.704 118.776C171.946 120.423 171.987 122.094 171.827 123.751Z" fill="black"/>
<path d="M118.981 184.971H136.823C137.293 184.971 137.675 185.352 137.675 185.823V186.567C137.675 187.038 137.293 187.419 136.823 187.419H118.981C118.51 187.419 118.128 187.038 118.128 186.567V185.823C118.128 185.352 118.51 184.971 118.981 184.971Z" fill="black"/>
<path d="M116.096 180.624L124.298 179.161H136.293V183.592C136.293 183.997 136.132 184.384 135.847 184.67C135.561 184.956 135.173 185.117 134.769 185.117H118.981L116.096 180.624Z" fill="white"/>
<path d="M105.925 170.8L100.994 167.196C99.4624 166.077 98.4371 164.396 98.1434 162.521C97.8497 160.647 98.3116 158.733 99.4276 157.198L121.02 127.591C122.661 125.34 125.13 123.833 127.882 123.402C130.635 122.971 133.446 123.651 135.697 125.292C137.948 126.934 139.454 129.402 139.885 132.155C140.316 134.907 139.636 137.718 137.995 139.969L116.748 169.106C115.537 170.766 113.717 171.877 111.687 172.195C109.658 172.512 107.585 172.011 105.925 170.8Z" fill="black"/>
<path d="M157.167 138.826H119.643V131.453C119.643 128.616 120.77 125.896 122.775 123.89C124.781 121.884 127.502 120.757 130.338 120.757H171.858V124.134C171.858 126.064 171.478 127.974 170.74 129.757C170.002 131.539 168.92 133.159 167.555 134.523C166.191 135.887 164.571 136.969 162.789 137.708C161.007 138.446 159.096 138.826 157.167 138.826Z" fill="black"/>
<path d="M132.914 180.2H126.812C124.913 180.2 123.091 179.446 121.748 178.103C120.405 176.76 119.651 174.938 119.651 173.039V137.921H140.66V172.454C140.66 173.471 140.46 174.479 140.071 175.418C139.682 176.358 139.111 177.213 138.392 177.932C137.673 178.651 136.818 179.222 135.878 179.611C134.938 180 133.931 180.2 132.914 180.2Z" fill="black"/>
<path d="M108.444 170.946C108.512 170.947 108.579 170.931 108.64 170.9C108.7 170.869 108.752 170.824 108.792 170.768L120.479 154.184C120.511 154.138 120.533 154.086 120.545 154.031C120.557 153.977 120.558 153.92 120.548 153.865C120.538 153.811 120.517 153.758 120.487 153.711C120.456 153.664 120.417 153.624 120.371 153.592C120.325 153.56 120.274 153.538 120.219 153.526C120.164 153.515 120.108 153.514 120.053 153.524C119.998 153.534 119.946 153.554 119.899 153.585C119.852 153.615 119.811 153.654 119.78 153.7L108.099 170.279C108.066 170.324 108.043 170.376 108.031 170.43C108.019 170.484 108.017 170.541 108.027 170.595C108.036 170.65 108.056 170.703 108.086 170.75C108.116 170.797 108.155 170.838 108.2 170.87C108.272 170.92 108.357 170.947 108.444 170.946Z" fill="white"/>
<path d="M134.007 180.543C134.12 180.543 134.227 180.499 134.307 180.419C134.386 180.34 134.431 180.232 134.431 180.119V137.045C134.432 135.675 134.977 134.362 135.946 133.393C136.914 132.425 138.228 131.88 139.598 131.879H156.087C158.044 131.877 159.92 131.098 161.304 129.714C162.688 128.33 163.467 126.454 163.469 124.497V120.757C163.469 120.645 163.424 120.537 163.345 120.457C163.265 120.378 163.157 120.333 163.045 120.333C162.932 120.333 162.824 120.378 162.745 120.457C162.665 120.537 162.621 120.645 162.621 120.757V124.497C162.619 126.229 161.93 127.89 160.705 129.115C159.48 130.34 157.819 131.029 156.087 131.031H139.598C138.003 131.033 136.475 131.667 135.347 132.795C134.22 133.922 133.585 135.451 133.583 137.045V180.119C133.583 180.232 133.628 180.34 133.707 180.419C133.787 180.499 133.895 180.543 134.007 180.543Z" fill="white"/>
<path d="M121.292 187.418H111.192C110.821 187.418 110.465 187.271 110.203 187.008C109.941 186.746 109.793 186.39 109.793 186.019C109.793 184.494 110.399 183.032 111.476 181.954C112.554 180.876 114.016 180.27 115.54 180.269C117.065 180.269 118.528 180.875 119.606 181.953C120.684 183.032 121.29 184.494 121.29 186.019L121.292 187.418Z" fill="black"/>
<path d="M120.135 165.376C120.247 165.376 120.355 165.331 120.434 165.251C120.514 165.172 120.559 165.064 120.559 164.952V130.128C120.559 130.016 120.514 129.908 120.434 129.829C120.355 129.749 120.247 129.704 120.135 129.704C120.022 129.704 119.914 129.749 119.835 129.829C119.755 129.908 119.711 130.016 119.711 130.128V164.952C119.711 165.064 119.755 165.172 119.835 165.251C119.914 165.331 120.022 165.376 120.135 165.376Z" fill="white"/>
<path d="M133.666 123.751L121.643 106.551C121.643 106.551 111.467 106.186 107.666 98.5225C107.536 98.2826 107.452 98.02 107.42 97.7487C107.374 97.3426 107.442 96.9316 107.615 96.5615C107.457 96.3769 107.316 96.179 107.191 95.9701C106.912 95.4973 106.64 95.033 106.929 94.4861C107.044 94.2467 107.248 94.0615 107.498 93.969C107.747 93.8766 108.022 93.8841 108.266 93.99C108.012 93.4939 108.016 92.983 108.281 92.6883C108.39 92.5691 108.533 92.4868 108.69 92.453C109.434 92.277 110.265 93.1187 110.503 93.3519C111.461 94.2995 113.342 95.8174 116.081 97.9162C116.081 97.9162 112.163 94.9758 113.325 93.4918C113.674 93.0487 114.332 93.3243 114.715 93.5427C115.423 93.9497 115.866 94.6663 116.46 95.1963C117.232 95.8531 118.142 96.3271 119.123 96.5827C120.679 97.0216 122.258 97.0258 123.757 97.683C124.437 97.9779 125.078 98.356 125.665 98.8087C126.352 99.3451 126.765 100.096 127.391 100.657L137.041 109.305L133.666 123.751Z" fill="white"/>
<path d="M133.861 124.773L137.521 109.154L129.191 101.692C128.275 100.872 127.875 100.513 127.671 100.354L127.684 100.342C127.427 100.098 127.189 99.8346 126.971 99.5551C126.668 99.1555 126.321 98.792 125.935 98.4718C125.32 97.9979 124.648 97.602 123.936 97.2931C122.984 96.8691 122.006 96.708 121.059 96.5469C120.449 96.4543 119.845 96.3297 119.248 96.1737C118.328 95.9363 117.474 95.4926 116.751 94.8763C116.545 94.6846 116.349 94.4822 116.164 94.27C115.818 93.8396 115.403 93.4693 114.936 93.1739C113.757 92.4998 113.189 92.9853 113.001 93.2269C112.876 93.3848 112.785 93.567 112.734 93.7619C112.683 93.9569 112.674 94.1602 112.706 94.359C112.727 94.5123 112.764 94.6629 112.816 94.8085C111.902 94.0601 111.241 93.4835 110.8 93.0489C110.48 92.7309 109.551 91.8129 108.593 92.0376C108.348 92.0913 108.126 92.2194 107.957 92.4044C107.834 92.5534 107.745 92.727 107.694 92.9134C107.644 93.0999 107.634 93.2949 107.665 93.4856C107.428 93.5201 107.203 93.6106 107.009 93.7497C106.815 93.8887 106.656 94.0722 106.547 94.2848C106.147 95.048 106.522 95.6798 106.821 96.1928C106.913 96.3477 107.014 96.4971 107.124 96.6401C106.993 97.0139 106.948 97.4125 106.993 97.8061C107.031 98.1295 107.131 98.4425 107.287 98.7283C108.881 101.953 111.873 104.408 115.933 105.818C117.702 106.432 119.542 106.819 121.409 106.969L133.861 124.773ZM136.579 109.451L133.469 122.729L121.871 106.133H121.659C121.559 106.133 111.68 105.684 108.044 98.3404C107.91 98.0977 107.837 97.8266 107.829 97.5497C107.821 97.2728 107.88 96.998 108 96.7483L108.114 96.5002L107.936 96.2882C107.794 96.1226 107.667 95.9445 107.556 95.7561C107.253 95.2473 107.132 94.9929 107.302 94.6834C107.367 94.5411 107.485 94.4295 107.63 94.3718C107.775 94.3141 107.937 94.3149 108.082 94.3739L109.214 94.9145L108.642 93.7972C108.474 93.4686 108.455 93.1273 108.595 92.9683C108.647 92.9153 108.713 92.8791 108.786 92.8644C109.015 92.8114 109.443 92.9026 110.187 93.6382L110.202 93.6531C111.11 94.5519 112.803 95.9342 115.689 98.1559L115.827 98.2619L116.34 97.5857L116.208 97.486C115.409 96.8606 113.685 95.3173 113.548 94.2573C113.531 94.1705 113.533 94.0813 113.553 93.9953C113.574 93.9094 113.612 93.8289 113.666 93.7591C113.836 93.5471 114.402 93.8545 114.514 93.9181C114.901 94.1712 115.245 94.4839 115.534 94.8445C115.739 95.0811 115.957 95.3062 116.187 95.5187C117.005 96.2225 117.973 96.73 119.017 97.0027C119.645 97.1697 120.282 97.302 120.925 97.3991C121.862 97.5581 122.746 97.7086 123.603 98.0839C124.251 98.3644 124.862 98.7247 125.422 99.1566C125.757 99.4382 126.06 99.7568 126.325 100.106C126.568 100.42 126.835 100.714 127.124 100.986L136.579 109.451Z" fill="black"/>
<path d="M107.697 96.6571C107.697 96.6571 110.092 100.244 112.407 101.357L107.697 96.6571Z" fill="white"/>
<path d="M112.222 101.739L112.591 100.973C110.405 99.9134 108.073 96.4556 108.05 96.4217L107.344 96.8924C107.443 97.0429 109.831 100.59 112.222 101.739Z" fill="black"/>
<path d="M108.265 93.9885C108.265 93.9885 111.598 98.4405 113.701 99.2991L108.265 93.9885Z" fill="white"/>
<path d="M113.539 99.6909L113.864 98.9066C111.892 98.0967 108.638 93.7783 108.606 93.7359L107.928 94.2426C108.067 94.4291 111.356 98.7921 113.539 99.6909Z" fill="black"/>
<path d="M156.12 76.3201L151.427 75.8325C149.287 75.6101 147.324 74.5473 145.968 72.8776C144.612 71.2079 143.974 69.0681 144.195 66.9285L144.649 62.5762C144.746 61.6338 145.028 60.7199 145.479 59.8867C145.93 59.0535 146.541 58.3174 147.277 57.7204C148.012 57.1234 148.858 56.6772 149.766 56.4075C150.675 56.1378 151.627 56.0497 152.569 56.1483L156.22 56.5278C158.861 56.8032 161.285 58.1158 162.959 60.1773C164.633 62.2389 165.42 64.8806 165.147 67.5221L164.98 69.1291C164.758 71.2575 163.701 73.2108 162.039 74.5594C160.378 75.908 158.249 76.5413 156.12 76.3201Z" fill="black"/>
<path d="M161.35 70.6936C161.469 69.9738 161.297 69.2364 160.872 68.6431C160.448 68.0498 159.806 67.649 159.086 67.5284C158.958 67.5088 158.829 67.4975 158.7 67.4945L159.362 60.2717L149.037 59.6781C147.975 59.618 146.929 59.9529 146.099 60.6183C145.269 61.2837 144.715 62.2325 144.543 63.2821L144.331 64.5541C144.125 65.7985 143.58 66.9621 142.756 67.9164C142.58 68.1126 142.484 68.3681 142.489 68.6316C142.494 68.8951 142.598 69.1471 142.781 69.3368L143.432 70.0046L142.987 72.6949C142.898 73.2294 142.927 73.7768 143.07 74.2994C143.213 74.822 143.467 75.3074 143.816 75.7223C144.164 76.1372 144.598 76.4718 145.088 76.7031C145.578 76.9343 146.113 77.0568 146.654 77.0621L149.328 77.0875L149.116 81.6328L157.574 82.0292C157.7 80.4505 157.825 78.8711 157.948 77.291C158.037 75.8494 158.125 74.4078 158.213 72.9662C158.929 73.0764 159.661 72.8997 160.248 72.4743C160.835 72.0488 161.231 71.409 161.35 70.6936Z" fill="white"/>
<path d="M157.953 82.468L158.364 77.3164L158.601 73.4177H158.64C159.389 73.4129 160.112 73.1438 160.682 72.6579C161.252 72.1719 161.633 71.5002 161.756 70.7613C161.892 69.932 161.695 69.0825 161.206 68.3984C160.718 67.7144 159.979 67.2514 159.151 67.1107L159.814 59.873L149.044 59.254C147.879 59.1865 146.73 59.5527 145.818 60.2819C144.907 61.0111 144.297 62.0518 144.107 63.2035L143.895 64.4755C143.701 65.644 143.188 66.736 142.411 67.6301C142.163 67.9065 142.029 68.2668 142.036 68.6382C142.043 69.0097 142.191 69.3646 142.449 69.6314L142.952 70.1444L142.54 72.6227C142.441 73.2176 142.473 73.827 142.632 74.4088C142.791 74.9906 143.074 75.531 143.462 75.9929C143.849 76.4549 144.333 76.8273 144.878 77.0847C145.423 77.3421 146.018 77.4782 146.621 77.4838L148.854 77.505L148.642 82.0355L157.953 82.468ZM157.804 72.4679L157.512 77.2591L157.17 81.5818L149.538 81.2256L149.75 76.6634L146.638 76.6337C146.158 76.6295 145.683 76.5212 145.249 76.3162C144.814 76.1113 144.428 75.8146 144.119 75.4465C143.81 75.0784 143.584 74.6478 143.457 74.1841C143.33 73.7204 143.305 73.2347 143.384 72.7605L143.865 69.8582L143.064 69.0378C142.957 68.9227 142.897 68.7712 142.897 68.6138C142.897 68.4563 142.957 68.3048 143.064 68.1898C143.942 67.1746 144.524 65.9372 144.745 64.6133L144.957 63.3413C145.112 62.3959 145.612 61.5416 146.36 60.9433C147.109 60.345 148.052 60.0453 149.008 60.102L158.9 60.6701L158.237 67.9078L158.69 67.9184C158.8 67.9209 158.909 67.9302 159.017 67.946C159.595 68.0782 160.101 68.4256 160.432 68.9176C160.763 69.4095 160.894 70.009 160.798 70.5941C160.703 71.1793 160.388 71.7061 159.919 72.0676C159.449 72.4291 158.859 72.598 158.269 72.54L157.804 72.4679Z" fill="black"/>
<path d="M148.346 68.1814C147.977 68.1814 147.678 67.8824 147.678 67.5136C147.678 67.1448 147.977 66.8458 148.346 66.8458C148.715 66.8458 149.014 67.1448 149.014 67.5136C149.014 67.8824 148.715 68.1814 148.346 68.1814Z" fill="black"/>
<path d="M158.18 71.8037C158.406 71.8031 158.628 71.7376 158.819 71.6151C159.01 71.4926 159.161 71.3181 159.256 71.1121C159.351 70.9062 159.385 70.6774 159.354 70.4528C159.324 70.2281 159.229 70.017 159.082 69.8442C158.936 69.6714 158.742 69.5442 158.526 69.4776C158.309 69.411 158.078 69.4077 157.859 69.4682C157.641 69.5286 157.444 69.6503 157.292 69.8188C157.14 69.9873 157.04 70.1957 157.003 70.4194C156.977 70.5735 156.982 70.7313 157.017 70.8837C157.052 71.036 157.117 71.1799 157.208 71.307C157.299 71.4341 157.414 71.5419 157.547 71.6243C157.68 71.7066 157.828 71.7618 157.982 71.7868C158.047 71.7987 158.113 71.8044 158.18 71.8037ZM158.18 70.2731C158.199 70.271 158.218 70.271 158.237 70.2731C158.281 70.2803 158.323 70.2962 158.362 70.3198C158.4 70.3434 158.433 70.3743 158.459 70.4108C158.485 70.4472 158.504 70.4884 158.514 70.5321C158.524 70.5758 158.526 70.621 158.519 70.6653C158.501 70.7511 158.451 70.8268 158.379 70.8773C158.342 70.9035 158.301 70.9223 158.258 70.9325C158.214 70.9426 158.169 70.9441 158.124 70.9367C158.035 70.9216 157.956 70.8719 157.903 70.7984C157.851 70.7249 157.83 70.6336 157.845 70.5445C157.852 70.5 157.867 70.4575 157.891 70.4192C157.915 70.381 157.946 70.3479 157.982 70.3219C158.04 70.2862 158.108 70.2692 158.175 70.2731H158.18Z" fill="black"/>
<path d="M149.837 81.2891C150.944 81.0517 151.253 81.2234 156.197 80.9965L162.557 80.704C164.44 80.7348 166.262 81.3777 167.747 82.5357C170.832 84.9885 170.963 88.7049 170.974 89.2476C170.656 97.1623 170.337 105.077 170.018 112.992L141.671 113.182C141.116 111.893 140.335 110.045 139.445 107.806C137.225 102.233 136.114 99.4087 136.14 97.6301C136.199 93.4685 138.771 90.4221 141.162 87.5876C143.13 85.245 145.727 82.171 149.837 81.2891Z" fill="#C7B8F8"/>
<path d="M157.391 71.0608H157.406C157.461 71.0589 157.516 71.046 157.567 71.0229C157.618 70.9998 157.663 70.967 157.701 70.9262C157.739 70.8854 157.769 70.8376 157.788 70.7854C157.808 70.7332 157.817 70.6777 157.815 70.622C157.808 70.4264 157.853 70.2325 157.944 70.0595C158.036 69.8865 158.171 69.7406 158.336 69.6362C158.496 69.5444 158.675 69.4912 158.859 69.4809C159.043 69.4706 159.227 69.5034 159.396 69.5768C159.498 69.6243 159.615 69.6293 159.721 69.5908C159.827 69.5522 159.913 69.4732 159.96 69.3712C160.008 69.2691 160.013 69.1524 159.974 69.0466C159.936 68.9409 159.857 68.8548 159.755 68.8073C159.458 68.6748 159.133 68.6155 158.809 68.6343C158.484 68.6531 158.169 68.7495 157.889 68.9154C157.597 69.0988 157.359 69.3559 157.198 69.6606C157.037 69.9654 156.958 70.3072 156.971 70.6517C156.975 70.7608 157.021 70.8642 157.099 70.9405C157.177 71.0167 157.282 71.0598 157.391 71.0608Z" fill="black"/>
<path d="M148.585 59.6675C148.585 59.6675 146.965 68.5545 158.716 67.9037L159.337 60.2717L148.585 59.6675Z" fill="black"/>
<path d="M149.439 76.6613C149.401 77.5093 149.361 78.3573 149.32 79.2053L154.162 77.0493C154.196 77.0348 154.225 77.0091 154.242 76.9763C154.259 76.9436 154.265 76.9058 154.258 76.8695C154.25 76.8331 154.231 76.8004 154.202 76.7767C154.174 76.7531 154.138 76.7401 154.101 76.7398L149.439 76.6613Z" fill="black"/>
<path d="M147.638 73.8478C148.16 73.8319 148.667 73.6699 149.101 73.3802C149.536 73.0905 149.88 72.6848 150.095 72.2091C150.141 72.1097 150.163 72.0013 150.161 71.8919C150.159 71.7826 150.131 71.6753 150.081 71.578C150.031 71.4808 149.96 71.3962 149.872 71.3307C149.785 71.2652 149.683 71.2205 149.576 71.1999L146.184 70.5533C146.081 70.5356 145.975 70.5403 145.874 70.5673C145.773 70.5942 145.679 70.6426 145.598 70.7093C145.518 70.7759 145.453 70.8592 145.407 70.9534C145.362 71.0476 145.338 71.1505 145.336 71.2551C145.323 72.3151 145.895 73.2924 146.76 73.6697C147.038 73.7891 147.336 73.8497 147.638 73.8478ZM149.247 72.0013C148.757 72.8747 147.748 73.1779 147.095 72.8917C146.576 72.667 146.222 72.084 146.184 71.4077L149.247 72.0013Z" fill="black"/>
<path d="M128.919 104.219H145.603C147.262 104.219 148.607 105.564 148.607 107.223V123.908C148.607 125.567 147.262 126.912 145.603 126.912H128.919C127.26 126.912 125.915 125.567 125.915 123.908V107.223C125.915 105.564 127.26 104.219 128.919 104.219Z" fill="#FFC1EB"/>
<path d="M137.263 126.856C137.375 126.856 137.483 126.812 137.562 126.732C137.642 126.653 137.687 126.545 137.687 126.432V104.728C137.687 104.615 137.642 104.507 137.562 104.428C137.483 104.348 137.375 104.304 137.263 104.304C137.15 104.304 137.042 104.348 136.963 104.428C136.883 104.507 136.839 104.615 136.839 104.728V126.432C136.839 126.545 136.883 126.653 136.963 126.732C137.042 126.812 137.15 126.856 137.263 126.856Z" fill="#FB6D6D"/>
<path d="M148.803 78.9667L158.184 79.4649L158.002 82.8796L148.622 82.3814L148.803 78.9667Z" fill="#C7B8F8"/>
<path d="M164.217 67.6272C164.217 67.6272 171.718 66.2323 178.633 70.6398C181.761 72.6241 184.174 75.5558 185.519 79.0074C186.155 80.6334 186.59 82.5245 186.352 84.354C185.837 88.3502 181.707 90.8285 178.04 89.1643C175.748 88.1255 173.151 85.4352 170.893 79.2872C170.893 79.2872 168.657 72.7152 163.528 72.2912L164.217 67.6272Z" fill="black"/>
<path d="M133.277 90.4867L154.17 101.128C154.724 101.41 154.944 102.088 154.662 102.642L153.517 104.89C153.235 105.444 152.557 105.664 152.003 105.382L131.11 94.741C130.556 94.4588 130.335 93.781 130.618 93.227L131.763 90.979C132.045 90.425 132.723 90.2046 133.277 90.4867Z" fill="#FFC1EB"/>
<path d="M142.17 100.378L146.281 102.608C147.028 103.019 147.825 103.33 148.653 103.534C150.048 103.871 151.833 103.958 152.217 102.385C152.217 102.385 153.336 100.407 147.877 98.2916C147.74 98.2179 147.63 98.1009 147.566 97.9588C147.501 97.8167 147.486 97.6574 147.521 97.5054C147.556 97.3534 147.64 97.2173 147.761 97.118C147.881 97.0187 148.031 96.9618 148.187 96.956C148.845 96.9454 149.503 97.0037 150.15 97.1299C150.812 97.3078 151.458 97.5433 152.079 97.8337C153.952 98.7276 155.572 100.075 156.792 101.754C157.235 102.355 157.801 102.856 158.452 103.223L164.528 106.636C162.083 98.2047 160.317 91.9719 159.635 89.6229C159.396 88.8268 159.29 87.9965 159.323 87.1659C159.34 86.7906 159.427 84.7872 160.595 83.3647C161.984 81.6793 164.678 81.0772 166.648 81.6199C169.946 82.5315 171.299 86.6846 173.889 94.6473C175.28 98.917 176.2 103.176 176.612 105.071C177.267 108.101 177.903 110.986 177.161 114.067C176.681 116.055 175.706 118.025 173.936 119.155C173.16 119.642 172.289 119.961 171.381 120.089C170.322 120.24 169.243 120.176 168.208 119.9C167.174 119.625 166.205 119.144 165.361 118.487L156.486 111.703C155.262 110.766 153.876 110.063 152.397 109.627L150.139 108.968C148.548 108.499 147.123 107.588 146.028 106.341L141.517 101.2C141.436 101.113 141.386 101.001 141.375 100.882C141.364 100.763 141.393 100.644 141.458 100.543C141.535 100.432 141.65 100.354 141.782 100.323C141.914 100.293 142.052 100.312 142.17 100.378Z" fill="white"/>
<path d="M170.271 120.6C170.665 120.6 171.058 120.571 171.448 120.511C172.415 120.374 173.342 120.034 174.168 119.513C176.239 118.183 177.165 115.868 177.577 114.162C178.334 111.014 177.708 108.122 177.047 105.059L177.028 104.978C176.292 101.446 175.38 97.9525 174.295 94.5116C171.624 86.3008 170.282 82.1795 166.763 81.2086C164.812 80.668 161.874 81.145 160.271 83.0911C159.175 84.4225 158.942 86.2012 158.9 87.1425C158.862 88.0184 158.973 88.8943 159.228 89.7331C159.48 90.6044 159.881 92.0015 160.407 93.8438C161.268 96.8436 162.423 100.884 163.833 105.754L158.664 102.845C158.065 102.508 157.545 102.047 157.138 101.493C155.879 99.7534 154.202 98.3594 152.262 97.4393C151.618 97.1393 150.949 96.896 150.263 96.7121H150.227C149.55 96.5802 148.862 96.5198 148.172 96.5319C147.923 96.5404 147.683 96.6311 147.491 96.7899C147.298 96.9487 147.163 97.1667 147.107 97.41C147.052 97.6533 147.078 97.9082 147.182 98.1351C147.286 98.362 147.462 98.5482 147.683 98.6647L147.727 98.6859C150.776 99.8519 151.581 100.95 151.806 101.495C151.858 101.601 151.889 101.716 151.895 101.833C151.902 101.951 151.886 102.069 151.846 102.18L151.819 102.23V102.279C151.579 103.265 150.547 103.551 148.766 103.115C147.973 102.918 147.209 102.62 146.493 102.226L142.378 100.004C142.18 99.8881 141.946 99.8475 141.719 99.8902C141.493 99.933 141.29 100.056 141.147 100.237C141.004 100.418 140.932 100.644 140.943 100.874C140.955 101.104 141.049 101.322 141.208 101.488L145.709 106.619C146.857 107.927 148.352 108.882 150.021 109.375L152.283 110.043C153.715 110.463 155.058 111.143 156.245 112.048L165.117 118.832C166.597 119.968 168.406 120.588 170.271 120.6ZM165.149 81.8488C165.617 81.8454 166.082 81.9046 166.534 82.0248C169.612 82.8728 170.907 86.852 173.485 94.7745C174.561 98.1897 175.466 101.657 176.194 105.162L176.214 105.241C176.85 108.209 177.46 111.007 176.748 113.967C176.373 115.523 175.539 117.626 173.706 118.803C172.98 119.26 172.166 119.558 171.316 119.678C170.313 119.817 169.292 119.754 168.314 119.492C167.336 119.23 166.42 118.775 165.62 118.154L156.748 111.37C155.482 110.401 154.048 109.674 152.518 109.224L150.256 108.557C148.741 108.11 147.384 107.243 146.343 106.055L141.829 100.912C141.81 100.894 141.798 100.87 141.793 100.844C141.789 100.818 141.792 100.791 141.804 100.768C141.823 100.746 141.849 100.732 141.878 100.727C141.907 100.723 141.936 100.729 141.961 100.744L146.076 102.966C146.855 103.393 147.687 103.718 148.55 103.933C151.558 104.658 152.389 103.38 152.614 102.515C152.779 102.107 152.779 101.651 152.614 101.243C152.177 100.024 150.644 98.8936 148.058 97.8866C148.006 97.8578 147.965 97.8122 147.942 97.7571C147.918 97.7021 147.915 97.6409 147.931 97.5835C147.943 97.5204 147.976 97.4636 148.026 97.4229C148.076 97.3822 148.138 97.3602 148.202 97.3609C148.824 97.3523 149.446 97.4077 150.057 97.5262C150.689 97.6962 151.306 97.9211 151.899 98.1983C153.714 99.0603 155.282 100.367 156.457 101.997C156.936 102.646 157.547 103.187 158.249 103.585L165.228 107.511L164.939 106.515C163.398 101.198 162.141 96.8118 161.225 93.6106C160.697 91.7662 160.297 90.367 160.044 89.4999C159.818 88.7478 159.718 87.9633 159.75 87.1785C159.786 86.3432 159.987 84.7702 160.928 83.6296C161.927 82.4149 163.636 81.8488 165.149 81.8488Z" fill="black"/>
<path d="M169.316 109.633C169.412 109.636 169.506 109.607 169.583 109.55C169.661 109.493 169.716 109.411 169.741 109.318C169.765 109.225 169.758 109.127 169.719 109.039C169.68 108.951 169.613 108.878 169.528 108.834L164.724 106.258C164.625 106.205 164.508 106.193 164.401 106.226C164.293 106.258 164.202 106.333 164.149 106.432C164.096 106.531 164.085 106.647 164.117 106.755C164.15 106.863 164.224 106.953 164.323 107.006L169.117 109.582C169.178 109.615 169.246 109.633 169.316 109.633Z" fill="black"/>
<path d="M104.962 37.6578C106.006 37.6578 107.027 37.3482 107.895 36.7681C108.763 36.1881 109.44 35.3636 109.839 34.3991C110.239 33.4345 110.343 32.3731 110.14 31.3491C109.936 30.3251 109.433 29.3845 108.695 28.6463C107.957 27.908 107.016 27.4053 105.992 27.2016C104.968 26.9979 103.907 27.1024 102.942 27.502C101.978 27.9015 101.153 28.5781 100.573 29.4462C99.9932 30.3143 99.6836 31.3349 99.6836 32.379C99.6853 33.7785 100.242 35.1202 101.232 36.1098C102.221 37.0994 103.563 37.6561 104.962 37.6578ZM104.962 27.9482C105.839 27.9482 106.695 28.208 107.424 28.6949C108.153 29.1817 108.721 29.8737 109.056 30.6834C109.391 31.493 109.479 32.3839 109.308 33.2434C109.137 34.1029 108.715 34.8924 108.095 35.512C107.476 36.1317 106.686 36.5537 105.827 36.7246C104.967 36.8956 104.076 36.8078 103.267 36.4725C102.457 36.1371 101.765 35.5692 101.278 34.8406C100.791 34.1119 100.532 33.2553 100.532 32.379C100.533 31.2042 101 30.0778 101.831 29.2472C102.661 28.4165 103.788 27.9493 104.962 27.9482Z" fill="#FFBB45"/>
<path d="M103.576 15.8149C103.576 15.048 104.198 14.4263 104.964 14.4263C105.73 14.4263 106.352 15.048 106.352 15.8149V25.1047C106.352 25.8716 105.73 26.4933 104.964 26.4933C104.198 26.4933 103.576 25.8716 103.576 25.1047V15.8149Z" fill="black"/>
<path d="M105.183 23.1273C108.39 23.1746 111.525 24.0857 114.257 25.7646C116.99 27.4435 119.219 29.8281 120.71 32.6673C120.761 32.7641 120.786 32.8723 120.782 32.9815C120.779 33.0907 120.747 33.1972 120.691 33.2907C120.635 33.3842 120.555 33.4616 120.46 33.5154C120.365 33.5693 120.258 33.5977 120.148 33.598H89.7772C89.6676 33.5979 89.56 33.5695 89.4647 33.5155C89.3693 33.4616 89.2896 33.384 89.233 33.2901C89.1765 33.1963 89.1452 33.0895 89.1421 32.98C89.139 32.8705 89.1643 32.7621 89.2154 32.6652C90.743 29.7612 93.0417 27.3346 95.8587 25.6519C98.6757 23.9692 101.902 23.0957 105.183 23.1273Z" fill="#FFC1EB"/>
<path d="M114.291 30.8156C116.331 30.8156 117.991 29.4419 118.016 29.4207C118.102 29.3481 118.156 29.2444 118.165 29.1323C118.175 29.0202 118.139 28.9089 118.067 28.8228C117.994 28.7368 117.891 28.6831 117.778 28.6736C117.666 28.664 117.555 28.6994 117.469 28.772C117.338 28.8801 114.268 31.4071 111.658 28.7974L111.402 28.5388L111.107 28.7508C110.443 29.2025 109.709 29.5413 108.934 29.7535C107.344 30.1775 106.004 29.8489 104.946 28.7932L104.696 28.543L104.406 28.7423C104.278 28.8313 101.226 30.8792 99.1395 28.7932L98.8766 28.5303L98.5819 28.755C97.9556 29.2011 97.2571 29.5361 96.517 29.745C95.0012 30.1584 93.7038 29.8362 92.6586 28.7932C92.6202 28.7505 92.5734 28.7162 92.5212 28.6921C92.4691 28.6681 92.4125 28.655 92.3551 28.6535C92.2977 28.6519 92.2406 28.6621 92.1872 28.6833C92.1338 28.7046 92.0854 28.7364 92.0447 28.777C92.004 28.8175 91.972 28.8659 91.9505 28.9192C91.9291 28.9725 91.9188 29.0296 91.9201 29.087C91.9214 29.1444 91.9343 29.201 91.9582 29.2532C91.982 29.3055 92.0162 29.3524 92.0587 29.391C94.6027 31.9477 97.8208 30.2538 98.8003 29.6306C100.708 31.2439 103.252 30.4319 104.598 29.6306C107.142 31.8693 110.322 30.2326 111.31 29.6306C112.118 30.3888 113.183 30.8124 114.291 30.8156Z" fill="#FB6D6D"/>
<path d="M128.081 74.3358C128.206 74.3351 128.331 74.3166 128.452 74.2807C128.658 74.2173 128.845 74.1013 128.994 73.9442C129.143 73.787 129.248 73.594 129.3 73.3839L131.441 64.9251C131.495 64.7088 131.491 64.4821 131.429 64.2679C131.367 64.0538 131.249 63.8599 131.087 63.7061C130.926 63.5523 130.727 63.444 130.51 63.3922C130.293 63.3404 130.066 63.3471 129.853 63.4114L121.242 66.0233C121.028 66.088 120.835 66.2084 120.684 66.372C120.532 66.5357 120.426 66.7367 120.378 66.9546C120.329 67.1724 120.339 67.3993 120.407 67.6119C120.475 67.8245 120.599 68.0152 120.765 68.1645L127.241 74.0093C127.47 74.2192 127.77 74.3356 128.081 74.3358ZM130.226 64.2043C130.33 64.2068 130.43 64.2475 130.506 64.3188C130.559 64.3686 130.598 64.432 130.618 64.5022C130.639 64.5724 130.639 64.6468 130.62 64.7174L128.473 73.174C128.457 73.2436 128.422 73.3075 128.373 73.3593C128.324 73.411 128.262 73.4488 128.193 73.4687C128.125 73.4904 128.053 73.4936 127.984 73.4779C127.914 73.4622 127.85 73.4283 127.799 73.3797L121.324 67.5348C121.27 67.4862 121.23 67.4239 121.207 67.3545C121.185 67.2851 121.181 67.211 121.197 67.1398C121.213 67.0686 121.247 67.0029 121.297 66.9494C121.346 66.8959 121.409 66.8565 121.479 66.8352L130.093 64.2234C130.136 64.2089 130.181 64.2025 130.226 64.2043Z" fill="#6DC8C2"/>
<path d="M119.172 89.6868C116.476 89.6868 114.29 87.5009 114.29 84.8044C114.29 82.108 116.476 79.9221 119.172 79.9221C121.869 79.9221 124.055 82.108 124.055 84.8044C124.055 87.5009 121.869 89.6868 119.172 89.6868Z" fill="#FFC1EB"/>
<path d="M113.192 62.3489L116.93 69.3992C117.536 70.5433 117.101 71.9625 115.956 72.569L108.906 76.3066C107.762 76.9132 106.343 76.4774 105.736 75.3333L101.999 68.2831C101.392 67.139 101.828 65.7198 102.972 65.1132L110.022 61.3756C111.166 60.769 112.586 61.2048 113.192 62.3489Z" fill="#FFBB45"/>
<path d="M119.172 90.1103C119.263 90.1101 119.352 90.0807 119.425 90.0265C119.497 89.9723 119.551 89.8962 119.577 89.8092C121.136 84.6513 117.64 81.9652 115.573 81.2593C115.466 81.2233 115.35 81.2311 115.249 81.281C115.148 81.3309 115.071 81.4188 115.035 81.5253C114.999 81.6319 115.007 81.7484 115.057 81.8491C115.107 81.9499 115.195 82.0268 115.301 82.0627C115.513 82.1369 120.472 83.9135 118.765 89.5633C118.733 89.671 118.745 89.7871 118.798 89.8861C118.851 89.985 118.942 90.0588 119.049 90.0912C119.089 90.1036 119.131 90.11 119.172 90.1103Z" fill="#FB6D6D"/>
<path d="M123.171 88.0116C123.254 88.0113 123.335 87.9869 123.404 87.9413C123.473 87.8958 123.527 87.8311 123.559 87.7552C123.592 87.6793 123.602 87.5955 123.588 87.5141C123.573 87.4328 123.535 87.3574 123.479 87.2972C122.667 86.4492 122.275 85.563 122.313 84.6768C122.372 83.3094 123.441 82.3448 123.451 82.3448C123.496 82.3089 123.533 82.2644 123.56 82.2139C123.587 82.1633 123.603 82.1079 123.608 82.0509C123.613 81.9938 123.606 81.9364 123.588 81.882C123.57 81.8277 123.541 81.7775 123.504 81.7345C123.466 81.6916 123.42 81.6567 123.368 81.632C123.316 81.6074 123.26 81.5934 123.203 81.591C123.146 81.5886 123.089 81.5978 123.035 81.6181C122.982 81.6383 122.933 81.6692 122.892 81.7088C122.837 81.7555 121.545 82.9045 121.467 84.6366C121.416 85.7644 121.891 86.8583 122.864 87.8865C122.904 87.927 122.952 87.9589 123.005 87.9804C123.058 88.0019 123.114 88.0125 123.171 88.0116Z" fill="#FB6D6D"/>
<path d="M34.8687 155.366H60.5631C61.5044 155.366 62.2676 156.13 62.2676 157.071V160.739C62.2676 161.68 61.5044 162.443 60.5631 162.443H34.8687C33.9273 162.443 33.1642 161.68 33.1642 160.739V157.071C33.1642 156.13 33.9273 155.366 34.8687 155.366Z" fill="#FFC1EB"/>
<path d="M60.5359 162.559C60.6019 162.559 60.667 162.543 60.7258 162.514C60.7847 162.484 60.8359 162.441 60.8751 162.388C60.9085 162.343 60.9328 162.292 60.9467 162.238C60.9605 162.184 60.9635 162.128 60.9557 162.073C60.9478 162.018 60.9291 161.965 60.9008 161.917C60.8724 161.869 60.8349 161.827 60.7903 161.794L56.9086 158.898L60.7946 155.896C60.8837 155.828 60.9419 155.726 60.9564 155.615C60.9709 155.503 60.9405 155.391 60.8719 155.301C60.8033 155.212 60.7022 155.154 60.5906 155.14C60.4791 155.125 60.3664 155.155 60.2773 155.224L55.5073 158.911L60.2815 162.474C60.3549 162.53 60.4442 162.559 60.5359 162.559Z" fill="#FB6D6D"/>
<path d="M33.5427 159.328H56.2098C56.3222 159.328 56.4301 159.283 56.5096 159.204C56.5891 159.124 56.6338 159.016 56.6338 158.904C56.6338 158.791 56.5891 158.684 56.5096 158.604C56.4301 158.525 56.3222 158.48 56.2098 158.48H33.5427C33.4303 158.48 33.3224 158.525 33.2429 158.604C33.1634 158.684 33.1187 158.791 33.1187 158.904C33.1187 159.016 33.1634 159.124 33.2429 159.204C33.3224 159.283 33.4303 159.328 33.5427 159.328Z" fill="#FB6D6D"/>
<path d="M31.4817 162.457H65.1982C66.7179 162.457 67.95 163.689 67.95 165.209V182.563C67.95 184.083 66.7179 185.315 65.1982 185.315H31.4817C29.962 185.315 28.73 184.083 28.73 182.563V165.209C28.73 163.689 29.962 162.457 31.4817 162.457Z" fill="#6DC8C2"/>
<path d="M35.9725 185.254C36.0849 185.254 36.1928 185.21 36.2723 185.13C36.3518 185.051 36.3965 184.943 36.3965 184.83V173.096C36.3965 172.984 36.3518 172.876 36.2723 172.796C36.1928 172.717 36.0849 172.672 35.9725 172.672C35.86 172.672 35.7522 172.717 35.6727 172.796C35.5932 172.876 35.5485 172.984 35.5485 173.096V184.83C35.5485 184.943 35.5932 185.051 35.6727 185.13C35.7522 185.21 35.86 185.254 35.9725 185.254Z" fill="black"/>
<path d="M58.9829 165.962H64.7048C65.3441 165.962 65.8623 166.48 65.8623 167.12V170.041C65.8623 170.68 65.3441 171.198 64.7048 171.198H58.9829C58.3436 171.198 57.8254 170.68 57.8254 170.041V167.12C57.8254 166.48 58.3436 165.962 58.9829 165.962Z" fill="white"/>
<path d="M58.7233 173.812H65.202C65.3144 173.812 65.4223 173.767 65.5018 173.688C65.5813 173.608 65.626 173.501 65.626 173.388C65.626 173.276 65.5813 173.168 65.5018 173.088C65.4223 173.009 65.3144 172.964 65.202 172.964H58.7233C58.6108 172.964 58.503 173.009 58.4234 173.088C58.3439 173.168 58.2993 173.276 58.2993 173.388C58.2993 173.501 58.3439 173.608 58.4234 173.688C58.503 173.767 58.6108 173.812 58.7233 173.812Z" fill="black"/>
<path d="M60.4362 175.792H65.202C65.3144 175.792 65.4223 175.748 65.5018 175.668C65.5813 175.589 65.626 175.481 65.626 175.368C65.626 175.256 65.5813 175.148 65.5018 175.069C65.4223 174.989 65.3144 174.944 65.202 174.944H60.4362C60.3238 174.944 60.2159 174.989 60.1364 175.069C60.0569 175.148 60.0122 175.256 60.0122 175.368C60.0122 175.481 60.0569 175.589 60.1364 175.668C60.2159 175.748 60.3238 175.792 60.4362 175.792Z" fill="black"/>
<path d="M36.0101 173.52C36.3999 173.521 36.7841 173.426 37.1294 173.245C37.4747 173.064 37.7709 172.802 37.9923 172.481L44.3841 163.876C44.4173 163.831 44.4415 163.781 44.4551 163.727C44.4687 163.673 44.4716 163.616 44.4635 163.561C44.4555 163.506 44.4366 163.453 44.4081 163.405C44.3795 163.358 44.3418 163.316 44.2971 163.283C44.2525 163.249 44.2017 163.225 44.1476 163.211C44.0936 163.198 44.0375 163.195 43.9823 163.203C43.9272 163.211 43.8742 163.23 43.8264 163.258C43.7786 163.287 43.7368 163.325 43.7035 163.369L37.3117 171.987C37.1645 172.204 36.9651 172.381 36.7318 172.501C36.4985 172.62 36.2388 172.68 35.9767 172.673C35.7145 172.666 35.4582 172.594 35.2314 172.462C35.0046 172.33 34.8146 172.144 34.6787 171.919L29.9702 163.439C29.9156 163.341 29.8243 163.268 29.7161 163.237C29.608 163.206 29.4919 163.219 29.3935 163.274C29.2951 163.329 29.2224 163.42 29.1914 163.528C29.1604 163.636 29.1736 163.752 29.2282 163.851L33.9452 172.331C34.153 172.679 34.445 172.969 34.7944 173.174C35.1438 173.379 35.5393 173.493 35.9443 173.505L36.0101 173.52Z" fill="black"/>
<path d="M44.8433 185.466C44.9558 185.466 45.0636 185.421 45.1432 185.342C45.2227 185.262 45.2673 185.154 45.2673 185.042V165.962C45.3606 162.934 43.3593 162.29 43.2639 162.264C43.1584 162.238 43.0467 162.253 42.9518 162.306C42.857 162.359 42.7863 162.447 42.7545 162.551C42.7226 162.655 42.7319 162.768 42.7806 162.865C42.8293 162.962 42.9135 163.037 43.0159 163.074C43.0859 163.098 44.4999 163.592 44.4193 165.949V185.042C44.4193 185.154 44.464 185.262 44.5435 185.342C44.623 185.421 44.7309 185.466 44.8433 185.466Z" fill="black"/>
<path d="M155.219 82.8534C155.354 82.8537 155.484 82.8022 155.583 82.7096C155.681 82.617 155.741 82.4902 155.749 82.3552L155.899 79.7455C155.904 79.6759 155.894 79.6062 155.871 79.5404C155.848 79.4745 155.812 79.4138 155.766 79.3618C155.72 79.3097 155.663 79.2673 155.601 79.2369C155.538 79.2065 155.47 79.1888 155.4 79.1848C155.331 79.1808 155.261 79.1905 155.195 79.2134C155.129 79.2363 155.069 79.2719 155.016 79.3183C154.964 79.3646 154.922 79.4208 154.892 79.4836C154.861 79.5463 154.844 79.6144 154.839 79.684L154.687 82.2938C154.683 82.3634 154.693 82.4331 154.716 82.499C154.739 82.5648 154.774 82.6255 154.821 82.6775C154.867 82.7295 154.924 82.7718 154.986 82.802C155.049 82.8322 155.118 82.8497 155.187 82.8534H155.219Z" fill="black"/>
<path d="M151.858 82.6807C151.993 82.6804 152.122 82.6287 152.22 82.5361C152.319 82.4436 152.378 82.3171 152.386 82.1825L152.536 79.5706C152.544 79.4301 152.496 79.2921 152.402 79.1872C152.308 79.0822 152.177 79.0188 152.036 79.011C151.895 79.0031 151.757 79.0514 151.652 79.1452C151.548 79.239 151.484 79.3707 151.476 79.5113L151.326 82.121C151.318 82.2613 151.366 82.399 151.459 82.504C151.552 82.6089 151.684 82.6725 151.824 82.6807H151.858Z" fill="black"/>
</svg>
